<?xml version="1.0" standalone="no"?>
<!DOCTYPE svg PUBLIC "-//W3C//DTD SVG 1.1//EN" "http://www.w3.org/Graphics/SVG/1.1/DTD/svg11.dtd" >
<svg xmlns="http://www.w3.org/2000/svg" xmlns:xlink="http://www.w3.org/1999/xlink" version="1.1">
<metadata>
Created by FontForge 20170924 at Mon Apr 13 12:54:56 2020
 By www-data
Otamendi (Pen Culture). 2020. All Rights Reserved
</metadata>
<defs>
<font id="Otamendi" horiz-adv-x="691" >
  <font-face 
    font-family="Otamendi"
    font-weight="400"
    font-stretch="normal"
    units-per-em="1000"
    panose-1="2 0 5 0 0 0 0 0 0 0"
    ascent="800"
    descent="-200"
    x-height="338"
    cap-height="811"
    bbox="-691 -459 1227 927.756"
    underline-thickness="50"
    underline-position="-75"
    unicode-range="U+001D-2212"
  />
<missing-glyph horiz-adv-x="500" 
d="M500 0h-402v700h402v-700zM476 24v652h-354v-652h354zM282 222h-15c-12 31 -17 55 -17 72c0 25 13 60 39 106c27 47 40 82 40 106c0 37 -22 60 -60 60c-24 0 -40 -9 -61 -27v22c29 26 55 35 83 35c58 0 99 -31 99 -85c0 -33 -14 -62 -53 -112c-21 -26 -37 -47 -49 -64
c-11 -17 -17 -33 -17 -48c0 -13 4 -34 11 -65zM277 104c-4 0 -7 2 -10 5l-30 35c-2 2 -3 5 -3 8c0 4 1 7 5 11l28 28c3 4 7 5 10 5s6 -2 10 -5l28 -29c3 -4 4 -7 4 -10c0 -4 -2 -7 -5 -11l-27 -30c-5 -5 -8 -7 -10 -7z" />
    <glyph glyph-name=".notdef" horiz-adv-x="500" 
d="M500 0h-402v700h402v-700zM476 24v652h-354v-652h354zM282 222h-15c-12 31 -17 55 -17 72c0 25 13 60 39 106c27 47 40 82 40 106c0 37 -22 60 -60 60c-24 0 -40 -9 -61 -27v22c29 26 55 35 83 35c58 0 99 -31 99 -85c0 -33 -14 -62 -53 -112c-21 -26 -37 -47 -49 -64
c-11 -17 -17 -33 -17 -48c0 -13 4 -34 11 -65zM277 104c-4 0 -7 2 -10 5l-30 35c-2 2 -3 5 -3 8c0 4 1 7 5 11l28 28c3 4 7 5 10 5s6 -2 10 -5l28 -29c3 -4 4 -7 4 -10c0 -4 -2 -7 -5 -11l-27 -30c-5 -5 -8 -7 -10 -7z" />
    <glyph glyph-name=".null" horiz-adv-x="0" 
 />
    <glyph glyph-name=".null" horiz-adv-x="0" 
 />
    <glyph glyph-name="nonmarkingreturn" horiz-adv-x="508" 
 />
    <glyph glyph-name="space" unicode=" " horiz-adv-x="358" 
 />
    <glyph glyph-name="space" unicode="&#xa0;" horiz-adv-x="358" 
 />
    <glyph glyph-name="exclam" unicode="!" horiz-adv-x="170" 
d="M61 -84c-10 4 -16 12 -16 21c-1 11 7 23 21 24h3c13 -1 21 -11 21 -22c1 -8 -3 -16 -12 -21c-3 -2 -6 -3 -9 -3s-5 0 -8 1zM74 -9c-5 2 -7 9 -7 16c-1 16 2 46 19 110c73 282 136 446 219 591c34 60 57 83 72 83c5 1 9 -1 13 -5s6 -8 6 -12c0 -5 -2 -11 -8 -19
c-43 -52 -130 -247 -195 -433c-33 -93 -76 -237 -94 -312c-4 -15 -9 -23 -16 -23c-3 0 -6 1 -9 4z" />
    <glyph glyph-name="quotedbl" unicode="&#x22;" horiz-adv-x="264" 
d="M230 571c-4 4 -6 11 -6 20c0 43 49 127 82 127c14 0 22 -10 22 -21c0 -8 -4 -15 -13 -19c-5 -2 -9 -6 -17 -16c-28 -36 -41 -58 -43 -78c-1 -11 -7 -17 -14 -17c-3 0 -7 1 -11 4zM321 575c-4 4 -6 10 -6 18c0 9 3 20 8 35c19 50 45 81 68 81c5 0 9 -2 13 -4
c8 -4 12 -12 12 -19c0 -9 -5 -16 -14 -16c-10 0 -41 -47 -53 -80c-4 -12 -11 -19 -18 -19c-3 0 -7 1 -10 4z" />
    <glyph glyph-name="numbersign" unicode="#" horiz-adv-x="501" 
d="M257 2c-9 5 -13 15 -13 32c0 11 2 26 6 43c1 7 2 13 2 17c0 5 -2 7 -10 7c-7 0 -19 -2 -38 -4h-4c-9 0 -15 6 -15 14c0 6 4 13 13 17c7 2 31 7 52 8c14 3 16 3 16 6c0 1 18 47 25 62c0 1 -3 2 -9 2c-17 0 -53 -5 -61 -9c-4 -2 -7 -3 -11 -3c-12 0 -21 9 -21 20
c0 4 2 9 6 13c9 8 37 15 93 21c26 3 26 3 38 23c36 64 61 94 82 94c6 0 13 -3 19 -9c5 -5 7 -13 7 -21c0 -17 -10 -36 -24 -37c-6 0 -35 -34 -35 -42l1 -2c2 -1 10 -2 19 -2c15 0 32 2 34 5c32 52 52 73 70 73c4 0 8 -1 13 -3c6 -4 9 -11 9 -20c0 -10 -5 -22 -15 -25
c-5 -2 -9 -5 -17 -17c-6 -10 -9 -15 -9 -17s2 -2 5 -2c47 -8 65 -17 65 -32c0 -11 -8 -17 -21 -17h-8c-12 2 -55 7 -64 7h-1c-4 -3 -27 -58 -27 -62c0 -1 10 -3 23 -5c41 -3 57 -10 61 -23c1 -3 1 -5 1 -7c0 -8 -6 -12 -20 -12c-4 0 -9 0 -14 1c-28 2 -60 5 -61 5
c-1 -2 -9 -29 -12 -51c-3 -18 -7 -26 -17 -26h-3c-13 2 -20 15 -20 36c0 8 1 17 3 27c1 8 1 14 1 14c-1 1 -17 2 -34 2c-16 0 -33 -1 -34 -2c-6 -7 -15 -52 -15 -68c0 -3 0 -5 1 -5c1 -1 1 -3 1 -5c0 -5 -1 -11 -2 -14c-4 -7 -11 -11 -19 -11c-4 0 -8 1 -12 4zM388 160
c3 10 8 23 11 31c1 5 3 8 3 10c0 5 -6 5 -24 6c-8 0 -14 1 -18 1c-12 0 -12 -4 -21 -23c-10 -21 -16 -31 -16 -37c0 -4 4 -5 13 -5h15c32 0 32 0 37 17z" />
    <glyph glyph-name="dollar" unicode="$" horiz-adv-x="458" 
d="M151 -43c-9 5 -12 17 -12 36c0 8 1 18 3 30c1 12 3 22 3 24s-4 4 -12 7c-37 12 -59 35 -58 59c0 7 2 14 6 21c8 11 17 16 23 16c5 0 8 -3 8 -9c0 -3 -1 -7 -3 -11c-2 -8 -4 -12 -4 -16c0 -3 1 -5 3 -8c6 -10 31 -22 41 -23c2 0 4 1 4 2c13 52 27 100 44 142
c6 15 8 23 8 26s-1 3 -3 3c-5 0 -48 11 -58 16c-25 10 -37 25 -36 43c1 44 72 102 182 138c17 5 16 3 34 32c34 55 60 81 78 81c3 0 5 -1 8 -2c6 -3 8 -7 8 -11s-3 -10 -9 -16c-9 -9 -33 -40 -44 -59c-2 -4 -4 -6 -4 -7s1 -1 2 -1h6c10 1 19 1 28 1c46 -1 72 -18 72 -44
c-1 -15 -10 -33 -29 -53c-15 -14 -25 -21 -33 -21c-4 0 -8 2 -11 7c-2 4 -3 7 -3 11c0 6 4 13 15 24c11 12 18 21 18 25c0 1 -1 1 -1 2c-4 2 -11 3 -20 3c-17 0 -42 -3 -65 -10c-11 -2 -11 -2 -21 -22c-18 -34 -52 -111 -53 -115c1 0 6 -1 13 -3c72 -22 105 -61 104 -101
c-1 -56 -68 -114 -184 -127c-14 -1 -14 -1 -17 -13c-5 -21 -8 -39 -8 -52v-11c0 -11 -5 -17 -13 -17c-3 0 -7 1 -10 3zM212 84c84 14 139 55 140 92c0 17 -10 32 -32 44c-17 9 -57 23 -66 24l-2 -1c-3 -4 -40 -103 -50 -134c-3 -12 -7 -24 -8 -25v-1c0 -1 0 -2 2 -2
s7 1 16 3zM231 309c4 10 15 31 22 48c9 16 15 30 16 31h-1c-5 1 -47 -20 -71 -36c-28 -16 -45 -31 -45 -38v-2c5 -6 51 -22 68 -23c2 0 5 6 11 20z" />
    <glyph glyph-name="percent" unicode="%" horiz-adv-x="431" 
d="M249 -25c-17 9 -26 24 -25 48c2 56 56 164 176 363c43 71 61 103 61 108l-1 1c-5 0 -46 -32 -103 -80c-71 -56 -89 -68 -107 -68l-4 1c-19 2 -28 16 -27 37c1 30 21 73 57 107c25 24 52 36 74 35c21 -1 37 -11 46 -32c1 -2 2 -3 3 -3c2 0 4 2 11 7c29 20 50 30 64 30
c9 0 15 -4 18 -12c2 -4 4 -8 3 -14c0 -21 -20 -60 -87 -184c-101 -185 -141 -267 -142 -298c0 -11 4 -15 12 -15c10 -1 15 -4 14 -11c0 -3 -1 -7 -3 -11c-4 -7 -15 -12 -27 -12c-4 1 -9 1 -13 3zM285 403c53 38 75 57 75 68c0 1 0 2 -1 3c-1 2 -3 3 -5 3
c-14 1 -45 -24 -65 -52c-12 -16 -17 -25 -18 -28l1 -1c2 0 6 3 13 7zM382 -5c-21 5 -31 24 -30 48c0 27 15 62 42 93c14 17 29 25 40 25c5 0 10 -2 13 -7c1 -2 2 -3 3 -3s2 1 3 2c2 0 4 1 6 1c12 -1 19 -20 18 -43c-1 -17 -4 -35 -12 -52c-17 -34 -42 -59 -66 -64
c-5 -1 -8 -2 -10 -2s-4 1 -7 2zM403 36c24 15 45 53 46 85c0 5 0 8 -2 8c-1 0 -5 -3 -11 -11c-23 -30 -41 -66 -41 -79c0 -3 1 -5 3 -5c1 0 3 1 5 2z" />
    <glyph glyph-name="ampersand" unicode="&#x26;" horiz-adv-x="614" 
d="M35 -117c-25 5 -37 20 -37 42c0 58 78 172 232 336c30 32 30 32 30 63c3 187 184 436 307 436c8 0 16 -1 23 -3c24 -7 36 -20 36 -41c0 -58 -90 -175 -288 -381c-26 -27 -33 -34 -33 -45c0 -6 2 -12 3 -23c8 -46 37 -134 48 -145c4 0 89 83 122 120c45 52 81 104 81 119
c0 9 9 15 18 15c4 0 8 -1 11 -3c6 -4 9 -10 9 -19c0 -45 -81 -151 -203 -262c-6 -5 -10 -8 -10 -11s3 -5 9 -11c10 -9 14 -17 14 -23c0 -7 -6 -11 -15 -11s-21 4 -33 14c-3 3 -4 4 -6 4c-3 0 -6 -3 -14 -10c-121 -101 -229 -162 -289 -162c-6 0 -10 0 -15 1zM81 -77
c46 13 114 57 199 128c37 31 47 38 47 45c0 3 -2 7 -5 12c-17 33 -33 73 -43 113c-3 13 -8 30 -8 32h-1c-4 0 -24 -25 -79 -87c-97 -106 -151 -189 -151 -226c0 -13 7 -20 21 -20c6 0 12 1 20 3zM343 382c163 175 249 290 249 329c0 11 -6 16 -18 16
c-103 0 -254 -211 -270 -376c0 -3 -1 -6 -1 -7s1 -2 1 -2c3 0 11 10 39 40z" />
    <glyph glyph-name="quotesingle" unicode="'" horiz-adv-x="169" 
d="M217 599c-5 3 -7 9 -7 18c0 8 2 18 6 29c19 49 49 83 70 83c4 0 8 -1 11 -4c5 -5 8 -11 8 -17s-2 -18 -9 -18c-9 0 -37 -33 -54 -71c-6 -16 -11 -22 -18 -22c-2 0 -4 0 -7 2z" />
    <glyph glyph-name="parenleft" unicode="(" horiz-adv-x="198" 
d="M57 -219c-12 6 -17 28 -17 69c0 30 3 68 8 118c27 239 130 477 291 674c30 37 54 56 68 56c6 0 10 -3 12 -9c1 -2 1 -3 1 -5c0 -6 -5 -14 -20 -30c-108 -115 -228 -345 -282 -542c-25 -91 -40 -190 -40 -284c0 -38 -2 -51 -10 -51c-3 0 -6 1 -11 4z" />
    <glyph glyph-name="parenright" unicode=")" horiz-adv-x="229" 
d="M-263 -216c-3 2 -5 5 -5 7c0 6 6 13 21 27c24 26 79 98 107 142c116 179 234 521 241 696c1 38 2 42 16 42s21 -15 21 -49c0 -20 -2 -46 -7 -79c-30 -216 -126 -475 -236 -633c-72 -105 -121 -157 -147 -157c-5 0 -8 2 -11 4z" />
    <glyph glyph-name="asterisk" unicode="*" horiz-adv-x="242" 
d="M258 550c-8 4 -13 15 -13 32c0 7 1 14 3 22c0 4 1 8 1 10v1c-2 0 -26 -14 -33 -21c-5 -4 -9 -6 -12 -6s-6 2 -9 5s-5 6 -5 10c0 9 10 20 33 34c8 6 15 11 15 11c-1 0 -8 1 -15 3c-8 1 -19 3 -25 3c-12 1 -18 5 -18 13c0 10 8 15 25 15c10 0 21 -2 36 -5c2 0 4 -1 5 -1
c2 0 4 1 4 2c0 4 -6 12 -17 30c-4 5 -6 10 -6 14c0 3 1 5 4 7c1 1 2 1 4 1c7 0 17 -10 32 -31c3 -5 5 -8 7 -8s5 4 10 13c13 23 19 30 27 30h3c6 -2 10 -4 10 -10s-3 -14 -8 -25c-5 -10 -7 -15 -7 -17c0 -1 0 -1 1 -1s4 1 10 3c17 6 31 9 42 9c13 0 21 -5 21 -14
c0 -8 -4 -11 -21 -15c-23 -6 -33 -9 -33 -13c0 -2 5 -5 13 -9c31 -17 39 -23 39 -34c0 -8 -3 -11 -9 -11c-5 0 -12 2 -21 7c-20 10 -29 15 -33 15c-1 0 -2 -1 -2 -2c0 -2 2 -7 6 -14c7 -15 10 -24 10 -30c0 -5 -2 -7 -5 -10c-4 -3 -6 -4 -9 -4c-7 0 -13 9 -24 31
c-6 13 -9 17 -11 17c-3 -9 -5 -34 -5 -41v-4c0 -9 -5 -15 -12 -15c-2 0 -5 1 -8 3z" />
    <glyph glyph-name="plus" unicode="+" horiz-adv-x="329" 
d="M181 145c-12 8 -17 25 -15 49c0 7 1 15 3 23l1 3c0 10 -9 16 -23 17c-8 1 -18 -1 -28 -4c-3 -1 -6 -1 -8 -1c-9 1 -15 7 -14 14c0 5 3 9 11 12c12 4 36 8 62 8c13 0 13 0 20 16c15 31 28 47 39 52c3 1 6 1 9 1c9 0 16 -8 15 -17c0 -4 -2 -9 -5 -13c-5 -6 -20 -35 -20 -40
v-1c0 -1 11 -2 24 -4c48 -6 63 -13 62 -27c0 -9 -5 -12 -21 -11c-5 1 -10 1 -16 2c-27 4 -42 6 -51 6c-8 1 -11 0 -12 -2c-4 -8 -9 -33 -10 -47c0 -6 0 -9 1 -9c4 -1 8 -8 7 -13c0 -10 -11 -18 -21 -17c-4 0 -7 1 -10 3z" />
    <glyph glyph-name="comma" unicode="," horiz-adv-x="198" 
d="M19 -74c-6 3 -9 7 -9 11c0 6 6 13 18 19c23 11 37 28 44 51c4 11 11 16 17 16c9 0 17 -9 17 -24c0 -34 -45 -76 -75 -76c-4 0 -8 1 -12 3z" />
    <glyph glyph-name="hyphen" unicode="-" horiz-adv-x="328" 
d="M302 237c-11 2 -40 2 -67 2c-22 0 -43 0 -53 -1h-6c-17 0 -25 6 -25 14c0 7 8 15 25 18c22 4 45 6 67 6c54 0 100 -12 100 -28c0 -3 -2 -6 -5 -9s-5 -4 -11 -4c-5 0 -12 1 -25 2z" />
    <glyph glyph-name="hyphen" unicode="&#xad;" horiz-adv-x="328" 
d="M302 237c-11 2 -40 2 -67 2c-22 0 -43 0 -53 -1h-6c-17 0 -25 6 -25 14c0 7 8 15 25 18c22 4 45 6 67 6c54 0 100 -12 100 -28c0 -3 -2 -6 -5 -9s-5 -4 -11 -4c-5 0 -12 1 -25 2z" />
    <glyph glyph-name="period" unicode="." horiz-adv-x="194" 
d="M147 -16c-8 3 -17 13 -18 20c-1 2 -1 4 -1 7c0 15 14 28 29 28c4 0 8 -1 12 -3c11 -5 16 -15 16 -24c0 -15 -12 -30 -28 -30c-3 0 -7 1 -10 2z" />
    <glyph glyph-name="slash" unicode="/" horiz-adv-x="265" 
d="M-112 -230c-3 3 -4 6 -5 12c-1 20 15 63 55 155c129 293 241 490 408 715c45 61 61 79 73 80c2 0 4 0 7 -1c5 -3 8 -5 8 -9c0 -7 -6 -18 -22 -40c-173 -238 -349 -553 -473 -846c-23 -51 -33 -70 -42 -70c-3 -1 -6 1 -9 4z" />
    <glyph glyph-name="zero" unicode="0" horiz-adv-x="239" 
d="M179 458c30 -2 54 -30 54 -64c0 -4 0 -9 -1 -13c-1 -5 -1 -8 -1 -11c0 -2 0 -4 1 -8s2 -13 2 -24c0 -18 -2 -41 -5 -56c-34 -143 -115 -255 -179 -255c-5 0 -10 1 -15 2c-36 11 -52 51 -52 103c0 124 90 317 189 326h7zM178 406c-18 0 -46 -22 -74 -60
c-53 -73 -83 -170 -83 -232c0 -36 10 -59 32 -59c5 0 10 1 17 4c45 19 92 93 120 187c12 38 18 68 18 89c0 20 -6 31 -17 31c-7 0 -16 -4 -27 -13c-9 -7 -15 -11 -19 -11c-3 0 -5 2 -5 7c0 1 0 3 1 6c5 19 24 33 50 38c3 1 4 1 4 2c0 0 -1 1 -2 3c-4 5 -9 8 -15 8z" />
    <glyph glyph-name="one" unicode="1" horiz-adv-x="140" 
d="M131 468c15 0 25 -11 25 -30v-5c-3 -23 -27 -78 -66 -151c-78 -143 -96 -184 -98 -228c0 -4 -1 -7 -1 -9c0 -5 2 -6 5 -7c5 -2 8 -4 8 -8c0 -2 -1 -4 -2 -7c-4 -7 -11 -12 -19 -12c-3 0 -6 1 -9 2c-13 6 -20 20 -20 42c0 45 30 126 90 238c34 66 57 113 57 119
c0 1 -1 2 -3 2c-8 0 -12 5 -12 13s5 19 14 28s19 13 28 13h3z" />
    <glyph glyph-name="two" unicode="2" horiz-adv-x="285" 
d="M236 474c44 0 78 -27 78 -75c0 -13 -3 -29 -9 -46c-26 -72 -106 -161 -260 -287c-9 -8 -17 -14 -17 -15c1 0 10 1 21 2c12 1 25 2 37 2c57 0 106 -12 115 -29c2 -3 2 -6 2 -9c0 -9 -6 -15 -14 -15c-3 0 -6 1 -9 3c-13 9 -54 13 -98 13c-29 0 -59 -2 -84 -6
c-12 -2 -19 -3 -24 -3s-7 1 -9 5c-2 3 -3 6 -3 9c0 19 31 46 95 100c161 139 218 211 218 274c0 23 -14 33 -35 33c-39 0 -101 -38 -126 -91c-4 -8 -6 -16 -6 -23c0 -10 4 -19 10 -26c5 -5 7 -11 7 -16c0 -9 -7 -17 -18 -17c-3 0 -7 1 -11 3c-20 10 -30 31 -30 55
s10 52 29 78c43 56 97 81 141 81z" />
    <glyph glyph-name="three" unicode="3" horiz-adv-x="348" 
d="M253 470h4c28 0 52 -9 63 -29c4 -6 5 -13 5 -20c0 -35 -39 -81 -117 -139c-16 -12 -22 -16 -22 -18c0 -1 3 -1 7 -1c11 0 33 -4 45 -8c42 -14 60 -42 60 -74c0 -74 -93 -170 -202 -170h-13c-49 4 -83 43 -83 83c0 14 4 28 13 41c6 9 12 13 18 13c5 0 10 -5 10 -13
c0 -3 -1 -7 -3 -12c-5 -11 -7 -20 -7 -29c0 -32 30 -48 69 -48c47 0 108 24 144 73c17 23 26 43 26 59c0 34 -36 54 -102 54c-30 0 -40 5 -40 19c0 15 4 19 60 64c64 51 96 84 96 101c0 4 -2 7 -6 9c-5 3 -12 4 -20 4c-45 0 -121 -37 -121 -60c0 -3 1 -6 4 -8
c10 -8 14 -13 14 -18c0 -3 -1 -6 -3 -9c-3 -5 -8 -7 -14 -7c-13 0 -29 11 -37 28c-3 6 -4 12 -4 18c0 50 89 97 156 97z" />
    <glyph glyph-name="four" unicode="4" horiz-adv-x="273" 
d="M106 474c11 0 19 -7 19 -20c0 -8 -4 -18 -11 -30c-47 -77 -72 -141 -72 -179c0 -26 11 -40 33 -40c5 0 11 0 17 2c43 11 65 27 74 52c21 65 67 162 88 188c7 9 15 13 22 13c8 0 13 -6 13 -14c0 -5 -2 -12 -7 -19c-16 -24 -53 -107 -66 -147c-1 -2 -1 -4 -1 -5h1
c1 0 6 3 17 10c13 9 23 13 29 13c4 0 6 -1 8 -5c0 -1 1 -3 1 -4c0 -11 -14 -24 -51 -50c-23 -15 -23 -15 -28 -31c-18 -60 -31 -129 -31 -159c0 -5 0 -9 1 -11s1 -4 1 -6c0 -10 -6 -16 -13 -16c-4 0 -8 2 -12 6c-6 6 -9 24 -9 47c0 30 5 70 14 110c2 8 3 15 3 15
c-1 0 -8 -3 -17 -7c-22 -10 -41 -15 -58 -15c-47 0 -73 38 -73 94c0 51 23 118 71 184c13 17 26 24 37 24z" />
    <glyph glyph-name="five" unicode="5" horiz-adv-x="304" 
d="M230 472c11 0 21 0 31 -1c36 -3 58 -15 58 -28c0 -4 -2 -9 -7 -13c-3 -3 -4 -5 -9 -5s-13 1 -30 3c-8 1 -21 1 -36 1c-28 0 -64 -1 -83 -4c-4 0 -6 0 -6 -2c0 0 0 -1 1 -2c1 -2 1 -5 1 -7c0 -9 -4 -22 -21 -61c-26 -61 -34 -82 -34 -83c2 0 9 3 18 7c33 16 60 23 81 23
c32 0 49 -17 49 -49c0 -29 -15 -70 -46 -120c-47 -75 -102 -118 -150 -118c-6 0 -11 1 -17 2c-30 7 -48 25 -48 46v2c1 16 9 25 16 25c6 0 12 -4 15 -15c4 -14 13 -20 25 -20c40 0 114 65 157 148c11 22 16 39 16 50c0 13 -6 19 -18 19c-18 0 -47 -13 -87 -38
c-19 -12 -33 -18 -44 -18c-12 0 -19 9 -22 26v4c0 27 33 112 65 162c4 7 8 13 8 14c0 0 -3 0 -8 -1h-1c-10 0 -17 8 -17 16c0 4 1 7 4 10c11 14 81 27 139 27z" />
    <glyph glyph-name="six" unicode="6" horiz-adv-x="259" 
d="M210 469c14 0 22 -10 22 -19c0 -7 -4 -13 -14 -16c-53 -15 -161 -153 -191 -245c-3 -7 -5 -11 -5 -13h1c2 0 7 4 17 13c42 40 86 60 120 60c30 0 53 -16 59 -49c1 -4 1 -8 1 -13c0 -71 -96 -167 -166 -167c-4 0 -9 0 -13 1c-18 4 -37 18 -47 35c-4 7 -6 8 -8 8h-6
c-9 0 -14 8 -14 20c0 7 2 16 6 24c3 4 3 9 3 17c0 83 53 189 137 276c40 41 71 63 93 67c2 0 4 1 5 1zM159 214c-3 0 -6 -1 -10 -1c-41 -8 -136 -87 -136 -114v-1c5 -33 22 -51 47 -51c7 0 15 2 23 5c59 21 104 91 104 132c0 18 -8 30 -28 30z" />
    <glyph glyph-name="seven" unicode="7" horiz-adv-x="268" 
d="M164 472c76 0 117 -21 117 -60c0 -31 -12 -50 -109 -174c-90 -113 -128 -171 -128 -193c0 -4 2 -8 6 -9c4 -2 6 -5 6 -8c0 -2 0 -3 -1 -5c-3 -7 -11 -11 -18 -11c-4 0 -7 1 -10 3c-10 6 -15 16 -15 29c0 42 52 124 175 280c33 43 50 68 50 82c0 16 -20 20 -60 22h-10
c-35 0 -85 -8 -85 -16v-3c0 -6 -5 -10 -12 -10s-17 4 -23 12c-4 4 -5 9 -5 13c0 25 54 48 122 48z" />
    <glyph glyph-name="eight" unicode="8" horiz-adv-x="292" 
d="M177 476c33 0 60 -15 69 -49c1 -5 2 -11 2 -17c0 -64 -67 -171 -109 -171c-3 0 -5 1 -8 2s-5 3 -5 6c0 7 14 19 29 38c28 33 54 81 54 121c0 4 0 9 -1 13c-2 16 -16 22 -34 22c-36 0 -89 -26 -107 -63c-5 -11 -7 -23 -7 -35c0 -20 7 -38 18 -39c15 -1 25 -10 25 -21
c0 -5 -2 -11 -6 -16c-1 -1 -1 -2 -1 -4c0 -8 12 -24 50 -66c38 -44 50 -61 50 -82c0 -3 0 -7 -1 -11c-7 -50 -103 -101 -179 -101c-10 0 -19 1 -28 3c-50 10 -74 44 -74 88c0 55 37 124 109 181c7 6 12 11 12 12c0 2 -2 9 -4 16c-4 14 -7 27 -7 39c0 4 1 8 1 12
c9 72 87 122 148 122h4zM64 238c-16 0 -43 -29 -82 -87c-16 -25 -24 -47 -24 -65c0 -30 21 -49 60 -49c12 0 26 2 42 6c50 13 95 41 104 63c1 4 2 7 2 10c0 15 -13 31 -52 72c-16 17 -34 37 -40 45c-3 3 -6 4 -10 5z" />
    <glyph glyph-name="nine" unicode="9" horiz-adv-x="270" 
d="M154 474h3c20 0 38 -11 51 -32c3 -4 4 -7 5 -7c2 0 5 3 11 9c13 12 23 17 32 17c16 0 24 -18 24 -50c0 -28 -7 -67 -22 -112c-50 -154 -151 -288 -210 -288c-5 0 -10 2 -15 4c-9 4 -12 12 -12 19c0 6 4 12 10 12c3 0 5 -1 8 -2c2 -1 4 -1 7 -1c45 0 156 168 195 301
c8 28 14 65 14 80c0 4 -1 7 -2 7c-7 0 -28 -27 -28 -35v-7c0 -11 -5 -16 -14 -16h-4c-7 0 -13 -7 -58 -73c-61 -89 -83 -111 -108 -111c-24 0 -35 23 -35 57c0 44 19 106 54 159c30 45 64 69 94 69zM157 429h-6c-35 -11 -95 -112 -107 -183c-2 -9 -3 -15 -3 -20
c0 -4 1 -6 3 -6c4 0 10 5 20 15c14 15 29 34 61 81c23 36 50 74 59 87c1 1 1 3 1 4c0 9 -15 22 -28 22z" />
    <glyph glyph-name="colon" unicode=":" horiz-adv-x="272" 
d="M207 65c-10 4 -15 13 -15 23c0 7 3 15 10 21c5 4 10 6 15 6c13 0 25 -12 25 -25c0 -4 -1 -8 -3 -12c-4 -9 -15 -14 -25 -14c-2 0 -5 0 -7 1zM249 225c-8 3 -12 10 -12 18c0 4 0 8 2 12c4 11 13 17 22 17c7 0 14 -3 19 -10c3 -4 4 -9 4 -13c0 -14 -12 -27 -25 -27
c-3 0 -7 1 -10 3z" />
    <glyph glyph-name="semicolon" unicode=";" horiz-adv-x="272" 
d="M105 19c-8 4 -11 9 -11 14c0 6 6 12 18 15c21 5 34 15 47 38c8 16 16 22 23 22s11 -7 11 -18c0 -9 -2 -20 -8 -32c-12 -24 -44 -42 -67 -42c-5 0 -9 1 -13 3zM209 217c-11 3 -16 13 -16 22c0 11 7 23 20 25h3c14 0 23 -11 23 -23c0 -6 -2 -11 -6 -16c-6 -6 -12 -9 -18 -9
c-2 0 -4 1 -6 1z" />
    <glyph glyph-name="semicolon" unicode="&#x37e;" horiz-adv-x="272" 
d="M105 19c-8 4 -11 9 -11 14c0 6 6 12 18 15c21 5 34 15 47 38c8 16 16 22 23 22s11 -7 11 -18c0 -9 -2 -20 -8 -32c-12 -24 -44 -42 -67 -42c-5 0 -9 1 -13 3zM209 217c-11 3 -16 13 -16 22c0 11 7 23 20 25h3c14 0 23 -11 23 -23c0 -6 -2 -11 -6 -16c-6 -6 -12 -9 -18 -9
c-2 0 -4 1 -6 1z" />
    <glyph glyph-name="less" unicode="&#x3c;" horiz-adv-x="343" 
d="M308 80c-2 0 -10 9 -20 18c-19 20 -27 25 -53 36c-19 7 -25 13 -25 23c0 13 6 17 37 27c43 16 76 30 104 46c8 5 14 7 18 7s7 -2 10 -5s4 -6 4 -10c0 -18 -38 -43 -97 -63c-10 -3 -14 -4 -14 -5s3 -2 7 -4c20 -11 45 -43 45 -57v-2c-1 -7 -6 -12 -12 -12c-2 0 -3 0 -4 1z
" />
    <glyph glyph-name="equal" unicode="=" horiz-adv-x="313" 
d="M170 169c-17 0 -33 1 -35 1c-11 0 -17 5 -17 10c0 9 12 20 30 23c20 3 38 4 55 4c42 0 72 -8 72 -21c0 -3 -2 -6 -6 -9c-6 -6 -10 -7 -29 -8c-10 -1 -15 -2 -25 -2c-9 0 -21 1 -45 2zM168 266c-4 5 -6 9 -6 12c0 13 28 22 78 23l20 1c43 0 60 -7 60 -22
c0 -13 -9 -17 -45 -18c-38 0 -62 -1 -78 -1c-26 0 -25 2 -29 5z" />
    <glyph glyph-name="greater" unicode="&#x3e;" horiz-adv-x="333" 
d="M150 71c-5 3 -8 6 -8 11c0 18 38 50 96 79c13 7 19 9 19 11c0 1 -3 2 -6 4c-33 15 -58 41 -58 58c0 4 2 7 5 10s6 4 9 4c6 0 12 -4 19 -12c17 -18 40 -31 73 -43c19 -6 28 -13 28 -20s-9 -14 -28 -21c-33 -12 -72 -34 -117 -68c-15 -11 -20 -15 -25 -15c-2 0 -4 1 -7 2z
" />
    <glyph glyph-name="question" unicode="?" horiz-adv-x="307" 
d="M73 -60c-8 3 -11 11 -11 19c0 7 3 13 9 16c3 1 6 2 9 2c11 0 19 -8 19 -18v-3c-2 -10 -11 -17 -20 -17c-2 0 -4 0 -6 1zM86 5c-7 4 -10 14 -10 28c0 20 6 50 21 80c36 72 96 147 223 296c122 142 159 201 160 249c0 44 -41 65 -99 65c-85 0 -206 -45 -281 -123
c-31 -31 -46 -57 -46 -77c0 -25 23 -41 69 -49c22 -3 32 -14 32 -24c0 -14 -16 -28 -41 -28c-3 0 -6 1 -9 1c-57 8 -91 45 -91 91c0 20 7 41 20 63c65 107 223 175 339 175c66 0 119 -23 134 -68c1 -7 2 -14 2 -21c6 -63 -43 -125 -139 -242c-71 -86 -85 -104 -109 -134
c-97 -123 -161 -225 -161 -253c0 -4 2 -6 5 -7c4 -1 7 -4 7 -8c0 -1 0 -2 -1 -4c-3 -8 -10 -12 -17 -12c-3 0 -6 1 -8 2z" />
    <glyph glyph-name="at" unicode="@" horiz-adv-x="488" 
d="M242 -78c-73 11 -112 85 -110 173c2 60 22 125 62 183c64 93 149 136 217 134c65 -2 115 -46 113 -126c-1 -16 -3 -34 -8 -52c-22 -89 -79 -155 -116 -154c-14 1 -26 11 -31 34c-1 4 -1 6 -2 6c-2 0 -4 -4 -10 -12c-24 -39 -50 -58 -69 -57c-20 0 -33 20 -31 59
c2 77 64 147 108 146c14 0 27 -8 35 -25c2 -3 3 -4 4 -4s3 1 8 5c7 5 13 7 18 7c6 -1 10 -4 10 -10c-1 -5 -3 -11 -8 -17c-18 -25 -30 -63 -31 -85c0 -10 2 -17 7 -17c26 -1 73 70 89 132c4 17 6 32 6 46c2 65 -35 97 -85 98c-67 2 -158 -53 -209 -160
c-24 -50 -36 -98 -37 -139c-2 -78 35 -133 98 -135c18 0 39 4 61 13c5 2 9 3 12 3c5 -1 8 -3 8 -8c0 -3 -1 -6 -3 -9c-9 -19 -47 -31 -88 -30c-6 0 -12 0 -18 1zM316 95c30 29 63 84 64 105c0 3 -1 6 -3 7c-2 3 -5 4 -9 4c-24 1 -66 -56 -73 -107l-1 -10c0 -8 1 -11 4 -11
c4 0 9 4 18 12z" />
    <glyph glyph-name="A" unicode="A" horiz-adv-x="588" 
d="M-53 -181c-5 3 -7 8 -7 16c1 16 14 46 42 103c3 4 7 14 12 22c3 7 8 17 10 21c2 5 9 19 17 34c32 66 87 172 118 230c9 17 14 25 14 28c0 2 -1 2 -2 2c-2 0 -8 -3 -17 -7c-38 -16 -74 -35 -78 -42c-4 -5 -10 -7 -15 -7c-8 0 -15 6 -15 14v2c1 17 44 43 128 80
c29 12 29 12 56 61c144 248 281 410 348 410h2l4 -1c21 -3 32 -16 32 -47v-8c-3 -45 -26 -123 -71 -254c-1 -4 -4 -11 -5 -15s-7 -23 -13 -41c-7 -17 -11 -32 -11 -32c0 -1 5 -2 11 -3c34 -6 53 -19 54 -36v-6c0 -10 -6 -15 -12 -15c-4 0 -8 3 -12 7c-7 10 -22 15 -46 16h-4
c-5 0 -5 -5 -16 -37c-53 -159 -101 -328 -121 -426c0 -5 -2 -18 -4 -29c-3 -26 -5 -29 -18 -29c-14 1 -22 17 -22 44v9c1 10 2 21 5 33c11 52 23 106 41 169c3 10 6 20 7 23c1 8 16 58 24 86c16 52 30 95 46 141c2 7 4 10 4 13c0 2 -1 3 -3 3s-6 -1 -12 -1
c-13 0 -17 -1 -33 -3c-9 -2 -34 -5 -41 -8c-2 0 -11 -2 -19 -4c-33 -8 -93 -28 -98 -32c-2 -1 -10 -15 -19 -30c-8 -15 -21 -38 -28 -51c-8 -13 -16 -27 -19 -31c-2 -4 -17 -32 -33 -61c-17 -30 -40 -72 -51 -93c-13 -21 -25 -44 -29 -50c-49 -90 -75 -141 -79 -158
c-1 -6 -7 -12 -14 -12h-2c-1 0 -3 1 -6 2zM279 361c12 4 23 7 26 7c2 1 7 2 11 3c33 8 82 15 119 17c12 0 12 0 17 14c3 6 11 30 19 53c63 176 81 236 83 273v6c0 4 -1 6 -2 7c-1 0 -4 -2 -7 -4c-44 -29 -140 -146 -221 -270c-18 -29 -68 -110 -68 -111s0 -1 1 -1s7 2 22 6z
" />
    <glyph glyph-name="B" unicode="B" 
d="M15 -186c-13 5 -20 19 -22 42v7c0 5 -1 6 -9 8c-72 11 -106 35 -106 74v2c0 22 19 51 31 51h4c4 -2 6 -4 6 -10c0 -3 -1 -9 -4 -17c-1 -6 -2 -12 -2 -16c0 -27 19 -39 69 -45c6 -1 10 -2 12 -2c5 0 6 2 7 6c1 3 4 13 6 23c5 17 10 35 17 55c4 13 27 80 31 92
c2 5 7 16 11 26c87 228 229 509 307 608c3 4 5 6 5 7s0 1 -1 1c-2 0 -6 -1 -13 -4c-117 -42 -247 -121 -283 -173c-4 -5 -6 -9 -6 -11s3 -3 9 -3c13 0 20 -7 20 -14c0 -6 -6 -12 -18 -13c-4 -1 -8 -1 -12 -1c-20 0 -30 9 -30 24v2c0 24 26 63 75 101
c130 104 294 168 401 168h5c42 -1 75 -11 93 -34c11 -15 18 -33 18 -52v-4c-1 -70 -71 -168 -206 -286c-6 -5 -15 -13 -18 -16c-29 -24 -53 -44 -117 -93c-2 -2 -3 -3 -3 -4h1c2 0 7 1 16 4c46 13 83 21 131 27c20 3 38 4 55 4c76 -2 115 -33 115 -83v-2
c-1 -56 -50 -135 -148 -218c-125 -106 -261 -168 -393 -177c-28 -1 -26 1 -28 -25c-1 -22 -5 -32 -16 -32c-3 0 -6 1 -10 3zM88 -91c149 17 344 131 444 259c28 37 42 67 43 89c0 33 -27 51 -81 52h-8c-26 0 -55 -4 -90 -11c-23 -5 -30 -7 -43 -10c-39 -9 -94 -26 -138 -42
c-8 -4 -20 -8 -26 -10s-12 -5 -13 -6c-3 -3 -33 -74 -55 -131c-6 -14 -12 -28 -13 -31c-18 -46 -54 -152 -54 -160c1 -1 3 -1 7 -1c5 0 14 0 27 2zM250 344c221 172 339 302 340 367v2c0 27 -22 41 -66 42c-19 0 -42 -2 -69 -7c-13 -3 -13 -3 -15 -9c-2 -3 -8 -13 -13 -21
c-12 -16 -24 -32 -29 -40c-1 -3 -6 -10 -9 -15c-22 -36 -59 -101 -88 -161c-3 -6 -9 -19 -14 -27c-9 -19 -37 -78 -51 -108c-16 -32 -21 -45 -21 -48c1 0 16 11 35 25z" />
    <glyph glyph-name="C" unicode="C" horiz-adv-x="505" 
d="M95 -162c-83 12 -121 89 -121 197c0 188 114 469 303 661c73 75 140 110 187 110c42 0 68 -29 68 -82c0 -30 -9 -68 -27 -113c-50 -122 -116 -206 -156 -206c-11 0 -19 5 -25 17c-2 4 -3 8 -3 12c0 12 7 22 16 22c3 0 6 -1 9 -4c1 -1 2 -2 4 -2c23 0 102 135 127 222
c5 18 7 33 7 44c0 24 -9 35 -26 35c-50 0 -160 -97 -256 -245c-118 -182 -177 -367 -177 -490c0 -87 30 -143 91 -143c22 0 47 6 76 21c84 42 212 170 298 293c12 17 20 25 26 25c1 0 3 -1 4 -3c0 -1 1 -2 1 -4c0 -39 -148 -217 -248 -295c-59 -45 -121 -73 -164 -73
c-5 0 -10 0 -14 1z" />
    <glyph glyph-name="D" unicode="D" horiz-adv-x="664" 
d="M21 -154c-12 4 -18 20 -18 46l1 20c0 7 -2 7 -10 7c-44 0 -70 13 -73 38l-1 4c0 5 2 8 6 8c3 0 8 -2 15 -6c15 -8 24 -10 48 -10h7c14 0 13 1 16 14c14 79 57 225 92 314c82 208 239 458 287 458c12 0 19 -5 19 -14c0 -8 -5 -19 -16 -33c-143 -195 -264 -455 -327 -701
c-3 -10 -5 -17 -5 -22c0 -4 2 -6 7 -6c9 0 25 5 56 13c297 81 535 365 535 581c0 56 -16 108 -51 150c-34 40 -91 59 -156 59c-122 0 -274 -66 -356 -177c-13 -17 -19 -29 -19 -37c0 -9 8 -13 25 -13h9c12 0 18 -4 18 -8c0 -6 -9 -14 -26 -19c-8 -2 -16 -3 -23 -3
c-15 0 -28 4 -36 13c-7 8 -10 17 -10 27c0 62 108 167 239 223c66 28 126 41 178 41c153 0 243 -109 243 -256c0 -120 -59 -264 -189 -398c-123 -127 -271 -205 -439 -233c-17 -3 -19 -7 -22 -54c-2 -20 -6 -29 -14 -29c-3 0 -6 1 -10 3z" />
    <glyph glyph-name="E" unicode="E" horiz-adv-x="547" 
d="M6 -160c-56 7 -86 46 -86 99c0 27 7 57 23 89c46 95 137 193 303 327c53 43 85 71 85 75v1c-2 2 -28 3 -53 3h-35c-92 0 -138 21 -138 64c0 19 9 42 28 70c90 136 291 236 408 236c54 0 90 -21 90 -69v-6c-4 -70 -104 -164 -154 -164c-13 0 -22 6 -26 20c-1 2 -1 4 -1 5
c0 9 6 15 13 15c3 0 7 -1 10 -4c1 -1 2 -1 3 -1c14 0 53 31 79 64c25 32 36 55 36 71c0 19 -15 28 -41 28c-81 0 -263 -88 -363 -209c-21 -25 -34 -42 -34 -53c0 -17 32 -20 107 -21c93 -1 106 -4 117 -27c2 -5 4 -10 4 -15c0 -22 -24 -49 -91 -108c-57 -51 -61 -55 -86 -77
c-160 -146 -247 -267 -247 -333c0 -30 18 -49 57 -49c5 0 10 0 15 1c6 0 13 0 20 1c120 16 247 113 429 283c41 39 54 42 60 42c2 0 3 -2 3 -7c0 -23 -90 -110 -220 -216c-106 -86 -213 -136 -293 -136c-7 0 -15 0 -22 1z" />
    <glyph glyph-name="F" unicode="F" horiz-adv-x="522" 
d="M208 -149c-22 6 -33 33 -33 75c0 86 44 236 123 410c8 16 11 25 11 27h-2c-17 0 -115 -33 -154 -50c-7 -3 -11 -4 -15 -4s-6 3 -6 9c0 13 77 46 171 73c14 4 25 8 25 8c1 1 9 17 9 18c0 5 -60 28 -96 38c-29 7 -45 10 -120 22c-58 9 -87 25 -87 50c0 17 12 37 37 61
c137 137 449 248 656 248c43 0 81 -5 112 -15c60 -20 110 -78 110 -121c0 -7 -1 -13 -3 -18c-6 -14 -17 -22 -26 -22c-6 0 -10 4 -10 12c0 2 0 5 2 9c1 4 2 8 2 12c0 35 -44 75 -98 87c-27 6 -57 9 -91 9c-209 0 -527 -106 -641 -224c-15 -16 -24 -27 -24 -35
c0 -15 28 -21 102 -33c79 -12 128 -26 173 -49c7 -4 13 -7 13 -7c1 0 6 9 13 22c47 89 124 210 152 239c9 10 18 15 25 15c6 0 11 -3 15 -9c2 -4 3 -22 3 -33v-9c-2 -2 -4 -3 -6 -3c-4 0 -7 2 -9 6c-1 2 -1 3 -2 3c-2 0 -5 -5 -13 -20c-6 -11 -17 -31 -25 -43
c-30 -53 -102 -188 -102 -194c0 0 11 2 23 4c32 5 60 8 80 8c19 0 33 -2 41 -7c10 -6 14 -15 14 -23c0 -11 -7 -21 -20 -26c-5 -2 -10 -3 -14 -3c-8 0 -14 4 -14 10c0 4 3 8 9 12c1 1 1 1 1 2s-6 2 -16 2c-16 0 -42 -2 -69 -6c-14 -2 -18 -3 -18 -4s1 -2 2 -3
c29 -37 43 -84 43 -136c0 -94 -45 -204 -131 -308c-48 -58 -87 -87 -114 -87c-3 0 -6 0 -8 1zM236 -113c32 16 90 79 129 141c47 77 71 152 71 217c0 51 -15 95 -45 129c-3 3 -5 5 -6 5c-4 0 -9 -10 -24 -43c-86 -188 -146 -369 -146 -432c0 -5 0 -9 1 -12c1 -6 3 -9 7 -9
c2 0 6 1 13 4z" />
    <glyph glyph-name="G" unicode="G" horiz-adv-x="599" 
d="M100 -140c-61 14 -90 84 -90 183c0 149 65 361 183 536c103 153 227 242 313 242c44 0 78 -22 95 -70c5 -14 8 -32 8 -50c0 -66 -29 -148 -70 -181c-9 -7 -18 -10 -26 -10c-12 0 -21 6 -21 17c0 4 1 7 2 11c0 1 3 3 6 5c21 13 51 83 56 132c1 7 1 14 1 21
c0 46 -20 68 -54 68c-51 0 -131 -53 -210 -151c-156 -194 -239 -445 -239 -596c0 -80 25 -124 72 -124c32 0 71 22 126 77c57 57 147 170 213 282c14 24 21 35 21 39c0 1 -1 2 -3 2c-3 0 -8 -2 -17 -4c-80 -22 -156 -54 -176 -75c-4 -4 -7 -6 -10 -6c-2 0 -4 1 -7 2
c-5 2 -7 5 -7 8c0 33 195 120 285 120c31 0 53 -12 53 -30c0 -1 0 -3 -1 -5c-2 -10 -10 -15 -16 -15c-5 0 -10 3 -10 11c0 5 -12 7 -24 7c-7 0 -13 0 -19 -2c-5 -1 10 -3 -66 -160c-18 -38 -25 -96 -25 -122c0 -11 2 -18 4 -20c4 -4 6 -8 6 -12c0 -9 -10 -17 -20 -17
c-5 0 -9 1 -13 4c-12 8 -18 30 -18 59c0 27 5 61 22 95c4 7 4 15 4 15c-1 0 -6 -7 -12 -17c-121 -181 -218 -271 -295 -271c-7 0 -14 0 -21 2z" />
    <glyph glyph-name="H" unicode="H" horiz-adv-x="648" 
d="M43 -139c-15 8 -23 30 -23 68v7c2 55 19 138 51 250c6 22 8 31 9 35c0 5 -3 4 -7 5c-7 2 -14 3 -21 3h-5c-13 0 -25 -4 -38 -10c-142 -74 -180 -94 -199 -94h-1c-3 0 -6 1 -9 2c-5 4 -9 8 -9 12v2c0 11 12 25 34 41c66 44 130 71 185 80c15 2 15 2 40 15
c13 8 31 17 40 21c19 10 16 6 26 36c57 173 144 371 206 469c10 15 21 24 30 24h2c4 0 9 -2 13 -6c3 -3 5 -7 5 -11v-2c0 -9 -5 -22 -15 -46c-4 -9 -8 -18 -9 -21c-2 -7 -4 -9 -11 -9c-6 -1 -22 -33 -58 -117c-33 -75 -103 -259 -104 -272l1 -1s25 12 56 27
c101 46 171 74 234 94c30 9 27 7 31 17c43 95 57 127 79 165c35 65 47 89 67 89h2c14 -1 21 -7 21 -20v-3c0 -8 -3 -18 -7 -31c-10 -27 -11 -27 -19 -28c-7 0 -83 -160 -83 -165c0 -2 1 -2 2 -2h5c6 0 12 1 18 1c22 -1 34 -8 34 -21v-1c0 -8 -8 -15 -16 -15c-2 0 -5 1 -7 3
c-1 1 -5 2 -11 2c-13 0 -35 -2 -38 -5c-5 -6 -122 -314 -142 -395c-4 -17 -8 -47 -9 -60c0 -4 0 -7 1 -7l6 2c2 1 4 1 6 1c4 0 6 -2 6 -7c0 -2 0 -5 -1 -7c-5 -15 -16 -24 -26 -24h-2c-8 0 -15 5 -20 15c-3 9 -4 23 -4 42c2 68 27 193 119 410c2 6 3 8 3 9s-1 1 -2 1
c-2 0 -51 -17 -77 -27c-93 -37 -241 -103 -244 -110c-9 -21 -14 -36 -14 -47c0 -10 3 -17 9 -24c27 -28 40 -69 40 -116v-5c-2 -58 -25 -124 -67 -183c-27 -39 -51 -59 -70 -59h-1c-4 0 -8 1 -12 3zM68 -95c15 10 47 56 64 90c18 36 27 75 28 109v6c0 35 -9 67 -27 84
c-1 2 -2 3 -3 3c-2 0 -4 -7 -13 -38c-31 -108 -52 -206 -53 -246c0 -7 0 -9 1 -9c0 0 1 0 3 1z" />
    <glyph glyph-name="I" unicode="I" horiz-adv-x="254" 
d="M25 -149c-5 2 -7 4 -7 8c0 13 35 38 89 61c7 4 11 6 11 7h-1c-14 0 -21 25 -21 65c0 23 2 51 8 81c23 140 127 418 219 588c21 39 48 84 58 99c3 4 5 8 5 9h-2c-6 0 -32 -3 -53 -7c-3 -1 -5 -2 -5 -4c-3 -6 -10 -8 -17 -8c-10 0 -21 5 -21 14c0 24 91 47 157 47
c23 0 43 -3 56 -9c15 -8 23 -20 23 -31c0 -5 -1 -10 -4 -14c-5 -6 -12 -9 -18 -9c-8 0 -15 4 -15 10c0 2 1 3 2 5l1 3v1c-11 4 -21 5 -30 5c-12 0 -20 -3 -20 -8v-1c0 -12 -2 -18 -12 -29c-77 -90 -279 -579 -296 -718c-2 -16 -3 -28 -3 -37c0 -15 3 -21 10 -22s10 -2 10 -6
c0 -2 -1 -5 -2 -9s-2 -6 -2 -6c1 0 6 1 12 3c10 3 19 5 28 5c22 0 37 -11 37 -29c0 -12 -9 -20 -16 -20c-4 0 -7 2 -9 7c-1 2 -4 3 -8 3c-20 0 -77 -19 -140 -47c-12 -6 -18 -7 -22 -7h-2z" />
    <glyph glyph-name="J" unicode="J" horiz-adv-x="591" 
d="M62 -147c-28 7 -42 25 -42 51c0 40 34 97 95 153c90 81 228 155 349 186c24 6 20 3 30 21c60 106 89 222 89 315s-30 163 -91 176c-6 1 -13 2 -20 2c-90 0 -225 -102 -239 -188c-2 -17 -11 -25 -19 -25c-13 0 -26 15 -26 39c0 85 138 210 251 227c10 1 19 2 28 2
c106 0 165 -99 165 -238c0 -86 -23 -187 -72 -289c-6 -14 -13 -23 -13 -25c1 0 15 3 22 4c31 5 52 7 70 7c22 0 36 -2 40 -9c1 -2 2 -3 2 -5c0 -5 -9 -7 -32 -9c-27 -1 -80 -13 -110 -20c-8 -2 -7 3 -17 -14c-113 -190 -326 -363 -439 -363c-8 0 -14 1 -21 2zM115 -115
c97 31 246 169 337 312c4 6 7 10 7 12v1c0 1 0 1 -1 1c-2 0 -6 -2 -13 -4c-92 -30 -192 -83 -263 -139c-75 -59 -121 -128 -121 -163v-1c0 -15 8 -24 25 -24h3c7 0 16 1 26 5z" />
    <glyph glyph-name="K" unicode="K" horiz-adv-x="733" 
d="M86 -161c-9 4 -13 15 -14 33v5c0 23 6 59 17 107c14 59 36 135 56 196c4 11 7 19 7 23v1c0 2 -1 3 -3 3c-4 0 -12 -3 -24 -6c-47 -13 -81 -20 -104 -21h-5c-20 0 -31 6 -35 17c0 2 -1 3 -1 5v1c0 19 33 32 100 41c29 5 73 16 94 26c3 2 5 6 18 39c55 145 125 299 197 429
c32 60 52 87 67 88c6 0 12 -4 17 -11c2 -2 3 -6 3 -10v-2c0 -22 -15 -61 -26 -62c-9 0 -112 -223 -187 -409c-8 -17 -12 -26 -12 -30c0 -1 1 -1 2 -1h1c3 0 10 3 21 7c290 117 556 267 625 355c11 13 15 19 15 22c0 2 -2 3 -5 4c-15 3 -18 4 -22 7s-7 7 -7 10
c0 7 8 13 24 15c5 2 10 2 15 2h4c21 0 35 -9 39 -28c1 -2 1 -5 1 -8v-2c0 -95 -288 -281 -652 -422c-22 -8 -40 -15 -40 -16l10 -2c55 -7 118 -27 164 -49c86 -42 186 -144 188 -185c0 -5 -2 -10 -5 -13l-6 -3c-5 0 -11 5 -18 14c-21 30 -43 55 -81 89
c-57 50 -109 78 -186 100c-33 9 -95 19 -116 19h-2c-2 0 -3 0 -3 -1c-1 -2 -27 -69 -42 -112c-32 -90 -62 -204 -64 -246c-2 -13 -7 -21 -15 -21c-3 0 -6 0 -10 2z" />
    <glyph glyph-name="L" unicode="L" horiz-adv-x="628" 
d="M75 -142c-25 4 -37 25 -37 64c0 40 13 100 39 182c71 229 199 495 315 657c29 41 49 60 65 60c4 0 8 -1 12 -4c7 -5 10 -10 10 -17s-2 -16 -8 -28c-3 -7 -8 -17 -10 -23c-4 -11 -6 -14 -11 -14c-2 0 -5 0 -8 1c-5 0 -55 -83 -94 -156c-120 -227 -261 -589 -261 -670
c0 -6 0 -9 5 -9c8 0 28 9 78 32c109 51 157 70 215 87c67 21 118 31 152 31c30 0 47 -8 49 -25l1 -5c0 -8 -5 -13 -11 -13c-3 0 -6 1 -10 4c-5 4 -12 6 -23 6c-10 0 -24 -2 -44 -5c-91 -17 -162 -44 -313 -117c-62 -30 -84 -39 -100 -39c-4 0 -7 0 -11 1z" />
    <glyph glyph-name="M" unicode="M" horiz-adv-x="1174" 
d="M14 -133c-12 3 -18 21 -18 48c0 68 36 199 97 345c79 186 214 415 256 436c5 3 10 4 15 4c11 0 19 -9 19 -21c0 -4 -1 -9 -4 -14c-2 -6 -5 -13 -6 -17c-1 -8 -4 -13 -9 -13c-1 0 -3 1 -5 2c-10 0 -119 -200 -178 -325c-26 -57 -67 -152 -67 -155c1 0 6 8 10 17
c155 284 379 583 498 663c23 15 42 23 59 23c33 0 53 -30 53 -83c0 -13 -1 -27 -4 -43c-12 -77 -26 -124 -117 -391c-46 -139 -72 -239 -72 -283c0 -16 4 -24 11 -24c1 0 3 0 4 1c29 11 78 90 164 211c105 146 138 160 167 160c5 0 10 -2 14 -5c19 -11 24 -35 26 -121
c6 -170 34 -254 87 -254c98 20 181 190 202 190c1 0 1 0 2 -1c4 0 9 -1 9 -9c0 -15 -18 -51 -99 -140c-43 -48 -86 -68 -121 -68c-51 0 -89 47 -105 139c-6 37 -8 70 -10 156c0 62 -1 83 -10 83c-4 0 -9 -5 -18 -12c-30 -26 -68 -74 -148 -190c-92 -133 -135 -180 -170 -180
c-6 0 -12 1 -18 4c-23 11 -34 39 -34 86c0 77 31 205 94 381c75 208 95 272 95 318l-1 10c-1 13 -3 19 -9 19c-5 0 -13 -4 -26 -11c-104 -63 -294 -302 -462 -581c-52 -86 -129 -232 -137 -260c-5 -18 -10 -47 -10 -62v-8l1 -5c0 -10 -5 -17 -14 -20c-2 -1 -3 -1 -5 -1
c-1 0 -3 0 -6 1z" />
    <glyph glyph-name="N" unicode="N" horiz-adv-x="631" 
d="M-11 -150c-11 6 -17 16 -17 35v4c0 26 9 67 27 133c46 161 158 419 267 615c84 152 118 203 142 204c5 0 10 -2 15 -6c6 -4 9 -9 9 -15c0 -7 -3 -15 -10 -26c-69 -117 -158 -290 -217 -422c-39 -90 -97 -223 -97 -228c0 0 12 20 28 45c170 278 398 530 483 534h2
c31 0 47 -19 48 -62v-9c0 -63 -29 -172 -86 -339c-59 -170 -82 -251 -82 -303v-6c0 -16 3 -29 8 -42c3 -10 3 -10 11 -13c7 -2 10 -6 10 -10c0 -7 -7 -16 -19 -16h-3c-27 0 -49 45 -51 113v15c0 77 21 158 86 345c46 131 61 181 71 224c6 25 9 42 9 52c-1 10 -4 14 -9 14
l-2 -1c-70 -9 -243 -193 -390 -413c-83 -125 -179 -290 -190 -327c-10 -33 -13 -53 -13 -61l1 -4c1 -2 2 -4 2 -7c0 -12 -12 -24 -25 -24h-3c-2 0 -4 0 -5 1z" />
    <glyph glyph-name="O" unicode="O" 
d="M211 -114c-72 9 -108 72 -108 157c0 81 32 180 98 270c42 58 86 92 113 92c8 0 14 -3 19 -9c2 -3 4 -8 4 -12c0 -11 -8 -23 -17 -23c-6 0 -20 -14 -44 -44c-67 -86 -111 -207 -111 -293c0 -17 2 -32 5 -45c9 -36 34 -53 68 -53c74 0 191 78 289 207
c116 152 174 316 174 443c0 117 -49 203 -150 220c-12 2 -24 3 -36 3c-147 0 -317 -150 -437 -389c-24 -48 -34 -74 -45 -119c-8 -30 -13 -42 -19 -42c-2 0 -5 1 -7 3c-9 7 -13 20 -13 38c0 65 56 192 145 315c114 159 253 232 367 232c129 0 227 -92 227 -260
c0 -36 -4 -76 -14 -119c-64 -278 -319 -573 -490 -573c-6 0 -12 0 -18 1z" />
    <glyph glyph-name="P" unicode="P" horiz-adv-x="649" 
d="M77 -167c-12 6 -18 23 -18 53s6 72 17 128c3 15 6 28 6 28c-1 0 -5 1 -10 2c-36 7 -59 23 -59 42c0 5 2 7 6 7s10 -1 19 -5c17 -7 24 -9 38 -11c4 0 7 -1 9 -1c6 0 6 5 13 27c45 159 129 366 202 498c43 77 64 106 82 106c3 0 7 -1 10 -3c7 -5 10 -12 10 -21
c0 -10 -4 -21 -12 -32c-37 -49 -120 -222 -176 -368c-3 -8 -10 -26 -15 -39c-25 -66 -60 -163 -60 -167h3c11 0 54 6 81 11c258 53 477 342 477 532c0 73 -32 131 -107 156c-25 8 -53 12 -82 12c-139 0 -319 -85 -418 -208c-24 -30 -47 -73 -47 -85c0 -2 0 -3 1 -3
c6 -2 9 -6 9 -11c0 -11 -12 -24 -26 -24c-22 0 -32 15 -32 37c0 30 18 74 52 117c114 142 295 225 444 225c76 0 143 -21 188 -67c38 -38 55 -91 55 -150c0 -185 -169 -438 -398 -537c-50 -22 -129 -39 -193 -42h-6c-15 0 -13 -1 -18 -16c-15 -55 -27 -121 -27 -152v-4
c0 -1 2 -3 4 -4c5 -2 8 -5 8 -10c0 -3 -1 -6 -3 -9c-4 -9 -10 -15 -18 -15c-3 0 -6 1 -9 3z" />
    <glyph glyph-name="Q" unicode="Q" horiz-adv-x="652" 
d="M53 -193c-5 2 -8 6 -8 10c0 9 11 20 31 30c9 4 12 6 12 7s-1 2 -3 3c-55 28 -85 99 -85 186c0 47 9 99 26 151c2 6 3 9 3 12s-1 6 -3 12c-7 26 -11 54 -11 83c0 121 63 259 175 381c99 107 205 156 294 156c126 0 220 -96 220 -262c0 -29 -3 -60 -9 -93
c-33 -185 -178 -421 -337 -549c-7 -6 -13 -11 -13 -12c0 0 8 1 18 2c18 2 35 3 51 3c60 0 100 -14 100 -37c0 -4 -1 -8 -4 -12c-3 -8 -11 -12 -18 -12c-6 0 -12 3 -12 10v1c0 7 -3 9 -22 11c-6 1 -14 1 -23 1c-55 0 -158 -13 -184 -24c-34 -15 -67 -23 -94 -23
c-21 0 -58 -14 -59 -22c0 -8 -19 -15 -34 -15c-4 0 -8 1 -11 2zM199 -108c142 33 331 242 423 467c32 77 46 150 46 214c0 135 -66 228 -178 228c-10 0 -21 0 -33 -2c-190 -27 -408 -303 -408 -506c0 -10 0 -19 1 -29c1 -4 1 -6 2 -6s3 3 6 10c55 102 136 179 183 179
c10 0 18 -3 24 -10c5 -5 7 -9 7 -14c0 -8 -6 -16 -19 -27c-26 -22 -57 -56 -77 -84c-35 -48 -79 -128 -79 -142v-2c9 -5 10 -6 10 -10l1 -1c0 -4 -4 -6 -13 -7c-9 -2 -15 -18 -23 -64c-4 -25 -6 -48 -6 -69c0 -82 35 -129 98 -129c11 0 23 1 35 4z" />
    <glyph glyph-name="R" unicode="R" horiz-adv-x="693" 
d="M133 -142c-17 7 -24 26 -25 63v6c0 220 272 808 362 808c8 0 15 -4 19 -14c2 -3 3 -6 3 -10c0 -7 -4 -16 -13 -31c-11 -19 -12 -22 -16 -22h-5c-4 0 -6 -4 -23 -31c-67 -111 -140 -261 -192 -398c-9 -24 -12 -31 -12 -33s0 -2 1 -2c3 -1 6 -2 11 -2c44 0 176 56 267 115
c176 113 265 254 265 357c0 83 -57 142 -173 142c-22 0 -46 -2 -73 -7c-160 -27 -384 -165 -465 -287c-8 -12 -11 -16 -11 -19c0 -1 1 -3 1 -4c2 -2 2 -5 2 -7c0 -10 -11 -17 -23 -17c-7 0 -13 2 -18 7c-4 5 -7 12 -7 20c0 80 247 278 435 336c58 18 110 26 154 26
c142 0 218 -80 218 -189c0 -113 -84 -259 -262 -377c-89 -59 -231 -120 -292 -126c-5 0 -8 -1 -8 -2c1 -2 34 -43 46 -57c64 -72 154 -138 222 -160c20 -7 39 -10 57 -10c32 0 60 10 72 28c5 6 9 10 11 10c4 0 6 -4 7 -11c1 -2 1 -5 1 -7c0 -29 -46 -49 -102 -49
c-21 0 -44 3 -66 10c-94 28 -217 126 -279 224l-8 12c-1 0 -28 -82 -37 -112c-17 -54 -23 -87 -25 -123v-9c0 -5 1 -7 3 -7c1 0 5 2 10 4s9 2 11 2c6 0 8 -2 8 -8c0 -4 -1 -10 -5 -17c-7 -15 -21 -24 -35 -24c-3 0 -7 0 -11 2z" />
    <glyph glyph-name="S" unicode="S" horiz-adv-x="592" 
d="M123 -122c-62 5 -99 26 -99 54c0 4 0 8 2 13c3 5 5 8 8 8s7 -3 11 -10c13 -22 55 -32 107 -32c59 0 132 13 189 40c80 36 126 83 126 124c0 9 -3 18 -8 27c-24 39 -76 67 -209 110c-137 45 -198 85 -198 142c0 28 15 60 42 99c143 200 508 387 672 387
c50 0 81 -17 81 -57c0 -6 -1 -12 -2 -19c-18 -99 -231 -276 -346 -289h-6c-15 0 -23 7 -23 15c0 7 6 14 19 18c93 26 267 174 301 254c3 7 5 13 5 17c0 10 -8 13 -28 13h-6c-180 -1 -662 -325 -662 -444v-3c3 -35 36 -55 172 -98c145 -46 207 -86 226 -146c3 -8 4 -15 4 -23
c0 -84 -125 -178 -272 -199c-9 -1 -41 -2 -67 -2c-17 0 -32 0 -39 1z" />
    <glyph glyph-name="T" unicode="T" horiz-adv-x="613" 
d="M319 -172c-21 3 -32 20 -34 51v10c0 93 68 290 200 564c16 34 21 43 21 52c-1 6 -3 11 -6 22c-26 92 -94 150 -187 158c-3 0 -4 1 -7 1c-6 -1 -20 -5 -95 -25c-107 -30 -156 -44 -181 -45h-5c-14 0 -18 4 -23 12c-3 4 -4 7 -4 11v1c0 16 22 28 79 48c69 24 116 35 173 38
l12 1c34 2 34 2 88 17c188 55 318 85 457 105c19 2 40 4 62 6c22 1 46 2 68 2c46 0 89 -3 117 -8c41 -8 64 -24 66 -44c0 -5 -1 -10 -3 -15c-5 -10 -14 -16 -20 -16h-2c-5 0 -8 3 -8 9v9c0 4 -3 5 -15 8c-24 6 -56 9 -95 9c-19 0 -39 -1 -61 -2c-55 -4 -121 -12 -193 -24
c-25 -4 -27 -4 -27 -8v-2c-2 -12 -15 -41 -59 -133c-27 -58 -71 -152 -81 -174c-3 -8 -5 -10 -5 -19c0 -3 1 -9 1 -16v-19c0 -134 -39 -286 -112 -436c-49 -100 -85 -147 -116 -149c-1 0 -3 0 -5 1zM358 -91c79 111 152 321 157 456v4c-3 0 -11 -20 -44 -98
c-78 -182 -116 -288 -129 -356c-2 -10 -3 -16 -3 -20v-3c0 -2 0 -3 1 -3c3 0 8 7 18 20zM549 585c52 101 74 143 91 171c4 7 5 11 5 12h-2c-2 0 -18 -3 -37 -7c-49 -10 -117 -27 -199 -48c-10 -2 -15 -3 -15 -5c0 -1 3 -2 9 -4c54 -24 98 -72 123 -135c6 -14 7 -17 8 -17
l1 1c0 1 8 15 16 32z" />
    <glyph glyph-name="U" unicode="U" horiz-adv-x="643" 
d="M96 -173c-63 10 -92 79 -92 182c0 153 66 383 187 607c76 141 123 203 153 203c3 0 6 -1 9 -2c9 -3 13 -9 13 -18c0 -6 -2 -13 -6 -22c-4 -7 -8 -17 -9 -21c-4 -10 -8 -16 -12 -16c-2 0 -4 2 -6 4c-1 1 -1 2 -2 2c-2 0 -5 -6 -20 -33c-141 -237 -250 -572 -250 -741
c0 -30 4 -54 11 -72c8 -22 24 -33 45 -33c72 0 207 122 356 329c49 69 53 75 61 98c63 177 165 376 228 441c9 10 17 14 24 14c10 0 16 -8 16 -23c0 -6 -1 -13 -3 -21c-22 -70 -104 -225 -200 -376c-17 -27 -16 -25 -30 -66c-40 -121 -59 -205 -59 -266c0 -6 0 -12 1 -18
c0 -21 1 -28 6 -28c2 0 5 2 11 5c7 4 12 6 16 6s6 -2 6 -6s-1 -9 -4 -16c-8 -16 -22 -25 -35 -25c-11 0 -21 6 -28 19c-8 14 -11 39 -11 70c0 41 6 93 19 145c4 20 6 26 6 27h-1c-1 -1 -11 -14 -22 -29c-149 -203 -283 -321 -366 -321c-4 0 -8 1 -12 1zM656 480
c40 67 94 173 105 203c0 2 1 4 1 4c-1 0 -2 -2 -6 -8c-27 -41 -69 -121 -102 -195c-6 -13 -9 -19 -9 -21c0 0 4 6 11 17z" />
    <glyph glyph-name="V" unicode="V" horiz-adv-x="585" 
d="M77 -183c-50 12 -75 69 -75 154c0 131 56 328 162 540c49 96 77 136 99 136c4 0 8 -2 12 -4c6 -5 9 -9 9 -15c0 -10 -7 -25 -22 -54c-127 -256 -203 -503 -203 -629c0 -55 15 -87 46 -87c89 0 259 195 461 527c105 172 202 363 202 392c0 2 -1 3 -2 4c-5 0 -7 4 -7 9
c0 9 7 23 17 26h5c13 0 24 -15 24 -35c0 -3 -1 -6 -1 -9c-11 -77 -163 -351 -331 -596c-165 -240 -291 -362 -376 -362c-7 0 -14 1 -20 3z" />
    <glyph glyph-name="W" unicode="W" horiz-adv-x="876" 
d="M482 -167c-80 17 -128 141 -128 310c0 52 4 108 14 167c1 7 1 12 1 12c-2 0 -14 -16 -39 -49c-150 -197 -215 -261 -265 -261c-3 0 -7 0 -10 1c-39 6 -57 47 -57 107c0 158 122 454 285 628c39 42 70 62 92 62c11 0 20 -5 27 -17c1 -3 2 -7 2 -12c0 -21 -10 -55 -20 -57
c-1 -1 -3 -1 -4 -1c-5 0 -8 5 -8 15c0 5 1 10 2 18c0 2 1 5 1 6c0 2 -1 3 -2 3c-3 0 -11 -7 -28 -24c-126 -129 -264 -415 -292 -605c-2 -16 -4 -30 -4 -41c0 -27 7 -40 21 -40c11 0 26 8 45 23c43 34 82 79 191 220c50 66 67 84 80 84c4 0 7 -1 11 -3c8 -5 12 -11 12 -28
c0 -13 -2 -32 -6 -61c-2 -14 -4 -33 -5 -42c-3 -32 -5 -63 -5 -94c0 -131 30 -246 76 -266c11 -8 22 -11 35 -11c2 0 5 -1 8 -1c89 0 240 215 321 492c27 93 40 190 40 270c0 84 -14 150 -43 175c-5 4 -7 7 -7 10c0 4 5 7 11 7c7 0 18 -2 26 -10c36 -40 53 -101 55 -204
c0 -29 -1 -62 -6 -92c-20 -124 -58 -244 -125 -382c-90 -185 -195 -311 -283 -311c-6 0 -13 0 -19 2z" />
    <glyph glyph-name="X" unicode="X" horiz-adv-x="690" 
d="M-250 -180c-14 5 -24 18 -24 29c0 4 1 8 4 11s6 4 9 4c4 0 8 -2 15 -6c2 -1 5 -2 8 -2c16 0 45 12 73 31c60 41 134 112 240 232c4 4 4 5 5 16c10 140 61 328 137 500c54 123 87 174 113 174c3 0 6 -1 9 -2c9 -4 14 -12 14 -20s-4 -17 -12 -25c-13 -14 -54 -99 -81 -168
c-52 -130 -100 -295 -115 -390v-3c1 0 10 11 51 58c219 256 290 332 427 456c99 89 153 128 178 128c5 0 9 -2 12 -5c3 -2 4 -5 4 -7c0 -3 -4 -6 -14 -11c-55 -28 -219 -177 -343 -313c-50 -54 -108 -121 -222 -255c-14 -17 -42 -49 -61 -71c-19 -23 -37 -43 -39 -45
c-5 -6 -7 -37 -7 -71c0 -37 3 -77 8 -100c14 -55 43 -82 85 -82c57 0 131 50 218 149c29 33 74 89 110 135c14 20 25 29 31 29c2 0 4 -1 4 -5c0 -5 -3 -12 -8 -23c-39 -62 -64 -99 -149 -191c-80 -86 -156 -128 -216 -128c-77 0 -130 68 -135 199c0 11 0 16 -2 16
s-4 -3 -10 -9c-141 -159 -241 -238 -299 -238c-7 0 -12 1 -18 3z" />
    <glyph glyph-name="Y" unicode="Y" horiz-adv-x="605" 
d="M141 -151c-18 7 -26 20 -26 37c0 76 149 227 313 308c30 16 26 10 73 104c92 184 151 358 151 442c0 20 -3 35 -10 43c-4 5 -9 7 -16 7c-49 0 -170 -123 -316 -320c-150 -202 -197 -254 -239 -254c-6 0 -12 1 -17 2c-38 12 -54 59 -54 121c0 156 100 406 209 427
c5 1 10 2 15 2c25 0 41 -15 41 -38c0 -6 -1 -12 -3 -19c-5 -12 -13 -18 -20 -18s-13 5 -13 16l1 8c0 2 -1 3 -3 3c-10 0 -48 -43 -71 -86c-50 -86 -90 -237 -90 -319c0 -15 1 -27 4 -37c1 -6 4 -8 9 -8c22 0 78 60 177 189c54 70 58 75 81 104c139 176 235 262 294 262
c16 0 28 -6 39 -18c13 -15 20 -42 20 -77c0 -97 -52 -260 -157 -470c-8 -16 -17 -24 -17 -26c0 -1 0 -2 1 -2s5 2 11 4c50 20 88 29 114 29c13 0 23 -3 29 -9c2 -2 3 -4 3 -5c0 -5 -8 -8 -26 -10c-33 -4 -81 -18 -137 -41c-18 -8 -18 -8 -25 -20
c-51 -108 -132 -211 -218 -279c-45 -34 -87 -54 -114 -54c-5 0 -9 1 -13 2zM160 -118c61 17 176 138 253 257c9 15 13 21 13 23h-1l-4 -2c-126 -73 -261 -205 -275 -267l-1 -4c0 -6 2 -8 7 -8c2 0 4 0 8 1z" />
    <glyph glyph-name="Z" unicode="Z" horiz-adv-x="621" 
d="M-8 -159c-39 8 -56 31 -58 62v5c0 156 503 289 506 290c14 37 19 59 19 77c0 6 -1 11 -2 16c-7 33 -32 50 -73 50c-35 0 -78 -12 -127 -35c-14 -7 -24 -10 -31 -10c-9 0 -14 5 -18 14c-1 3 -2 6 -2 8c0 9 10 20 48 59c72 75 99 103 131 139c92 102 138 178 138 218
c0 20 -12 30 -35 30c-18 0 -41 -6 -72 -18c-83 -33 -183 -116 -183 -151v-4c0 -10 -8 -16 -17 -16c-8 0 -16 4 -21 12c-3 6 -5 12 -5 19c0 76 191 211 301 211c8 0 15 0 22 -2c42 -8 63 -33 63 -71c0 -77 -84 -206 -238 -353c-11 -10 -19 -19 -19 -19h2c2 0 6 1 10 1
c18 4 34 5 49 5c52 0 119 -30 119 -106c0 -18 -4 -39 -12 -62c22 7 56 12 89 12c16 0 32 -1 46 -4c6 -1 9 -6 9 -12c0 -5 -3 -10 -11 -10h-13c-70 0 -133 -21 -133 -21c-18 -62 -122 -193 -261 -273c-67 -38 -146 -63 -199 -63c-8 0 -15 1 -22 2zM39 -126
c138 25 378 235 382 288c-3 0 -94 -31 -140 -48c-177 -64 -306 -143 -320 -206c-1 -2 -1 -5 -1 -7c0 -20 19 -30 47 -30c10 0 20 1 32 3z" />
    <glyph glyph-name="bracketleft" unicode="[" horiz-adv-x="218" 
d="M72 -187c-18 9 -22 19 -22 55c0 62 24 183 57 288c59 190 208 518 255 564c7 6 15 8 24 8c16 0 33 -9 33 -22c0 -2 -1 -5 -2 -7c-3 -7 -9 -10 -25 -11c-14 -2 -13 0 -48 -70c-126 -248 -232 -539 -257 -704c-3 -27 -5 -44 -5 -54c0 -15 4 -17 14 -19c15 -2 24 -8 24 -16
c0 -2 -2 -5 -5 -8c-5 -4 -16 -7 -26 -7c-7 0 -12 1 -17 3z" />
    <glyph glyph-name="backslash" unicode="\" horiz-adv-x="213" 
d="M95 -289c-4 -2 -7 -3 -10 -2c-8 4 -12 24 -18 80c-29 317 -102 670 -194 949c-9 26 -12 39 -9 45c2 4 5 5 11 6c2 0 4 0 6 -1c12 -4 21 -26 46 -98c90 -265 138 -487 172 -805c9 -100 12 -146 4 -165c-2 -5 -5 -8 -8 -9z" />
    <glyph glyph-name="bracketright" unicode="]" horiz-adv-x="213" 
d="M-177 -199c-11 4 -17 12 -17 21c0 11 6 15 29 18c11 1 13 5 56 90c138 281 244 590 250 732c0 7 1 11 1 14c0 8 -3 7 -18 10c-13 2 -19 8 -19 14c0 8 11 17 30 17c27 0 39 -16 39 -58c0 -24 -4 -55 -11 -96c-29 -171 -111 -399 -225 -627c-51 -103 -76 -138 -102 -138
c-4 0 -8 1 -13 3z" />
    <glyph glyph-name="asciicircum" unicode="^" horiz-adv-x="267" 
d="M280 609c-4 3 -6 5 -6 8c0 5 5 11 17 20c24 20 70 68 89 91c18 23 25 31 32 31c3 0 5 -1 8 -2c10 -5 11 -9 12 -46c1 -43 4 -59 13 -62c7 -2 10 -7 10 -12c0 -4 -3 -9 -10 -13c-3 -1 -5 -2 -8 -2c-20 0 -42 33 -42 66c0 1 -1 2 -1 2c-2 0 -9 -6 -27 -25
c-39 -38 -67 -58 -81 -58c-2 0 -5 1 -6 2z" />
    <glyph glyph-name="underscore" unicode="_" horiz-adv-x="345" 
d="M9 -36c-5 2 -7 8 -7 13c0 3 2 7 4 10c11 13 100 19 175 15c26 -2 50 -4 69 -9c15 -4 22 -10 22 -20c-1 -15 -3 -15 -67 -13c-68 3 -150 4 -185 2h-4c-3 0 -5 1 -7 2z" />
    <glyph glyph-name="grave" unicode="`" horiz-adv-x="199" 
d="M305 629c-6 2 -35 24 -65 48c-6 5 -12 9 -14 10c-13 3 -18 9 -18 16c0 9 9 18 26 18c23 0 58 -25 86 -60c5 -6 7 -13 7 -19c0 -8 -6 -15 -14 -15c-3 0 -5 1 -8 2z" />
    <glyph glyph-name="a" unicode="a" horiz-adv-x="354" 
d="M135 334c28 0 51 -17 63 -49c0 -1 1 -2 1 -2c1 0 2 2 5 5c17 21 31 32 41 32c6 0 10 -3 13 -9c2 -3 2 -5 2 -9c0 -7 -5 -16 -20 -43c-42 -75 -68 -150 -68 -189c0 -15 4 -25 12 -27c2 -1 5 -1 8 -1c28 0 74 40 149 131c14 17 24 25 30 25c3 0 5 -3 5 -10
c0 -26 -109 -144 -154 -166c-14 -7 -27 -11 -38 -11c-34 0 -55 30 -55 80c0 11 1 23 3 36v2c-1 0 -5 -6 -16 -21c-46 -66 -83 -99 -110 -99c-3 0 -5 0 -8 1c-26 7 -38 34 -38 71c0 65 36 157 96 214c27 26 55 39 79 39zM142 266h-1c-42 0 -124 -121 -129 -197
c-1 -5 -1 -9 -1 -12c0 -4 1 -6 3 -6c1 0 4 1 7 3c28 14 62 54 120 141c18 27 26 41 26 50c0 8 -6 13 -17 19c-3 1 -5 1 -8 2z" />
    <glyph glyph-name="b" unicode="b" horiz-adv-x="331" 
d="M238 770c3 0 7 -1 10 -3c7 -5 11 -12 11 -20c0 -7 -3 -15 -10 -22c-22 -25 -116 -219 -165 -340c-27 -69 -74 -206 -74 -216v-1c1 0 4 6 7 15c55 125 128 194 178 194c31 0 53 -29 53 -89c0 -13 -1 -27 -3 -42c-18 -143 -135 -280 -205 -280c-23 0 -41 15 -49 48
c-2 6 -3 10 -4 10c-4 -10 -16 -62 -16 -67c-2 -21 -13 -32 -23 -32c-3 0 -6 1 -9 3c-7 5 -11 16 -11 35c0 17 3 40 8 71c33 195 97 385 195 580c58 115 85 156 107 156zM185 320c-34 -1 -150 -149 -165 -215c-2 -6 -4 -16 -5 -21c-3 -13 -4 -24 -4 -34c0 -29 10 -48 28 -48
c4 0 8 1 13 3c68 31 146 188 146 275c0 14 -2 26 -6 36c-1 2 -3 4 -5 4h-2z" />
    <glyph glyph-name="c" unicode="c" horiz-adv-x="282" 
d="M141 341h3c24 0 43 -14 43 -41c0 -22 -15 -38 -27 -38c-7 0 -12 4 -15 13c-1 4 -4 6 -8 6c-21 0 -77 -72 -98 -134c-10 -27 -14 -50 -14 -68c0 -35 17 -52 44 -52c47 0 128 51 212 150c16 19 25 27 31 27c3 0 5 -1 6 -4c1 -2 1 -4 1 -6c0 -14 -20 -39 -69 -89
c-72 -71 -132 -107 -181 -107c-9 0 -16 1 -24 3c-44 12 -65 54 -65 107c0 64 31 142 88 199c23 23 51 34 73 34z" />
    <glyph glyph-name="d" unicode="d" horiz-adv-x="404" 
d="M455 737c3 0 6 -1 9 -2c8 -4 12 -14 12 -24c0 -12 -6 -24 -17 -24h-2c-17 0 -103 -158 -156 -283c-72 -169 -120 -348 -120 -429c0 -28 6 -45 19 -45c32 1 87 68 197 248c15 25 23 35 30 35c2 0 4 -1 6 -3s3 -4 3 -7c0 -7 -6 -20 -21 -44c-106 -178 -173 -258 -218 -258
c-5 0 -9 0 -13 2c-28 11 -42 46 -42 103c0 35 5 78 16 129c2 11 4 19 4 22c0 -1 -7 -13 -15 -27c-48 -85 -84 -124 -118 -124c-5 0 -10 1 -15 3c-26 9 -38 40 -38 81c0 81 46 197 112 236c17 10 35 15 51 15c25 0 47 -12 59 -34c2 -4 3 -6 5 -6c1 0 2 3 5 11
c48 134 97 234 164 334c45 68 65 91 83 91zM143 278c-18 0 -38 -17 -59 -49c-33 -50 -57 -126 -57 -162c0 -13 2 -21 9 -21c2 0 4 1 6 2c28 14 60 60 112 160c17 32 23 43 23 48c0 4 -3 6 -7 10c-8 8 -17 12 -27 12z" />
    <glyph glyph-name="e" unicode="e" horiz-adv-x="274" 
d="M128 328c27 -1 46 -21 46 -55c0 -9 -1 -17 -3 -27c-12 -50 -49 -85 -86 -85c-8 0 -17 2 -25 6c-2 1 -4 2 -6 2c-3 0 -5 -4 -9 -19c-6 -20 -9 -37 -9 -52c0 -38 20 -60 53 -60c18 0 41 7 66 21c41 24 89 73 120 116c20 27 25 32 31 32s9 -3 9 -8c0 -17 -28 -57 -65 -95
c-62 -62 -122 -99 -171 -99c-7 0 -14 1 -20 2c-50 11 -75 57 -75 112c0 59 28 128 82 179c22 21 44 30 62 30zM118 265c-6 0 -42 -43 -42 -49c0 -1 2 -2 4 -2s6 1 9 2c10 4 31 37 31 47c0 1 -1 2 -2 2z" />
    <glyph glyph-name="f" unicode="f" horiz-adv-x="258" 
d="M155 593c3 -1 7 -2 12 -4c7 -4 11 -14 11 -25s-5 -23 -13 -26c-5 -3 -8 -7 -32 -55c-60 -120 -106 -230 -149 -356c-5 -15 -9 -28 -10 -29v-1c0 -4 16 -8 38 -8c60 0 118 32 202 110c8 8 15 11 19 11s7 -3 7 -7c0 -7 -6 -18 -17 -30c-67 -70 -147 -112 -212 -112
c-5 0 -7 0 -7 -2s1 -5 3 -10c3 -11 4 -22 4 -35c0 -78 -53 -182 -96 -182c-4 0 -8 1 -12 3c-14 7 -21 30 -21 63c0 118 85 377 208 611c33 63 48 84 65 84zM-33 66c-2 0 -4 -3 -6 -10c-26 -83 -42 -150 -42 -176c0 -8 2 -12 4 -12s4 1 7 4c31 33 52 94 52 141
c0 10 -1 19 -3 27c-4 17 -8 26 -12 26z" />
    <glyph glyph-name="g" unicode="g" horiz-adv-x="428" 
d="M211 353c24 -1 36 -25 36 -70c0 -41 -10 -98 -33 -168c-4 -10 -6 -16 -6 -19c0 -1 1 -1 1 -1c2 0 8 4 17 11c81 60 143 95 169 95c5 0 9 -1 11 -4s3 -5 3 -7c0 -5 -6 -10 -21 -18c-40 -20 -112 -67 -170 -111c-35 -26 -33 -23 -45 -52c-93 -222 -246 -435 -306 -435
c-4 0 -8 1 -11 3c-8 6 -12 15 -12 29c0 72 110 246 251 387c31 31 41 51 72 142c23 66 37 130 37 159c0 10 -2 16 -5 16h-1c-25 -4 -83 -72 -170 -197c-54 -80 -75 -102 -97 -102c-23 0 -34 21 -34 51c0 53 32 136 85 191c26 28 56 43 82 43c14 0 27 -5 37 -14
c4 -4 8 -7 8 -7c1 1 5 6 11 13c37 44 68 65 89 65h2zM73 239c-36 0 -97 -78 -123 -157c-5 -15 -8 -23 -8 -27c0 -1 1 -2 1 -2c2 0 7 5 15 13c16 16 34 40 67 89l40 60c10 14 14 20 14 22s-2 2 -6 2zM87 -55c-2 0 -8 -6 -16 -15c-99 -101 -181 -223 -200 -300
c-3 -11 -4 -19 -4 -23c0 -3 0 -4 2 -4s7 4 14 11c44 44 120 163 181 281c16 33 23 48 23 50z" />
    <glyph glyph-name="h" unicode="h" horiz-adv-x="422" 
d="M278 773c16 0 28 -12 28 -29c0 -7 -2 -15 -6 -24c-6 -11 -12 -16 -20 -16c-2 0 -5 0 -8 1c-5 0 -16 -17 -40 -57c-75 -128 -145 -283 -202 -444c-13 -35 -31 -91 -31 -95c1 0 6 12 13 25c62 130 124 207 165 207h2c32 0 42 -20 55 -99c14 -83 32 -123 64 -123
c23 0 54 22 95 63c20 21 29 28 34 28c2 0 4 -1 5 -3s2 -4 2 -6c0 -27 -75 -97 -120 -108c-7 -1 -13 -2 -19 -2c-46 0 -78 45 -100 142c-10 48 -14 62 -21 62c-2 0 -5 -1 -8 -4c-47 -36 -148 -195 -185 -291c-4 -10 -9 -22 -11 -25c-1 -4 -2 -6 -2 -11v-11
c0 -15 -7 -23 -16 -23c-4 0 -7 1 -11 3c-9 4 -13 16 -13 38c0 27 7 69 20 133c28 137 92 309 166 450c50 94 112 191 134 208c11 8 21 11 30 11z" />
    <glyph glyph-name="i" unicode="i" horiz-adv-x="203" 
d="M127 420c16 0 32 -13 32 -30c0 -4 -1 -7 -2 -11c-5 -15 -18 -24 -31 -24c-4 0 -8 1 -12 3c-11 5 -17 17 -17 29c0 8 3 16 8 22c6 7 14 10 22 11zM90 326c12 0 23 -10 23 -25c0 -7 -2 -16 -8 -25c-43 -70 -69 -147 -69 -190c0 -23 7 -38 23 -38c2 0 4 1 6 1
c30 6 62 36 130 121c21 27 29 35 35 35c1 0 3 -1 5 -2s3 -3 3 -6c0 -14 -23 -44 -71 -99c-46 -54 -82 -78 -113 -78c-6 0 -11 1 -16 2c-33 10 -50 52 -50 104s17 114 51 164c16 25 37 36 51 36z" />
    <glyph glyph-name="j" unicode="j" horiz-adv-x="169" 
d="M-249 436c14 -1 25 -12 25 -25c0 -5 -2 -11 -6 -16c-5 -7 -14 -11 -23 -11c-5 0 -9 2 -13 4c-8 5 -12 13 -12 21c0 9 5 19 15 24c5 2 10 3 14 3zM-271 341c12 0 19 -7 19 -26c0 -26 -12 -74 -36 -155c-6 -19 -9 -28 -9 -32c0 -1 1 -1 1 -1c2 0 5 3 11 7
c76 56 120 81 141 81c3 0 5 0 7 -1c4 -2 7 -4 7 -7c0 -5 -10 -13 -29 -24c-70 -40 -155 -103 -159 -118c-22 -67 -71 -181 -105 -244c-78 -145 -167 -239 -223 -239c-7 0 -14 2 -20 5c-17 9 -25 25 -25 47c0 88 122 265 298 417c13 11 12 9 33 68c20 55 40 116 52 159
c17 57 21 63 37 63zM-407 0c-1 0 -6 -5 -15 -12c-140 -126 -241 -273 -242 -351c0 -17 4 -25 12 -25c4 0 8 2 14 5c56 29 143 167 218 345c9 22 14 33 14 37c0 1 0 1 -1 1z" />
    <glyph glyph-name="k" unicode="k" horiz-adv-x="359" 
d="M266 802c10 0 15 -7 15 -18c0 -10 -4 -22 -12 -36c-57 -94 -152 -308 -218 -498c-10 -29 -15 -42 -15 -47c0 -1 0 -2 1 -2c3 0 7 3 13 6c57 30 112 65 199 130c39 28 55 39 64 39c5 0 8 -3 12 -7c3 -3 4 -6 4 -10c0 -10 -12 -26 -37 -51c-67 -66 -150 -121 -236 -154
c-16 -6 -26 -10 -26 -17c0 -5 5 -11 16 -21c49 -47 86 -64 129 -64h8c7 1 14 1 19 1c11 0 17 -2 17 -7c0 -1 -1 -3 -2 -6c-7 -14 -25 -21 -48 -21s-52 8 -82 23c-22 11 -32 19 -63 48c-10 10 -19 17 -19 17s-4 -11 -7 -25c-15 -51 -20 -91 -20 -115c0 -7 0 -13 1 -17
c0 -2 1 -4 1 -6c0 -11 -9 -19 -19 -19c-3 0 -7 0 -10 2c-10 5 -14 23 -14 51c0 77 35 228 92 384c67 181 188 418 222 436c6 2 11 4 15 4z" />
    <glyph glyph-name="l" unicode="l" horiz-adv-x="252" 
d="M308 821c6 0 12 -3 17 -9s7 -14 7 -23c0 -19 -10 -39 -22 -39c-3 0 -5 1 -7 2h-2c-29 0 -174 -303 -240 -502c-36 -109 -53 -188 -53 -235c0 -35 9 -53 27 -53c27 0 73 41 137 125c28 36 59 79 77 107c19 29 26 36 33 36c6 -1 8 -4 8 -9c0 -18 -30 -64 -92 -146
c-80 -104 -130 -153 -171 -153c-6 0 -11 1 -17 3c-30 11 -44 49 -44 108c0 122 61 330 169 547c80 161 137 241 172 241h1z" />
    <glyph glyph-name="m" unicode="m" horiz-adv-x="477" 
d="M202 356c7 0 12 -3 17 -9c6 -6 9 -15 9 -33c0 -20 -4 -52 -11 -106c-7 -52 -11 -96 -11 -112c0 -5 0 -8 1 -8c3 0 19 24 46 66c48 79 69 105 86 105c3 0 6 -1 9 -3c11 -6 13 -14 14 -61c3 -73 10 -105 34 -105c17 0 46 17 87 94c9 20 22 25 27 25c2 0 4 -1 5 -3
c1 -1 2 -3 2 -5c0 -26 -62 -136 -115 -141h-8c-35 0 -60 45 -60 112c0 22 -2 48 -3 48c-3 -2 -25 -34 -50 -74c-49 -78 -63 -95 -80 -95h-5c-18 4 -27 22 -27 65c0 29 4 69 12 123c5 36 8 54 8 62c0 3 -1 4 -1 4c-1 0 -1 -1 -2 -2c-63 -70 -163 -231 -168 -269
c-1 -14 -10 -22 -20 -22c-4 0 -8 1 -12 4c-7 7 -11 21 -11 39c0 91 76 294 121 294l3 -1c10 -2 15 -12 15 -23c0 -10 -4 -21 -12 -29c-6 -5 -12 -18 -26 -56c-9 -22 -21 -57 -21 -60c1 1 8 14 16 28c56 98 101 148 130 148h1z" />
    <glyph glyph-name="n" unicode="n" horiz-adv-x="342" 
d="M89 349c9 -1 14 -5 14 -14c-1 -6 -3 -14 -9 -24c-13 -26 -45 -100 -45 -107c1 0 7 7 13 19c35 53 63 79 84 78c20 -1 33 -29 38 -84c5 -71 20 -101 55 -103c26 -1 65 11 111 87c12 20 18 24 23 24c3 0 5 -2 6 -4c2 -2 2 -4 2 -6c-1 -26 -77 -133 -145 -135h-9
c-44 2 -75 48 -85 141c-1 17 -4 32 -5 33c-8 1 -57 -59 -92 -113c-32 -49 -33 -50 -44 -103c-1 -9 -11 -16 -20 -15c-2 0 -4 0 -7 1c-9 5 -12 21 -11 42c5 134 73 292 126 283z" />
    <glyph glyph-name="o" unicode="o" horiz-adv-x="264" 
d="M115 345h2c9 -1 16 -6 19 -16c3 -4 4 -6 5 -6l2 1c3 1 7 2 11 1c14 -1 30 -12 38 -29c9 -18 11 -40 9 -63c-8 -102 -107 -229 -187 -223c-5 1 -10 2 -15 4c-35 11 -49 49 -45 98c4 53 31 120 77 178c29 36 61 57 84 55zM127 299c-25 0 -103 -142 -108 -201
c-3 -27 9 -40 22 -41h7c56 15 116 119 121 184c3 27 -8 48 -25 53c-5 2 -12 2 -14 4c-1 1 -2 1 -3 1z" />
    <glyph glyph-name="p" unicode="p" horiz-adv-x="365" 
d="M-18 387c13 0 22 -10 22 -20c0 -6 -2 -11 -8 -16c-14 -11 -46 -68 -88 -160c-7 -16 -11 -24 -11 -26c1 0 6 7 16 20c87 126 167 198 222 198c8 0 16 -2 23 -5c18 -9 26 -27 26 -52c0 -109 -156 -336 -260 -337c-28 0 -55 14 -70 36l-2 2c-2 0 -5 -5 -13 -20
c-26 -44 -43 -87 -71 -181c-28 -93 -47 -186 -47 -225c0 -9 1 -15 3 -18s4 -7 4 -10c0 -11 -11 -20 -24 -20c-4 0 -8 1 -12 3c-12 7 -17 26 -17 58c0 30 4 70 14 123c41 223 218 627 284 649c3 1 6 1 9 1zM131 335c-28 0 -126 -91 -206 -197c-40 -53 -50 -68 -50 -81
c0 -3 1 -6 2 -10c4 -15 22 -24 40 -24c7 0 14 1 20 4c75 32 202 219 202 297c0 7 -3 10 -8 11z" />
    <glyph glyph-name="q" unicode="q" horiz-adv-x="381" 
d="M158 373c29 0 54 -17 65 -52c1 -5 2 -7 3 -7c2 0 4 3 8 10c18 27 30 39 40 39c3 0 6 -2 9 -4c4 -3 6 -6 6 -12c0 -10 -8 -26 -26 -61c-45 -86 -98 -211 -133 -311c-4 -10 -6 -16 -6 -18c0 -1 1 -1 1 -1c2 0 4 1 7 2c5 2 8 3 13 3h15c6 0 8 1 17 7c55 38 103 89 185 199
c34 46 43 56 50 56c1 0 2 0 4 -1c4 -2 6 -4 6 -8c0 -11 -15 -33 -57 -90c-62 -83 -110 -132 -169 -174c-6 -4 -8 -5 -8 -7c0 -1 0 -3 2 -5c8 -11 11 -27 11 -46c0 -85 -73 -224 -127 -224c-4 0 -9 1 -13 3c-18 10 -27 38 -27 81c0 74 26 189 75 321c5 14 10 26 10 27
c0 0 -6 -7 -12 -16c-28 -37 -52 -53 -71 -53c-29 0 -45 35 -45 86c0 52 18 121 60 184c31 48 72 72 107 72zM164 307c-3 0 -5 0 -7 -1c-50 -11 -119 -136 -119 -215c0 -14 1 -20 5 -20c2 0 5 1 8 3c20 10 58 61 117 158c10 16 21 33 24 38c2 3 3 6 3 10c0 13 -15 27 -31 27z
M163 -71c-3 0 -7 -2 -14 -5c-15 -7 -26 -9 -34 -9c-5 0 -5 0 -10 -16c-23 -75 -36 -139 -36 -174c0 -13 2 -22 5 -27c2 -2 3 -3 5 -3s4 1 8 3c42 19 89 128 89 191c0 13 -2 24 -6 32c-3 5 -4 8 -7 8z" />
    <glyph glyph-name="r" unicode="r" horiz-adv-x="349" 
d="M104 355c5 0 11 -3 15 -9c2 -4 4 -7 4 -10c0 -5 -3 -11 -9 -22c-24 -45 -69 -141 -69 -149c0 0 3 3 7 8c78 99 182 177 239 177h1c27 0 43 -18 43 -38c0 -11 -5 -23 -15 -32c-6 -5 -13 -8 -19 -8c-11 0 -21 9 -21 22c0 3 1 6 2 10v1c0 2 -1 2 -4 2c-6 0 -16 -2 -29 -7
c-96 -40 -240 -192 -240 -249c0 -4 0 -6 1 -9s2 -6 2 -9c0 -13 -13 -25 -26 -25c-4 0 -8 1 -12 3c-11 6 -16 21 -16 43c0 61 39 173 98 261c17 26 33 40 47 40h1z" />
    <glyph glyph-name="s" unicode="s" horiz-adv-x="368" 
d="M188 361c19 0 34 -6 40 -19c2 -4 3 -10 3 -15c0 -15 -8 -32 -23 -42c-4 -3 -7 -4 -11 -4c-10 0 -18 8 -18 18v4c0 2 1 3 1 3c0 1 -1 2 -1 2c-1 0 -2 -1 -3 -1c-67 -16 -199 -97 -199 -122c0 -7 14 -15 53 -30c25 -10 47 -20 61 -28c4 -2 6 -3 9 -3c4 0 10 2 25 9
c85 41 192 78 223 78c2 0 4 -1 5 -1c4 -1 6 -3 6 -6c0 -4 -7 -10 -25 -16c-50 -13 -149 -53 -197 -79c-8 -4 -10 -6 -10 -8s1 -4 3 -7c12 -19 17 -39 17 -59c0 -87 -97 -177 -201 -177c-13 0 -26 1 -39 4c-27 6 -39 21 -39 41c0 48 69 125 183 191c9 5 14 8 14 11
c0 4 -13 9 -49 21c-64 22 -79 34 -79 64c0 71 167 171 250 171h1zM94 82c-4 0 -9 -4 -23 -12c-101 -57 -164 -124 -164 -164c0 -13 12 -21 34 -21c9 0 20 2 33 5c90 23 140 95 140 148c0 13 -3 25 -9 35c-4 7 -8 9 -11 9z" />
    <glyph glyph-name="t" unicode="t" horiz-adv-x="227" 
d="M95 823c3 0 6 -2 10 -4c7 -4 10 -9 10 -17c0 -6 -1 -13 -4 -23c-7 -20 -10 -25 -19 -25h-3c-4 0 -81 -143 -81 -150c0 -1 15 -1 33 -2c133 -4 253 -21 267 -36c4 -5 6 -9 6 -12c0 -7 -8 -10 -22 -10c-5 0 -11 0 -17 1c-105 15 -193 18 -242 18c-30 0 -46 -1 -46 -1
c-92 -202 -159 -414 -159 -503c0 -7 0 -13 1 -18c5 -33 16 -50 33 -50c36 0 96 72 169 208c10 20 18 29 24 29c1 0 3 -1 4 -2c2 -2 2 -4 2 -7c0 -13 -12 -40 -39 -84c-72 -120 -118 -168 -160 -168c-4 0 -8 0 -12 1c-39 8 -58 51 -58 119c0 104 43 265 126 448
c6 13 11 25 12 27c0 1 -4 2 -13 2c-10 0 -25 -1 -48 -2c-128 -6 -231 -17 -242 -26c-4 -3 -7 -4 -11 -4c-10 0 -18 8 -18 17c0 4 1 8 5 11c15 15 177 36 320 42c26 1 26 1 41 30c74 143 106 191 131 191z" />
    <glyph glyph-name="u" unicode="u" horiz-adv-x="426" 
d="M280 341c4 0 6 0 9 -2c7 -3 10 -6 10 -13s-5 -20 -17 -42c-38 -75 -56 -132 -56 -168c0 -30 12 -46 34 -46c30 0 79 31 142 98c37 40 48 51 54 51c3 0 4 -1 6 -3c2 -1 2 -3 2 -6c0 -11 -18 -33 -67 -82c-58 -59 -96 -82 -134 -85h-7c-44 0 -73 38 -73 91c0 8 1 16 2 25
c1 2 1 3 1 4c-1 0 -4 -4 -11 -14c-61 -87 -101 -125 -134 -125c-3 0 -7 0 -10 1c-30 8 -45 40 -45 84c0 43 14 98 42 153c23 46 50 75 70 75c7 0 12 -3 17 -10c2 -4 4 -7 4 -10c0 -9 -7 -22 -28 -61c-35 -63 -57 -132 -57 -170c0 -9 2 -16 4 -21c2 -4 5 -5 9 -5
c13 0 35 15 57 40c28 33 98 137 120 179c21 40 39 62 55 62h1z" />
    <glyph glyph-name="v" unicode="v" horiz-adv-x="357" 
d="M85 338c5 0 9 -1 14 -4c8 -6 11 -11 11 -18s-3 -16 -10 -28c-41 -74 -73 -178 -73 -221c0 -13 3 -21 9 -21c23 0 60 49 141 191c20 37 30 53 39 53c5 0 10 -8 17 -20c22 -41 52 -61 91 -61c12 0 24 1 37 5c12 3 19 5 24 5c6 0 8 -3 8 -9c0 -12 -16 -20 -47 -25
c-8 -1 -15 -2 -22 -2c-42 0 -79 18 -101 50c-5 7 -7 10 -9 10s-3 -3 -7 -10c-83 -154 -138 -222 -178 -222c-4 0 -8 1 -12 2c-24 9 -37 38 -37 80c0 34 8 76 24 123c27 79 56 122 81 122z" />
    <glyph glyph-name="w" unicode="w" horiz-adv-x="483" 
d="M85 342c1 0 2 0 4 -1c9 -2 15 -10 15 -19c0 -6 -2 -11 -6 -17l-14 -28c-43 -86 -64 -160 -64 -201c0 -20 5 -32 16 -32c12 0 31 15 56 49c20 26 63 106 70 129c6 18 15 27 23 27c7 0 12 -7 12 -22c0 -3 0 -7 -1 -11c-1 -11 -2 -21 -2 -30c0 -62 26 -104 62 -104
c9 0 19 3 29 8c35 18 57 64 57 107c0 15 -3 29 -8 42c-2 6 -3 11 -3 15c0 6 2 9 7 9c6 0 15 -4 26 -13c39 -32 72 -50 104 -50c6 0 13 1 19 2c10 3 15 6 19 6c2 0 3 -1 4 -2c3 -2 4 -5 4 -8c0 -8 -10 -19 -23 -23c-11 -2 -21 -3 -30 -3c-35 0 -61 13 -79 28
c-5 4 -10 6 -11 6c0 0 -1 -7 -1 -16c0 -61 -23 -105 -71 -134c-16 -10 -32 -14 -47 -14c-41 0 -78 34 -91 93c-1 8 -3 15 -3 15c-1 0 -6 -9 -11 -20c-42 -78 -84 -120 -118 -120c-6 0 -12 1 -18 4c-24 11 -37 44 -37 89c0 29 6 64 18 100c26 80 68 139 93 139z" />
    <glyph glyph-name="x" unicode="x" horiz-adv-x="277" 
d="M156 361c4 0 7 -3 9 -7c1 -2 2 -4 2 -6c0 -8 -11 -21 -64 -82c-84 -97 -113 -131 -114 -135v-3c0 -17 15 -54 31 -69c9 -8 21 -14 35 -14c38 0 93 38 168 153c15 18 18 21 25 21c5 0 8 -3 8 -8c0 -33 -108 -163 -170 -193c-15 -7 -30 -11 -44 -11c-34 0 -63 23 -87 73
c-1 3 -3 4 -4 4c-6 0 -17 -13 -50 -56c-19 -24 -27 -34 -33 -34c-2 0 -4 2 -7 6c-1 1 -2 3 -2 5c0 13 17 41 63 103c11 14 15 18 15 23c0 2 -1 5 -2 8c-5 23 -7 47 -7 71c0 75 22 143 51 143c4 0 9 -1 13 -4c8 -5 12 -11 12 -25c0 -11 -3 -26 -7 -49c-7 -38 -11 -60 -11 -72
c0 -6 1 -8 3 -8c3 0 6 3 11 8c102 117 140 157 156 158z" />
    <glyph glyph-name="y" unicode="y" horiz-adv-x="480" 
d="M269 370c9 0 16 -4 23 -12c8 -9 12 -27 12 -52c0 -46 -15 -117 -44 -202c-10 -28 -16 -41 -16 -44c0 -1 0 -1 1 -1s7 6 19 15c76 65 156 118 179 118c4 0 6 -1 7 -4c1 -2 1 -3 1 -4c0 -5 -7 -6 -29 -23c-41 -33 -102 -67 -166 -126c-29 -27 -29 -21 -45 -59
c-99 -227 -258 -435 -328 -435c-4 0 -8 1 -11 2c-11 4 -16 14 -16 28c0 71 122 252 274 393c27 25 27 25 34 41c59 124 102 261 102 308c0 11 -2 17 -7 17c-2 0 -4 0 -6 -2c-27 -17 -54 -47 -164 -178c-59 -71 -90 -99 -115 -99c-8 0 -16 3 -23 8c-17 12 -25 38 -25 71
c0 44 14 97 41 140c12 20 28 29 40 29c11 0 20 -9 20 -27v-4c-1 -10 -7 -19 -10 -22c-14 -13 -37 -106 -37 -138c0 -4 0 -7 1 -9c1 -1 2 -2 3 -2c14 0 63 50 150 152c75 87 111 121 135 121zM119 -86c-2 0 -9 -8 -26 -26c-116 -121 -200 -245 -209 -306v-2c0 -3 0 -4 2 -4
c3 0 9 6 22 18c57 55 144 185 205 305c3 8 6 13 6 15z" />
    <glyph glyph-name="z" unicode="z" horiz-adv-x="393" 
d="M16 354h3c26 -2 39 -16 39 -42c0 -36 -25 -95 -75 -171c-5 -8 -8 -12 -8 -13s1 -1 1 -1c2 0 6 2 13 5c22 8 42 13 57 13c18 0 32 -6 41 -17c2 -3 4 -4 6 -4c4 0 10 4 26 14c76 50 137 81 154 81h2c6 -2 10 -5 10 -8c0 -6 -7 -13 -21 -19c-31 -14 -92 -45 -135 -78
c-25 -18 -27 -16 -28 -35c-7 -165 -277 -525 -388 -525c-3 0 -6 0 -9 1c-18 4 -26 17 -26 38c0 101 199 376 387 507c1 1 2 2 2 3s-1 2 -3 5c-4 4 -9 6 -17 6c-15 0 -37 -7 -72 -21c-15 -6 -25 -9 -32 -9c-8 0 -12 3 -15 10c-2 3 -3 6 -3 10c0 13 11 34 43 92
c33 60 49 93 49 107c0 6 -2 8 -7 8s-11 -2 -20 -6c-27 -14 -91 -78 -91 -90v-1c1 -2 1 -4 1 -7c0 -11 -12 -21 -24 -21c-5 0 -10 2 -14 5c-4 4 -6 9 -6 15c0 45 104 148 160 148zM66 66c-2 -1 -6 -4 -15 -11c-166 -134 -329 -347 -344 -449c-1 -5 -1 -8 -1 -12
c0 -8 2 -12 8 -12c4 0 10 2 17 6c105 51 311 339 335 468c1 3 1 6 1 8c0 1 0 2 -1 2z" />
    <glyph glyph-name="braceleft" unicode="{" horiz-adv-x="269" 
d="M142 -208c-26 9 -40 34 -40 76c0 47 17 115 50 207c29 80 43 125 43 150c0 17 -7 24 -21 26c-16 2 -24 7 -24 15s7 18 21 32c54 56 92 113 157 246c61 122 97 166 139 174c3 0 5 1 8 1c16 0 26 -10 26 -22c0 -5 -2 -10 -6 -16c-2 -2 -6 -4 -9 -4c-5 0 -10 3 -10 7
s-1 6 -3 6c-14 0 -66 -76 -107 -161c-63 -127 -93 -175 -154 -240c-5 -5 -7 -8 -7 -10s2 -3 5 -6c14 -10 21 -24 21 -48c0 -33 -15 -87 -47 -180c-30 -89 -45 -151 -45 -187c0 -26 7 -39 23 -39h1c12 0 16 -2 16 -8c0 -11 -14 -21 -27 -21c-4 0 -7 1 -10 2z" />
    <glyph glyph-name="bar" unicode="|" horiz-adv-x="206" 
d="M-8 -282c-8 4 -12 14 -12 34c0 9 0 19 2 32c19 171 110 466 218 712c57 129 126 265 141 278c4 4 8 5 12 5c6 0 10 -5 10 -12c0 -4 -1 -8 -3 -12c-28 -53 -114 -246 -154 -349c-103 -258 -190 -555 -197 -666c-1 -16 -4 -24 -10 -24c-2 0 -5 1 -7 2z" />
    <glyph glyph-name="braceright" unicode="}" horiz-adv-x="232" 
d="M-168 -215c-5 3 -8 9 -8 13c0 7 4 12 11 12s44 39 63 67c29 45 47 87 89 214c36 109 46 132 69 165c6 7 8 10 8 13c0 2 -1 3 -3 6c-10 17 -16 35 -16 56c0 40 20 94 64 183c39 76 56 117 56 140c0 13 -5 21 -15 26c-11 7 -16 14 -16 20c0 5 4 8 12 8c3 0 8 0 12 -2
c27 -9 40 -25 40 -54c0 -32 -16 -80 -50 -151c-45 -97 -63 -143 -63 -175c0 -14 3 -25 9 -37s9 -18 9 -23c0 -6 -3 -10 -10 -17c-25 -26 -42 -67 -77 -180c-44 -142 -74 -202 -132 -260c-18 -18 -31 -26 -42 -26c-3 0 -7 0 -10 2z" />
    <glyph glyph-name="asciitilde" unicode="~" horiz-adv-x="406" 
d="M185 130c-3 3 -5 7 -5 12c0 25 38 69 70 74c3 1 6 1 9 1c14 0 27 -8 47 -26c15 -14 31 -22 46 -22c17 0 35 9 53 26c7 7 13 10 18 10s8 -4 8 -11c0 -8 -5 -19 -16 -31c-22 -22 -47 -33 -71 -33c-22 0 -43 8 -61 25c-12 10 -22 16 -32 16c-13 0 -26 -10 -44 -32
c-7 -8 -11 -12 -15 -12c-2 0 -4 1 -7 3z" />
    <glyph glyph-name="exclamdown" unicode="&#xa1;" horiz-adv-x="170" 
d="M169 790c11 -3 16 -12 16 -20c1 -12 -7 -24 -21 -24h-2c-13 0 -21 11 -22 21c0 9 4 17 12 21c4 2 7 3 10 3c2 1 5 0 7 -1zM156 716c5 -2 7 -9 8 -17c0 -15 -2 -45 -19 -109c-74 -282 -136 -447 -220 -592c-33 -59 -57 -82 -72 -83c-4 0 -8 2 -12 5c-4 4 -6 8 -7 13
c0 5 3 11 8 18c43 53 131 248 195 433c34 94 76 237 95 313c3 15 9 22 15 23c3 0 6 -1 9 -4z" />
    <glyph glyph-name="cent" unicode="&#xa2;" horiz-adv-x="389" 
d="M140 -72c-6 3 -9 10 -9 21c0 13 4 34 13 65c2 9 4 14 4 17c0 4 -2 5 -6 8c-28 21 -40 58 -40 102c0 128 102 312 208 313c8 0 8 0 23 25c30 52 43 70 53 70c3 0 6 -2 9 -4c4 -3 6 -6 6 -11c0 -10 -9 -27 -31 -68c-6 -10 -8 -15 -8 -19s2 -6 7 -11c14 -14 21 -38 21 -63
c0 -36 -14 -72 -38 -79c-3 -1 -5 -1 -7 -1c-6 0 -9 4 -9 12c0 5 1 12 3 20c4 13 5 29 5 42c0 17 -2 30 -7 30h-2c-5 -4 -62 -128 -88 -194c-21 -53 -50 -137 -50 -144c1 -1 1 -1 2 -1c17 0 87 72 117 124c8 13 13 18 17 18c2 0 3 -1 5 -2c3 -2 4 -6 4 -10
c0 -37 -92 -143 -144 -159c-13 -4 -13 -4 -17 -18c-9 -29 -17 -59 -18 -68c-2 -12 -7 -19 -14 -19c-3 0 -6 2 -9 4zM171 110c30 100 70 200 108 270c3 7 6 12 6 12c-3 0 -19 -10 -29 -17c-69 -52 -118 -158 -118 -238c0 -18 2 -35 8 -50c3 -8 10 -21 12 -21c0 0 6 20 13 44z
" />
    <glyph glyph-name="sterling" unicode="&#xa3;" horiz-adv-x="470" 
d="M-9 -17c-5 3 -7 9 -6 14c0 6 3 11 8 11l2 -1c2 0 7 2 13 7c50 36 94 108 128 216c4 13 7 20 7 24c1 4 -1 5 -6 6c-5 0 -12 -1 -23 -1c-8 -1 -15 -1 -20 0c-15 1 -19 6 -20 18v2c1 13 17 18 69 21c13 1 15 2 16 4c37 130 80 201 144 243c26 17 53 24 75 23
c34 -3 60 -24 67 -61c0 -6 1 -12 0 -18c-2 -32 -20 -71 -35 -70c-1 1 -2 1 -3 1c-5 3 -7 7 -7 16c1 5 2 11 4 21c2 8 3 15 4 22c2 32 -12 47 -33 49c-37 2 -95 -37 -132 -108c-14 -28 -44 -107 -45 -120c0 -1 6 -1 18 -2c56 -4 89 -16 88 -33c-1 -11 -4 -15 -21 -14
c-6 1 -14 1 -23 3l-25 2c-23 2 -48 2 -50 1c0 0 -6 -16 -11 -34c-24 -74 -55 -137 -84 -175c-6 -7 -9 -11 -9 -12s0 -2 1 -2c2 0 5 1 9 1c8 1 16 1 25 0c22 -2 45 -7 66 -14c27 -10 50 -15 68 -17c6 0 12 0 17 1c10 1 15 1 18 1s4 -1 5 -3c3 -3 4 -7 4 -10
c-1 -12 -28 -18 -63 -16c-16 1 -34 4 -52 10c-23 7 -45 11 -66 12c-36 2 -67 -3 -93 -16c-8 -4 -15 -6 -20 -6c-4 0 -7 2 -9 4z" />
    <glyph glyph-name="yen" unicode="&#xa5;" horiz-adv-x="450" 
d="M118 -47c-9 5 -12 18 -12 37c1 23 9 55 23 94c2 4 3 7 3 9c0 3 -2 4 -9 4h-10c-9 0 -17 0 -22 1c-17 0 -20 3 -20 11c1 12 14 17 60 19c15 0 31 20 32 38c0 1 -2 2 -6 2c-8 0 -25 0 -58 -1h-17c-18 1 -22 5 -22 17c1 14 20 19 83 20c9 1 15 2 15 2c0 1 -2 6 -5 12
c-9 21 -13 53 -11 90c3 83 31 189 70 247c11 15 23 22 32 21c8 0 14 -6 13 -16c0 -6 -2 -12 -5 -19c-36 -69 -62 -182 -65 -254c-2 -39 3 -66 17 -66c34 -2 70 44 180 224c21 36 44 72 49 80c12 21 22 31 29 30c1 0 3 0 4 -2c2 -2 3 -4 3 -8c-1 -14 -17 -44 -60 -115
c-82 -136 -114 -183 -148 -216c-5 -5 -8 -7 -9 -9c0 -2 6 -3 18 -4c42 -4 58 -10 58 -23c0 -2 -1 -4 -2 -6c-4 -10 -6 -11 -67 -9c-54 3 -65 -3 -67 -33c0 -1 17 -2 39 -2c43 -2 46 -3 50 -12c1 -2 2 -5 2 -7c-1 -8 -12 -10 -41 -10c-65 -1 -61 0 -64 -10
c-13 -36 -30 -96 -31 -116c-3 -15 -10 -23 -19 -23c-3 0 -7 1 -10 3z" />
    <glyph glyph-name="section" unicode="&#xa7;" horiz-adv-x="399" 
d="M-25 -145c-30 8 -45 33 -45 61c0 29 15 62 46 86c10 9 21 13 29 13c9 0 16 -6 16 -14c0 -6 -3 -13 -10 -21c-22 -24 -32 -44 -32 -59c0 -14 10 -23 29 -23c15 0 37 6 63 18c72 35 107 75 107 128c0 33 -15 72 -42 118c-51 83 -74 145 -74 195c0 12 1 25 5 36
c11 42 44 75 88 86c6 2 11 4 11 4c0 2 -3 7 -6 13c-22 38 -33 74 -33 107c0 69 46 128 138 171c29 14 56 20 80 20c46 0 75 -24 75 -60c0 -22 -11 -48 -36 -76c-15 -16 -32 -23 -43 -23c-9 0 -15 4 -15 11c0 6 3 13 11 22c21 25 33 52 33 67c0 5 -2 9 -5 11
c-6 3 -13 4 -21 4c-53 0 -145 -56 -170 -115c-3 -8 -4 -17 -4 -27c0 -36 17 -86 54 -141c38 -58 60 -123 60 -176c0 -26 -6 -49 -16 -67c-16 -26 -59 -56 -81 -56c-3 0 -5 -1 -5 -3s1 -5 4 -8c24 -38 36 -76 36 -111c0 -20 -4 -39 -12 -57c-34 -70 -142 -137 -213 -137
c-8 0 -15 1 -22 3zM178 203c46 12 70 41 70 85c0 36 -16 83 -47 138c-10 17 -13 22 -19 22c-3 0 -7 -1 -13 -3c-47 -11 -70 -41 -70 -85c0 -33 12 -73 38 -119c17 -33 21 -40 29 -40c3 0 6 1 12 2z" />
    <glyph glyph-name="copyright" unicode="&#xa9;" horiz-adv-x="560" 
d="M257 -106c-83 17 -121 101 -118 200c3 102 51 220 141 299c58 52 116 74 166 72c87 -2 151 -79 147 -200c-1 -25 -5 -51 -11 -78c-40 -165 -179 -301 -299 -296c-9 0 -18 1 -26 3zM310 -82c123 16 249 191 254 346c0 12 0 23 -1 33c-7 83 -50 125 -107 127
c-60 2 -136 -41 -199 -130c-51 -71 -76 -150 -79 -216c-3 -90 36 -159 110 -161c7 -1 14 0 22 1zM312 48c-23 8 -34 34 -33 67c1 29 12 63 32 94c31 51 70 79 101 78c16 0 29 -9 37 -26c4 -8 6 -19 5 -29c-1 -26 -13 -53 -25 -53c-3 0 -6 2 -9 6c-2 2 -2 7 -2 20v6
c1 20 -2 30 -9 30h-4c-41 -15 -89 -88 -90 -135c0 -4 0 -8 1 -12c2 -12 6 -18 14 -18c11 -1 28 10 52 32c15 15 25 22 30 22c4 -1 6 -5 5 -13c-1 -30 -60 -71 -95 -70c-4 0 -7 0 -10 1z" />
    <glyph glyph-name="ordfeminine" unicode="&#xaa;" horiz-adv-x="231" 
d="M234 587c-13 7 -18 21 -18 39c0 51 45 130 93 136h3c14 0 30 -8 33 -18c0 -1 1 -1 1 -1c1 0 3 1 6 3c5 3 9 4 13 4c8 0 13 -5 13 -12c0 -4 -1 -8 -5 -12c-17 -21 -32 -63 -32 -85c0 -6 1 -10 3 -13c3 -3 4 -6 4 -9c0 -8 -7 -15 -16 -15c-3 0 -7 2 -11 4
c-6 4 -11 13 -12 21c0 4 -1 6 -2 6c-2 0 -4 -3 -10 -10c-19 -26 -37 -41 -52 -41c-4 0 -7 1 -11 3zM259 617c23 17 66 82 66 98c0 1 0 2 -1 3s-2 2 -4 2c-19 0 -70 -71 -70 -101c0 -4 1 -6 2 -6c2 0 4 2 7 4z" />
    <glyph glyph-name="guillemotleft" unicode="&#xab;" horiz-adv-x="461" 
d="M276 66c-2 1 -9 8 -15 15c-26 33 -45 48 -73 57c-24 8 -28 12 -28 25c0 14 6 18 59 44c56 27 85 41 114 58c22 12 34 17 41 17c6 0 9 -3 11 -8c1 -3 2 -5 2 -8c0 -10 -11 -20 -41 -40c-28 -18 -112 -63 -119 -63c-1 0 -2 -1 -2 -1c0 -1 3 -3 9 -7c18 -12 46 -44 54 -62
c3 -6 4 -11 4 -15c0 -8 -4 -14 -10 -14c-2 0 -4 1 -6 2zM391 107c-20 19 -29 26 -41 30c-19 7 -25 12 -25 23c0 15 6 20 51 40c37 17 55 27 77 40c11 7 17 10 22 10c3 0 5 -1 7 -3c3 -3 5 -7 5 -11c0 -16 -27 -39 -76 -62c-19 -11 -24 -13 -24 -14l1 -1
c22 -14 40 -40 40 -55c0 -4 -1 -7 -4 -9c-3 -4 -5 -6 -8 -6c-5 0 -11 6 -25 18z" />
    <glyph glyph-name="registered" unicode="&#xae;" horiz-adv-x="602" 
d="M269 -122c-85 21 -123 108 -117 211c6 106 59 228 155 309c61 51 121 73 173 70c92 -6 156 -87 148 -213c-1 -26 -6 -53 -13 -81c-46 -170 -195 -307 -319 -300c-9 1 -18 2 -27 4zM325 -99c129 14 264 194 273 354c1 12 1 23 0 34c-5 87 -49 132 -108 135
c-63 4 -142 -39 -210 -128c-55 -74 -83 -155 -87 -225c-6 -93 32 -166 110 -170c7 -1 14 0 22 0zM296 39c-5 5 -6 13 -6 24c4 65 84 220 121 218c9 -1 13 -9 13 -18c0 -6 -4 -13 -11 -17c-4 -2 -15 -18 -20 -28c1 0 8 5 17 12c28 24 50 36 67 35c9 0 16 -5 22 -14
c3 -4 4 -10 4 -16c-3 -39 -66 -106 -128 -129c-5 -1 -8 -2 -8 -4c0 -1 2 -3 4 -7c7 -12 17 -18 30 -19c4 0 9 0 14 1c2 1 5 1 7 1c9 -1 13 -6 12 -12c0 -7 -7 -17 -20 -22c-6 -2 -13 -3 -19 -3c-20 1 -42 13 -53 31c-4 6 -6 9 -7 9c-2 0 -3 -3 -5 -10
c-11 -33 -11 -34 -23 -36h-3c-3 0 -5 2 -8 4zM409 174c21 14 51 45 52 52c0 1 -1 1 -1 1c-10 1 -83 -63 -89 -77c3 0 22 11 38 24z" />
    <glyph glyph-name="degree" unicode="&#xb0;" horiz-adv-x="294" 
d="M335 453c-34 9 -57 39 -57 73c0 7 1 14 3 21c12 35 43 53 75 53c30 0 60 -17 70 -50c3 -7 4 -15 4 -22c0 -42 -35 -78 -76 -78c-6 0 -12 1 -19 3zM373 487c16 8 24 22 24 37c0 10 -4 20 -13 28c-9 9 -19 14 -29 14c-9 0 -18 -4 -27 -12c-8 -9 -12 -19 -12 -28
c0 -22 18 -43 41 -43c5 0 11 1 16 4z" />
    <glyph glyph-name="plusminus" unicode="&#xb1;" horiz-adv-x="336" 
d="M257 128c-3 1 -30 1 -64 1l-30 -1c-37 0 -51 3 -51 12c0 3 2 6 4 11c5 9 43 14 81 14c33 0 66 -4 75 -12c3 -3 4 -7 4 -12c0 -7 -4 -15 -10 -15c-1 0 -2 0 -3 1c0 0 -3 0 -6 1zM229 214c-9 4 -13 15 -13 31c0 8 1 17 3 27c1 4 2 7 2 9c0 4 -3 5 -10 5c-8 0 -22 -1 -45 -4
h-2c-9 0 -15 6 -15 13c0 5 3 10 9 13c9 4 56 13 71 13c6 0 6 0 11 11c14 27 31 48 40 50h3c8 0 14 -6 14 -13c0 -3 -1 -5 -3 -8c-3 -4 -17 -34 -17 -37c0 -1 9 -2 21 -3c33 -3 46 -9 46 -22c0 -8 -4 -13 -12 -13l-6 1c-12 1 -22 2 -31 2c-21 0 -33 -4 -35 -11
c-6 -16 -9 -35 -9 -44v-6c0 -10 -6 -16 -13 -16c-3 0 -6 0 -9 2z" />
    <glyph glyph-name="twosuperior" unicode="&#xb2;" horiz-adv-x="218" 
d="M206 441c-5 3 -8 7 -8 11c0 6 7 14 19 21c49 28 90 70 90 93c0 4 -5 5 -13 5c-9 0 -20 -3 -24 -7c-2 -3 -4 -4 -7 -4c-7 0 -14 5 -14 12c0 17 31 32 56 32c7 0 12 -1 17 -3c16 -7 23 -19 23 -35c0 -24 -18 -55 -51 -81c-8 -7 -11 -9 -11 -10s1 -1 3 -1
c19 -2 29 -8 29 -16c0 -2 0 -3 -1 -5c-2 -5 -9 -7 -38 -9c-16 -1 -37 -2 -46 -4c-9 -1 -13 -1 -16 -1c-4 0 -5 0 -8 2z" />
    <glyph glyph-name="threesuperior" unicode="&#xb3;" horiz-adv-x="209" 
d="M216 443c-7 3 -10 8 -10 12c0 5 6 10 16 11c28 2 70 21 70 30c0 2 -7 4 -19 6c-17 3 -25 8 -25 17c0 8 7 19 21 31s20 17 20 19c0 1 -1 1 -3 1h-7c-7 -1 -14 -2 -18 -4c-2 -1 -5 -2 -7 -2c-5 0 -8 4 -9 10v1c0 10 10 17 32 23c9 2 16 3 22 3c19 0 30 -9 30 -23
c0 -11 -7 -24 -22 -39c-7 -8 -10 -10 -10 -12c0 -1 1 -1 2 -2c13 -4 20 -15 20 -28c0 -10 -5 -21 -15 -30c-16 -14 -52 -26 -74 -26c-6 0 -10 0 -14 2z" />
    <glyph glyph-name="acute" unicode="&#xb4;" horiz-adv-x="181" 
d="M193 468c-4 3 -5 8 -5 13c0 33 66 94 104 94c4 0 8 0 11 -2c6 -3 8 -9 8 -15c0 -10 -8 -22 -19 -22s-46 -29 -69 -58c-8 -10 -14 -15 -20 -15c-3 0 -7 2 -10 5z" />
    <glyph glyph-name="periodcentered" unicode="&#xb7;" horiz-adv-x="194" 
d="M147 161c-8 4 -17 13 -18 20c-1 3 -1 5 -1 7c0 16 14 28 29 28c4 0 8 0 12 -3c11 -5 16 -14 16 -24c0 -15 -12 -30 -28 -30c-3 0 -7 1 -10 2z" />
    <glyph glyph-name="periodcentered" unicode="&#x2219;" horiz-adv-x="194" 
d="M147 161c-8 4 -17 13 -18 20c-1 3 -1 5 -1 7c0 16 14 28 29 28c4 0 8 0 12 -3c11 -5 16 -14 16 -24c0 -15 -12 -30 -28 -30c-3 0 -7 1 -10 2z" />
    <glyph glyph-name="onesuperior" unicode="&#xb9;" horiz-adv-x="155" 
d="M227 452c-7 4 -11 12 -11 23c0 17 8 41 23 73c7 15 10 21 10 24c0 1 -1 2 -2 3c-3 2 -5 5 -5 8c0 11 15 24 28 24c2 0 4 0 6 -1c9 -3 13 -9 13 -19c0 -11 -6 -28 -17 -53c-15 -34 -21 -49 -21 -58l1 -4v-5c0 -11 -7 -18 -16 -18c-3 0 -6 1 -9 3z" />
    <glyph glyph-name="ordmasculine" unicode="&#xba;" horiz-adv-x="178" 
d="M232 450c-19 7 -28 28 -28 53c0 39 20 86 55 101c4 2 10 4 16 4c9 0 17 -3 21 -7c10 -12 15 -29 15 -47c0 -48 -32 -106 -68 -106c-4 0 -7 1 -11 2zM261 481c19 15 32 52 32 77c0 13 -4 23 -12 24h-2c-18 0 -39 -42 -39 -79c0 -19 2 -27 9 -27c3 0 7 2 12 5z" />
    <glyph glyph-name="guillemotright" unicode="&#xbb;" horiz-adv-x="429" 
d="M268 67c-5 2 -8 6 -8 11c0 24 51 72 112 101c12 6 17 8 17 10s-5 4 -14 10c-37 23 -63 53 -63 73c0 4 1 7 2 9c2 5 6 7 10 7s8 -3 13 -8c24 -28 40 -41 80 -64c28 -16 28 -15 31 -20c2 -3 3 -7 3 -10c0 -9 -9 -15 -28 -23c-47 -17 -109 -58 -135 -88c-6 -6 -10 -9 -14 -9
c-2 0 -4 0 -6 1zM162 88c-3 3 -4 6 -4 10c0 18 32 50 88 86c10 7 14 10 14 11c0 2 -2 3 -6 5c-18 10 -30 26 -30 36c0 3 1 6 3 8s4 3 6 3c4 0 10 -3 19 -9c12 -8 26 -14 48 -20c13 -3 20 -9 20 -16c0 -9 -10 -20 -31 -32c-39 -22 -76 -49 -100 -72c-10 -9 -15 -13 -20 -13
c-2 0 -4 1 -7 3z" />
    <glyph glyph-name="questiondown" unicode="&#xbf;" horiz-adv-x="551" 
d="M446 750c7 -3 11 -11 11 -18s-3 -14 -9 -17c-3 -1 -6 -2 -9 -2c-11 0 -19 8 -19 19v2c2 10 10 18 20 18c2 0 4 -1 6 -2zM433 685c7 -4 10 -14 10 -27c0 -21 -6 -51 -21 -81c-36 -72 -96 -147 -223 -296c-122 -142 -159 -201 -160 -249c0 -44 41 -64 99 -64
c85 0 206 45 281 122c31 32 46 58 46 78c0 25 -23 41 -69 48c-22 4 -32 14 -32 25c0 13 16 27 41 27c3 0 6 0 9 -1c57 -7 91 -44 91 -90c0 -20 -7 -42 -20 -64c-65 -106 -224 -174 -339 -174c-66 0 -119 22 -134 67c-1 7 -2 14 -2 21c-6 63 43 125 139 242
c71 86 85 104 109 134c97 123 161 225 161 253c0 4 -2 7 -5 7c-4 2 -7 4 -7 8c0 1 0 3 1 4c3 8 10 13 17 13c3 0 5 -1 8 -3z" />
    <glyph glyph-name="Agrave" unicode="&#xc0;" horiz-adv-x="588" 
d="M-53 -181c-5 3 -7 8 -7 16c1 16 14 46 42 103c3 4 7 14 12 22c3 7 8 17 10 21c2 5 9 19 17 34c32 66 87 172 118 230c9 17 14 25 14 28c0 2 -1 2 -2 2c-2 0 -8 -3 -17 -7c-38 -16 -74 -35 -78 -42c-4 -5 -10 -7 -15 -7c-8 0 -15 6 -15 14v2c1 17 44 43 128 80
c29 12 29 12 56 61c144 248 281 410 348 410h2l4 -1c21 -3 32 -16 32 -47v-8c-3 -45 -26 -123 -71 -254c-1 -4 -4 -11 -5 -15s-7 -23 -13 -41c-7 -17 -11 -32 -11 -32c0 -1 5 -2 11 -3c34 -6 53 -19 54 -36v-6c0 -10 -6 -15 -12 -15c-4 0 -8 3 -12 7c-7 10 -22 15 -46 16h-4
c-5 0 -5 -5 -16 -37c-53 -159 -101 -328 -121 -426c0 -5 -2 -18 -4 -29c-3 -26 -5 -29 -18 -29c-14 1 -22 17 -22 44v9c1 10 2 21 5 33c11 52 23 106 41 169c3 10 6 20 7 23c1 8 16 58 24 86c16 52 30 95 46 141c2 7 4 10 4 13c0 2 -1 3 -3 3s-6 -1 -12 -1
c-13 0 -17 -1 -33 -3c-9 -2 -34 -5 -41 -8c-2 0 -11 -2 -19 -4c-33 -8 -93 -28 -98 -32c-2 -1 -10 -15 -19 -30c-8 -15 -21 -38 -28 -51c-8 -13 -16 -27 -19 -31c-2 -4 -17 -32 -33 -61c-17 -30 -40 -72 -51 -93c-13 -21 -25 -44 -29 -50c-49 -90 -75 -141 -79 -158
c-1 -6 -7 -12 -14 -12h-2c-1 0 -3 1 -6 2zM279 361c12 4 23 7 26 7c2 1 7 2 11 3c33 8 82 15 119 17c12 0 12 0 17 14c3 6 11 30 19 53c63 176 81 236 83 273v6c0 4 -1 6 -2 7c-1 0 -4 -2 -7 -4c-44 -29 -140 -146 -221 -270c-18 -29 -68 -110 -68 -111s0 -1 1 -1s7 2 22 6z
M487 866c0 9 5 14 14 17c10 2 22 1 35 -3c14 -4 25 -11 36 -20c10 -11 13 -20 9 -27c-4 -6 -13 -6 -27 0c-3 1 -7 2 -12 4c-4 2 -9 3 -13 4c-15 4 -26 8 -32 12c-6 3 -9 8 -10 13z" />
    <glyph glyph-name="Aacute" unicode="&#xc1;" horiz-adv-x="588" 
d="M-53 -181c-5 3 -7 8 -7 16c1 16 14 46 42 103c3 4 7 14 12 22c3 7 8 17 10 21c2 5 9 19 17 34c32 66 87 172 118 230c9 17 14 25 14 28c0 2 -1 2 -2 2c-2 0 -8 -3 -17 -7c-38 -16 -74 -35 -78 -42c-4 -5 -10 -7 -15 -7c-8 0 -15 6 -15 14v2c1 17 44 43 128 80
c29 12 29 12 56 61c144 248 281 410 348 410h2l4 -1c21 -3 32 -16 32 -47v-8c-3 -45 -26 -123 -71 -254c-1 -4 -4 -11 -5 -15s-7 -23 -13 -41c-7 -17 -11 -32 -11 -32c0 -1 5 -2 11 -3c34 -6 53 -19 54 -36v-6c0 -10 -6 -15 -12 -15c-4 0 -8 3 -12 7c-7 10 -22 15 -46 16h-4
c-5 0 -5 -5 -16 -37c-53 -159 -101 -328 -121 -426c0 -5 -2 -18 -4 -29c-3 -26 -5 -29 -18 -29c-14 1 -22 17 -22 44v9c1 10 2 21 5 33c11 52 23 106 41 169c3 10 6 20 7 23c1 8 16 58 24 86c16 52 30 95 46 141c2 7 4 10 4 13c0 2 -1 3 -3 3s-6 -1 -12 -1
c-13 0 -17 -1 -33 -3c-9 -2 -34 -5 -41 -8c-2 0 -11 -2 -19 -4c-33 -8 -93 -28 -98 -32c-2 -1 -10 -15 -19 -30c-8 -15 -21 -38 -28 -51c-8 -13 -16 -27 -19 -31c-2 -4 -17 -32 -33 -61c-17 -30 -40 -72 -51 -93c-13 -21 -25 -44 -29 -50c-49 -90 -75 -141 -79 -158
c-1 -6 -7 -12 -14 -12h-2c-1 0 -3 1 -6 2zM279 361c12 4 23 7 26 7c2 1 7 2 11 3c33 8 82 15 119 17c12 0 12 0 17 14c3 6 11 30 19 53c63 176 81 236 83 273v6c0 4 -1 6 -2 7c-1 0 -4 -2 -7 -4c-44 -29 -140 -146 -221 -270c-18 -29 -68 -110 -68 -111s0 -1 1 -1s7 2 22 6z
M574 869c11 8 22 13 34 15s22 2 30 -1c9 -4 12 -9 10 -17c0 -3 -1 -5 -2 -7c-2 -1 -4 -3 -7 -4s-8 -3 -14 -4c-4 -1 -8 -3 -13 -5c-6 -1 -11 -3 -16 -5c-9 -4 -16 -7 -21 -9c-5 -1 -8 -2 -10 -2s-4 1 -6 2c-9 10 -4 22 15 37z" />
    <glyph glyph-name="Acircumflex" unicode="&#xc2;" horiz-adv-x="588" 
d="M-53 -181c-5 3 -7 8 -7 16c1 16 14 46 42 103c3 4 7 14 12 22c3 7 8 17 10 21c2 5 9 19 17 34c32 66 87 172 118 230c9 17 14 25 14 28c0 2 -1 2 -2 2c-2 0 -8 -3 -17 -7c-38 -16 -74 -35 -78 -42c-4 -5 -10 -7 -15 -7c-8 0 -15 6 -15 14v2c1 17 44 43 128 80
c29 12 29 12 56 61c144 248 281 410 348 410h2l4 -1c21 -3 32 -16 32 -47v-8c-3 -45 -26 -123 -71 -254c-1 -4 -4 -11 -5 -15s-7 -23 -13 -41c-7 -17 -11 -32 -11 -32c0 -1 5 -2 11 -3c34 -6 53 -19 54 -36v-6c0 -10 -6 -15 -12 -15c-4 0 -8 3 -12 7c-7 10 -22 15 -46 16h-4
c-5 0 -5 -5 -16 -37c-53 -159 -101 -328 -121 -426c0 -5 -2 -18 -4 -29c-3 -26 -5 -29 -18 -29c-14 1 -22 17 -22 44v9c1 10 2 21 5 33c11 52 23 106 41 169c3 10 6 20 7 23c1 8 16 58 24 86c16 52 30 95 46 141c2 7 4 10 4 13c0 2 -1 3 -3 3s-6 -1 -12 -1
c-13 0 -17 -1 -33 -3c-9 -2 -34 -5 -41 -8c-2 0 -11 -2 -19 -4c-33 -8 -93 -28 -98 -32c-2 -1 -10 -15 -19 -30c-8 -15 -21 -38 -28 -51c-8 -13 -16 -27 -19 -31c-2 -4 -17 -32 -33 -61c-17 -30 -40 -72 -51 -93c-13 -21 -25 -44 -29 -50c-49 -90 -75 -141 -79 -158
c-1 -6 -7 -12 -14 -12h-2c-1 0 -3 1 -6 2zM279 361c12 4 23 7 26 7c2 1 7 2 11 3c33 8 82 15 119 17c12 0 12 0 17 14c3 6 11 30 19 53c63 176 81 236 83 273v6c0 4 -1 6 -2 7c-1 0 -4 -2 -7 -4c-44 -29 -140 -146 -221 -270c-18 -29 -68 -110 -68 -111s0 -1 1 -1s7 2 22 6z
M570 879c20 19 35 21 45 5c4 -5 7 -12 9 -21c3 -9 4 -18 5 -26c0 -8 -1 -14 -3 -16c-12 -11 -25 -4 -38 19c-1 3 -3 4 -4 4s-3 0 -6 -2c-10 -7 -20 -11 -28 -14c-9 -2 -15 -2 -18 0c-10 6 -6 16 12 29c3 3 8 6 12 10c5 4 10 8 14 12z" />
    <glyph glyph-name="Atilde" unicode="&#xc3;" horiz-adv-x="588" 
d="M-53 -181c-5 3 -7 8 -7 16c1 16 14 46 42 103c3 4 7 14 12 22c3 7 8 17 10 21c2 5 9 19 17 34c32 66 87 172 118 230c9 17 14 25 14 28c0 2 -1 2 -2 2c-2 0 -8 -3 -17 -7c-38 -16 -74 -35 -78 -42c-4 -5 -10 -7 -15 -7c-8 0 -15 6 -15 14v2c1 17 44 43 128 80
c29 12 29 12 56 61c144 248 281 410 348 410h2l4 -1c21 -3 32 -16 32 -47v-8c-3 -45 -26 -123 -71 -254c-1 -4 -4 -11 -5 -15s-7 -23 -13 -41c-7 -17 -11 -32 -11 -32c0 -1 5 -2 11 -3c34 -6 53 -19 54 -36v-6c0 -10 -6 -15 -12 -15c-4 0 -8 3 -12 7c-7 10 -22 15 -46 16h-4
c-5 0 -5 -5 -16 -37c-53 -159 -101 -328 -121 -426c0 -5 -2 -18 -4 -29c-3 -26 -5 -29 -18 -29c-14 1 -22 17 -22 44v9c1 10 2 21 5 33c11 52 23 106 41 169c3 10 6 20 7 23c1 8 16 58 24 86c16 52 30 95 46 141c2 7 4 10 4 13c0 2 -1 3 -3 3s-6 -1 -12 -1
c-13 0 -17 -1 -33 -3c-9 -2 -34 -5 -41 -8c-2 0 -11 -2 -19 -4c-33 -8 -93 -28 -98 -32c-2 -1 -10 -15 -19 -30c-8 -15 -21 -38 -28 -51c-8 -13 -16 -27 -19 -31c-2 -4 -17 -32 -33 -61c-17 -30 -40 -72 -51 -93c-13 -21 -25 -44 -29 -50c-49 -90 -75 -141 -79 -158
c-1 -6 -7 -12 -14 -12h-2c-1 0 -3 1 -6 2zM279 361c12 4 23 7 26 7c2 1 7 2 11 3c33 8 82 15 119 17c12 0 12 0 17 14c3 6 11 30 19 53c63 176 81 236 83 273v6c0 4 -1 6 -2 7c-1 0 -4 -2 -7 -4c-44 -29 -140 -146 -221 -270c-18 -29 -68 -110 -68 -111s0 -1 1 -1s7 2 22 6z
M654 880c8 -2 11 -7 9 -15c-2 -7 -7 -15 -14 -22c-8 -8 -17 -13 -27 -15c-22 -4 -39 3 -52 20c-3 4 -5 7 -7 8c-1 2 -4 2 -6 1c-3 0 -7 -2 -12 -5c-7 -3 -13 -5 -16 -5c-4 0 -7 2 -9 6c-2 7 0 15 8 24c8 8 18 14 30 17c15 3 29 -3 42 -18c10 -12 21 -14 35 -4c4 3 7 5 9 7
c2 1 4 2 6 2c1 0 2 0 4 -1z" />
    <glyph glyph-name="Adieresis" unicode="&#xc4;" horiz-adv-x="588" 
d="M-53 -181c-5 3 -7 8 -7 16c1 16 14 46 42 103c3 4 7 14 12 22c3 7 8 17 10 21c2 5 9 19 17 34c32 66 87 172 118 230c9 17 14 25 14 28c0 2 -1 2 -2 2c-2 0 -8 -3 -17 -7c-38 -16 -74 -35 -78 -42c-4 -5 -10 -7 -15 -7c-8 0 -15 6 -15 14v2c1 17 44 43 128 80
c29 12 29 12 56 61c144 248 281 410 348 410h2l4 -1c21 -3 32 -16 32 -47v-8c-3 -45 -26 -123 -71 -254c-1 -4 -4 -11 -5 -15s-7 -23 -13 -41c-7 -17 -11 -32 -11 -32c0 -1 5 -2 11 -3c34 -6 53 -19 54 -36v-6c0 -10 -6 -15 -12 -15c-4 0 -8 3 -12 7c-7 10 -22 15 -46 16h-4
c-5 0 -5 -5 -16 -37c-53 -159 -101 -328 -121 -426c0 -5 -2 -18 -4 -29c-3 -26 -5 -29 -18 -29c-14 1 -22 17 -22 44v9c1 10 2 21 5 33c11 52 23 106 41 169c3 10 6 20 7 23c1 8 16 58 24 86c16 52 30 95 46 141c2 7 4 10 4 13c0 2 -1 3 -3 3s-6 -1 -12 -1
c-13 0 -17 -1 -33 -3c-9 -2 -34 -5 -41 -8c-2 0 -11 -2 -19 -4c-33 -8 -93 -28 -98 -32c-2 -1 -10 -15 -19 -30c-8 -15 -21 -38 -28 -51c-8 -13 -16 -27 -19 -31c-2 -4 -17 -32 -33 -61c-17 -30 -40 -72 -51 -93c-13 -21 -25 -44 -29 -50c-49 -90 -75 -141 -79 -158
c-1 -6 -7 -12 -14 -12h-2c-1 0 -3 1 -6 2zM279 361c12 4 23 7 26 7c2 1 7 2 11 3c33 8 82 15 119 17c12 0 12 0 17 14c3 6 11 30 19 53c63 176 81 236 83 273v6c0 4 -1 6 -2 7c-1 0 -4 -2 -7 -4c-44 -29 -140 -146 -221 -270c-18 -29 -68 -110 -68 -111s0 -1 1 -1s7 2 22 6z
M545 881c7 6 15 8 23 6c8 -3 14 -9 16 -18s0 -18 -7 -24c-6 -7 -14 -9 -23 -7c-9 3 -15 10 -17 19s1 17 8 24zM613 858c9 9 19 12 28 10c10 -2 15 -9 15 -19c0 -9 -3 -15 -10 -20c-6 -5 -13 -7 -21 -5c-9 2 -14 7 -16 14c-3 7 -1 14 4 20z" />
    <glyph glyph-name="Aring" unicode="&#xc5;" horiz-adv-x="588" 
d="M-53 -181c-5 3 -7 8 -7 16c1 16 14 46 42 103c3 4 7 14 12 22c3 7 8 17 10 21c2 5 9 19 17 34c32 66 87 172 118 230c9 17 14 25 14 28c0 2 -1 2 -2 2c-2 0 -8 -3 -17 -7c-38 -16 -74 -35 -78 -42c-4 -5 -10 -7 -15 -7c-8 0 -15 6 -15 14v2c1 17 44 43 128 80
c29 12 29 12 56 61c144 248 281 410 348 410h2l4 -1c21 -3 32 -16 32 -47v-8c-3 -45 -26 -123 -71 -254c-1 -4 -4 -11 -5 -15s-7 -23 -13 -41c-7 -17 -11 -32 -11 -32c0 -1 5 -2 11 -3c34 -6 53 -19 54 -36v-6c0 -10 -6 -15 -12 -15c-4 0 -8 3 -12 7c-7 10 -22 15 -46 16h-4
c-5 0 -5 -5 -16 -37c-53 -159 -101 -328 -121 -426c0 -5 -2 -18 -4 -29c-3 -26 -5 -29 -18 -29c-14 1 -22 17 -22 44v9c1 10 2 21 5 33c11 52 23 106 41 169c3 10 6 20 7 23c1 8 16 58 24 86c16 52 30 95 46 141c2 7 4 10 4 13c0 2 -1 3 -3 3s-6 -1 -12 -1
c-13 0 -17 -1 -33 -3c-9 -2 -34 -5 -41 -8c-2 0 -11 -2 -19 -4c-33 -8 -93 -28 -98 -32c-2 -1 -10 -15 -19 -30c-8 -15 -21 -38 -28 -51c-8 -13 -16 -27 -19 -31c-2 -4 -17 -32 -33 -61c-17 -30 -40 -72 -51 -93c-13 -21 -25 -44 -29 -50c-49 -90 -75 -141 -79 -158
c-1 -6 -7 -12 -14 -12h-2c-1 0 -3 1 -6 2zM279 361c12 4 23 7 26 7c2 1 7 2 11 3c33 8 82 15 119 17c12 0 12 0 17 14c3 6 11 30 19 53c63 176 81 236 83 273v6c0 4 -1 6 -2 7c-1 0 -4 -2 -7 -4c-44 -29 -140 -146 -221 -270c-18 -29 -68 -110 -68 -111s0 -1 1 -1s7 2 22 6z
M618 902c20 -2 27 -16 22 -42c-5 -20 -15 -36 -29 -48c-13 -11 -27 -14 -40 -8c-12 8 -17 20 -15 36c3 16 10 31 21 44c12 13 26 19 41 18zM601 840c3 3 6 7 9 12s5 9 7 14c1 4 1 7 0 7c-2 0 -5 -1 -8 -5s-6 -9 -10 -14c-3 -5 -5 -9 -5 -13c-2 -7 1 -8 7 -1z" />
    <glyph glyph-name="AE" unicode="&#xc6;" horiz-adv-x="588" 
d="M257 355c1 0 3 1 6 2s9 2 16 4c6 2 12 4 17 5s8 2 9 2c1 1 2 1 3 2h5c1 1 2 1 3 1c17 4 37 8 58 11s42 5 61 6c4 0 7 0 9 1c1 0 3 1 4 3s3 5 4 10c1 3 3 7 6 14c2 7 5 15 8 24c1 5 3 10 5 15c31 86 52 149 64 189c12 39 18 67 19 84v6c0 5 -1 7 -2 7s-2 0 -3 -1
s-3 -2 -4 -3c-23 -16 -55 -49 -96 -99s-83 -107 -125 -171c-5 -7 -11 -17 -18 -29s-15 -24 -22 -37c-8 -13 -15 -23 -20 -32l-6 -9c0 -1 -1 -2 -1 -3h-1zM348 -130c0 -4 -1 -7 -2 -11c-1 -13 -3 -21 -5 -24s-6 -5 -13 -5c-15 3 -22 17 -22 44v11c1 9 2 20 5 31
c10 51 24 107 41 169c1 5 3 10 4 15c1 4 2 7 3 8c1 3 3 11 6 23s7 25 11 39c3 9 5 17 7 24c15 50 31 97 46 141c1 3 1 5 2 7s2 4 2 6s-1 3 -3 3h-3c-2 -1 -5 -1 -9 -1h-13c-3 -1 -7 -1 -11 -2c-3 0 -6 0 -9 -1s-8 -1 -14 -2l-15 -3s-9 -2 -12 -3c-1 0 -3 0 -7 -1l-12 -3
c-11 -3 -24 -6 -39 -11s-28 -9 -39 -13s-18 -7 -20 -8c-1 -1 -2 -3 -5 -7s-6 -9 -9 -15c-1 -3 -3 -5 -5 -8c-5 -9 -10 -18 -16 -29c-5 -9 -9 -16 -12 -22l-9 -15c-5 -8 -8 -13 -10 -16c-1 -3 -5 -10 -11 -21c-7 -12 -14 -25 -22 -40c-9 -16 -18 -33 -27 -50
c-10 -17 -18 -32 -24 -43c-8 -13 -15 -24 -20 -35c-4 -7 -7 -12 -9 -15c-49 -89 -75 -142 -79 -158c-1 -3 -2 -6 -5 -8c-3 -3 -6 -4 -9 -4h-2c-1 0 -2 0 -3 1c-1 0 -2 0 -3 1c-5 3 -7 8 -7 16c1 14 15 48 42 103c1 2 3 5 5 10c2 4 4 8 7 12c1 4 3 8 5 12s4 7 5 9
c1 3 4 7 7 14c3 6 6 13 10 20c17 35 36 74 59 118s42 81 59 112c3 5 5 9 7 12c5 9 7 14 7 16v2h-2s-5 -1 -11 -4l-6 -3c-19 -8 -36 -16 -51 -24s-24 -14 -27 -18c-5 -5 -10 -7 -15 -7c-4 0 -7 1 -10 4s-5 6 -5 10v2c1 17 44 43 128 80c9 3 17 7 22 10s9 9 14 16s11 19 20 35
c73 125 141 225 204 299c62 74 110 111 144 111h2l4 -1c11 -1 19 -6 24 -13s8 -19 8 -34v-8c-2 -25 -11 -66 -28 -122c45 51 100 95 166 130c82 44 152 66 211 66c27 0 49 -5 66 -16c16 -11 24 -29 24 -53v-6c-2 -24 -12 -48 -30 -73c-19 -25 -40 -47 -63 -64
c-24 -18 -44 -27 -61 -27c-13 0 -21 7 -26 20c-1 1 -1 2 -1 3v2c0 5 1 8 4 11s6 4 9 4s7 -1 10 -4c1 -1 1 -1 2 -1h1c7 0 19 6 35 19c15 13 30 28 44 45c24 31 36 55 36 71c0 19 -14 29 -41 28c-41 0 -98 -19 -171 -58c-74 -39 -138 -90 -192 -151c-23 -24 -34 -42 -34 -53
c0 -9 9 -14 26 -17s44 -4 81 -4c31 0 54 -1 70 -2c15 -1 26 -4 33 -8c6 -4 11 -10 14 -17c3 -5 4 -10 4 -15c0 -11 -7 -24 -20 -40c-14 -17 -38 -39 -71 -68c-24 -21 -41 -37 -51 -46c-7 -6 -12 -11 -17 -15c-5 -5 -11 -10 -18 -16c-80 -73 -141 -139 -183 -196
c-43 -58 -64 -104 -64 -137c0 -31 19 -47 57 -49c5 0 10 0 15 1c6 0 13 0 20 1c59 8 123 36 192 84c68 47 147 114 237 199c13 13 24 22 33 28c8 6 14 10 18 12c4 1 7 2 9 2s3 -2 3 -7c0 -11 -20 -37 -60 -76c-41 -39 -94 -86 -160 -140c-115 -91 -213 -136 -293 -136
c-7 0 -14 0 -22 1c-27 4 -47 14 -62 30zM522 465l-2 -4c-1 -2 -2 -7 -4 -15c-3 -8 -6 -17 -9 -26s-6 -16 -8 -22c-1 -3 -1 -5 -2 -6c0 -1 0 -2 -1 -3v-1c0 -1 1 -1 3 -1c2 -1 5 -1 8 -2c35 -7 53 -19 54 -36v-6c0 -5 -1 -8 -3 -11c-3 -3 -6 -4 -9 -4c-4 0 -8 2 -12 7
c-7 10 -22 15 -46 16h-4c-1 0 -2 0 -3 -1s-3 -4 -4 -7c-1 -4 -3 -9 -5 -16c-1 -3 -3 -8 -4 -13c-22 -66 -41 -127 -58 -184c54 67 133 142 237 225c57 46 85 71 85 75v1c-1 1 -7 2 -18 3h-35h-35c-64 0 -106 10 -125 31z" />
    <glyph glyph-name="Ccedilla" unicode="&#xc7;" horiz-adv-x="505" 
d="M82 -159c-35 8 -61 28 -78 60c-20 35 -30 80 -30 134c0 94 27 203 80 326s128 235 223 335c37 37 71 65 104 83c32 18 60 27 83 27c21 0 37 -7 50 -21c12 -14 18 -34 18 -61c0 -30 -9 -68 -27 -113c-26 -62 -53 -112 -82 -149c-29 -38 -54 -57 -74 -57
c-11 0 -19 6 -25 17c-2 4 -3 8 -3 12c0 6 2 11 5 16c3 4 6 6 11 6c3 0 6 -1 9 -4c1 -1 2 -2 4 -2c7 0 20 13 37 38s35 54 52 88s29 66 38 96c5 18 7 33 7 44c0 24 -9 36 -26 35c-25 0 -61 -22 -109 -66c-49 -44 -98 -104 -147 -179c-59 -92 -103 -181 -132 -268
c-30 -87 -45 -161 -45 -222c0 -44 8 -79 23 -104c15 -26 37 -39 68 -39c21 0 47 7 76 21c43 23 93 61 148 116s105 114 150 177c12 17 21 25 26 25c1 0 3 -1 4 -3c1 -1 1 -3 1 -4c0 -13 -14 -38 -41 -75c-28 -37 -61 -76 -99 -117s-74 -76 -108 -103
c-66 -49 -121 -73 -164 -73h-7s-1 -1 -1 -2c-5 -11 -8 -18 -9 -23c-1 -2 -2 -3 -2 -4s0 -2 -1 -2v-1c1 0 3 1 6 3c12 5 22 8 29 8c12 0 19 -6 20 -18c1 -11 -3 -26 -14 -45c-9 -14 -19 -24 -30 -31s-20 -10 -29 -10c-2 0 -4 0 -6 1c-7 2 -11 5 -13 10c-3 5 -3 9 -2 14
s2 8 5 9c2 0 4 -2 5 -5c1 -5 4 -8 9 -8c7 0 15 4 24 12s16 17 23 28c4 8 6 14 6 18c0 5 -2 7 -7 7c-6 0 -16 -6 -29 -18c-7 -4 -13 -6 -16 -6c-5 0 -7 3 -8 9v2c0 3 1 8 4 16s6 16 10 25c2 5 5 10 6 15z" />
    <glyph glyph-name="Egrave" unicode="&#xc8;" horiz-adv-x="547" 
d="M6 -160c-56 7 -86 46 -86 99c0 27 7 57 23 89c46 95 137 193 303 327c53 43 85 71 85 75v1c-2 2 -28 3 -53 3h-35c-92 0 -138 21 -138 64c0 19 9 42 28 70c90 136 291 236 408 236c54 0 90 -21 90 -69v-6c-4 -70 -104 -164 -154 -164c-13 0 -22 6 -26 20c-1 2 -1 4 -1 5
c0 9 6 15 13 15c3 0 7 -1 10 -4c1 -1 2 -1 3 -1c14 0 53 31 79 64c25 32 36 55 36 71c0 19 -15 28 -41 28c-81 0 -263 -88 -363 -209c-21 -25 -34 -42 -34 -53c0 -17 32 -20 107 -21c93 -1 106 -4 117 -27c2 -5 4 -10 4 -15c0 -22 -24 -49 -91 -108c-57 -51 -61 -55 -86 -77
c-160 -146 -247 -267 -247 -333c0 -30 18 -49 57 -49c5 0 10 0 15 1c6 0 13 0 20 1c120 16 247 113 429 283c41 39 54 42 60 42c2 0 3 -2 3 -7c0 -23 -90 -110 -220 -216c-106 -86 -213 -136 -293 -136c-7 0 -15 0 -22 1zM373 866c0 9 5 14 15 17c9 2 21 1 34 -3
c14 -4 26 -11 36 -20c10 -11 13 -20 9 -27c-4 -6 -13 -6 -27 0c-3 1 -7 2 -11 4c-5 2 -9 3 -14 4c-15 4 -25 8 -32 12c-6 3 -9 8 -10 13z" />
    <glyph glyph-name="Eacute" unicode="&#xc9;" horiz-adv-x="547" 
d="M6 -160c-56 7 -86 46 -86 99c0 27 7 57 23 89c46 95 137 193 303 327c53 43 85 71 85 75v1c-2 2 -28 3 -53 3h-35c-92 0 -138 21 -138 64c0 19 9 42 28 70c90 136 291 236 408 236c54 0 90 -21 90 -69v-6c-4 -70 -104 -164 -154 -164c-13 0 -22 6 -26 20c-1 2 -1 4 -1 5
c0 9 6 15 13 15c3 0 7 -1 10 -4c1 -1 2 -1 3 -1c14 0 53 31 79 64c25 32 36 55 36 71c0 19 -15 28 -41 28c-81 0 -263 -88 -363 -209c-21 -25 -34 -42 -34 -53c0 -17 32 -20 107 -21c93 -1 106 -4 117 -27c2 -5 4 -10 4 -15c0 -22 -24 -49 -91 -108c-57 -51 -61 -55 -86 -77
c-160 -146 -247 -267 -247 -333c0 -30 18 -49 57 -49c5 0 10 0 15 1c6 0 13 0 20 1c120 16 247 113 429 283c41 39 54 42 60 42c2 0 3 -2 3 -7c0 -23 -90 -110 -220 -216c-106 -86 -213 -136 -293 -136c-7 0 -15 0 -22 1zM427 869c10 8 21 13 33 15c13 2 23 2 31 -1
c9 -4 12 -9 10 -17c0 -3 -1 -5 -3 -7c-1 -1 -3 -3 -6 -4s-8 -3 -14 -4c-4 -1 -8 -3 -14 -5c-5 -1 -10 -3 -15 -5c-9 -4 -16 -7 -21 -9c-5 -1 -8 -2 -11 -2c-2 0 -4 1 -5 2c-9 10 -4 22 15 37z" />
    <glyph glyph-name="Ecircumflex" unicode="&#xca;" horiz-adv-x="547" 
d="M6 -160c-56 7 -86 46 -86 99c0 27 7 57 23 89c46 95 137 193 303 327c53 43 85 71 85 75v1c-2 2 -28 3 -53 3h-35c-92 0 -138 21 -138 64c0 19 9 42 28 70c90 136 291 236 408 236c54 0 90 -21 90 -69v-6c-4 -70 -104 -164 -154 -164c-13 0 -22 6 -26 20c-1 2 -1 4 -1 5
c0 9 6 15 13 15c3 0 7 -1 10 -4c1 -1 2 -1 3 -1c14 0 53 31 79 64c25 32 36 55 36 71c0 19 -15 28 -41 28c-81 0 -263 -88 -363 -209c-21 -25 -34 -42 -34 -53c0 -17 32 -20 107 -21c93 -1 106 -4 117 -27c2 -5 4 -10 4 -15c0 -22 -24 -49 -91 -108c-57 -51 -61 -55 -86 -77
c-160 -146 -247 -267 -247 -333c0 -30 18 -49 57 -49c5 0 10 0 15 1c6 0 13 0 20 1c120 16 247 113 429 283c41 39 54 42 60 42c2 0 3 -2 3 -7c0 -23 -90 -110 -220 -216c-106 -86 -213 -136 -293 -136c-7 0 -15 0 -22 1zM426 879c21 19 36 21 45 5c4 -5 7 -12 10 -21
c2 -9 4 -18 4 -26c1 -8 0 -14 -3 -16c-12 -11 -25 -4 -38 19c-1 3 -2 4 -3 4s-3 0 -6 -2c-11 -7 -21 -11 -29 -14c-9 -2 -15 -2 -18 0c-10 6 -6 16 12 29c4 3 8 6 13 10s9 8 13 12z" />
    <glyph glyph-name="Edieresis" unicode="&#xcb;" horiz-adv-x="547" 
d="M6 -160c-56 7 -86 46 -86 99c0 27 7 57 23 89c46 95 137 193 303 327c53 43 85 71 85 75v1c-2 2 -28 3 -53 3h-35c-92 0 -138 21 -138 64c0 19 9 42 28 70c90 136 291 236 408 236c54 0 90 -21 90 -69v-6c-4 -70 -104 -164 -154 -164c-13 0 -22 6 -26 20c-1 2 -1 4 -1 5
c0 9 6 15 13 15c3 0 7 -1 10 -4c1 -1 2 -1 3 -1c14 0 53 31 79 64c25 32 36 55 36 71c0 19 -15 28 -41 28c-81 0 -263 -88 -363 -209c-21 -25 -34 -42 -34 -53c0 -17 32 -20 107 -21c93 -1 106 -4 117 -27c2 -5 4 -10 4 -15c0 -22 -24 -49 -91 -108c-57 -51 -61 -55 -86 -77
c-160 -146 -247 -267 -247 -333c0 -30 18 -49 57 -49c5 0 10 0 15 1c6 0 13 0 20 1c120 16 247 113 429 283c41 39 54 42 60 42c2 0 3 -2 3 -7c0 -23 -90 -110 -220 -216c-106 -86 -213 -136 -293 -136c-7 0 -15 0 -22 1zM359 869c7 6 15 8 23 5c8 -2 14 -8 16 -17
c2 -10 0 -18 -7 -25c-6 -6 -14 -9 -23 -6s-15 9 -17 18c-2 10 1 18 8 25zM443 875c9 8 19 11 28 9c10 -2 15 -9 15 -19c0 -8 -3 -15 -10 -20c-6 -5 -13 -7 -21 -5c-9 2 -14 7 -16 14c-3 8 -1 14 4 21z" />
    <glyph glyph-name="Igrave" unicode="&#xcc;" horiz-adv-x="254" 
d="M25 -149c-5 2 -7 4 -7 8c0 13 35 38 89 61c7 4 11 6 11 7h-1c-14 0 -21 25 -21 65c0 23 2 51 8 81c23 140 127 418 219 588c21 39 48 84 58 99c3 4 5 8 5 9h-2c-6 0 -32 -3 -53 -7c-3 -1 -5 -2 -5 -4c-3 -6 -10 -8 -17 -8c-10 0 -21 5 -21 14c0 24 91 47 157 47
c23 0 43 -3 56 -9c15 -8 23 -20 23 -31c0 -5 -1 -10 -4 -14c-5 -6 -12 -9 -18 -9c-8 0 -15 4 -15 10c0 2 1 3 2 5l1 3v1c-11 4 -21 5 -30 5c-12 0 -20 -3 -20 -8v-1c0 -12 -2 -18 -12 -29c-77 -90 -279 -579 -296 -718c-2 -16 -3 -28 -3 -37c0 -15 3 -21 10 -22s10 -2 10 -6
c0 -2 -1 -5 -2 -9s-2 -6 -2 -6c1 0 6 1 12 3c10 3 19 5 28 5c22 0 37 -11 37 -29c0 -12 -9 -20 -16 -20c-4 0 -7 2 -9 7c-1 2 -4 3 -8 3c-20 0 -77 -19 -140 -47c-12 -6 -18 -7 -22 -7h-2zM392 866c0 9 5 14 15 17c10 2 21 1 35 -3c13 -4 25 -11 35 -20c10 -11 14 -20 9 -27
c-4 -6 -13 -6 -27 0c-3 1 -7 2 -11 4c-5 2 -9 3 -14 4c-15 4 -25 8 -32 12c-6 3 -9 8 -10 13z" />
    <glyph glyph-name="Iacute" unicode="&#xcd;" horiz-adv-x="254" 
d="M25 -149c-5 2 -7 4 -7 8c0 13 35 38 89 61c7 4 11 6 11 7h-1c-14 0 -21 25 -21 65c0 23 2 51 8 81c23 140 127 418 219 588c21 39 48 84 58 99c3 4 5 8 5 9h-2c-6 0 -32 -3 -53 -7c-3 -1 -5 -2 -5 -4c-3 -6 -10 -8 -17 -8c-10 0 -21 5 -21 14c0 24 91 47 157 47
c23 0 43 -3 56 -9c15 -8 23 -20 23 -31c0 -5 -1 -10 -4 -14c-5 -6 -12 -9 -18 -9c-8 0 -15 4 -15 10c0 2 1 3 2 5l1 3v1c-11 4 -21 5 -30 5c-12 0 -20 -3 -20 -8v-1c0 -12 -2 -18 -12 -29c-77 -90 -279 -579 -296 -718c-2 -16 -3 -28 -3 -37c0 -15 3 -21 10 -22s10 -2 10 -6
c0 -2 -1 -5 -2 -9s-2 -6 -2 -6c1 0 6 1 12 3c10 3 19 5 28 5c22 0 37 -11 37 -29c0 -12 -9 -20 -16 -20c-4 0 -7 2 -9 7c-1 2 -4 3 -8 3c-20 0 -77 -19 -140 -47c-12 -6 -18 -7 -22 -7h-2zM448 875c11 8 22 13 34 15s22 1 30 -2c9 -3 12 -9 11 -17c-1 -2 -2 -5 -3 -6
c-1 -2 -4 -3 -7 -4c-3 -2 -8 -3 -14 -5c-4 -1 -8 -2 -13 -4c-6 -2 -11 -4 -16 -6c-9 -4 -16 -6 -21 -8s-8 -2 -10 -2s-4 1 -6 2c-9 9 -4 22 15 37z" />
    <glyph glyph-name="Icircumflex" unicode="&#xce;" horiz-adv-x="254" 
d="M25 -149c-5 2 -7 4 -7 8c0 13 35 38 89 61c7 4 11 6 11 7h-1c-14 0 -21 25 -21 65c0 23 2 51 8 81c23 140 127 418 219 588c21 39 48 84 58 99c3 4 5 8 5 9h-2c-6 0 -32 -3 -53 -7c-3 -1 -5 -2 -5 -4c-3 -6 -10 -8 -17 -8c-10 0 -21 5 -21 14c0 24 91 47 157 47
c23 0 43 -3 56 -9c15 -8 23 -20 23 -31c0 -5 -1 -10 -4 -14c-5 -6 -12 -9 -18 -9c-8 0 -15 4 -15 10c0 2 1 3 2 5l1 3v1c-11 4 -21 5 -30 5c-12 0 -20 -3 -20 -8v-1c0 -12 -2 -18 -12 -29c-77 -90 -279 -579 -296 -718c-2 -16 -3 -28 -3 -37c0 -15 3 -21 10 -22s10 -2 10 -6
c0 -2 -1 -5 -2 -9s-2 -6 -2 -6c1 0 6 1 12 3c10 3 19 5 28 5c22 0 37 -11 37 -29c0 -12 -9 -20 -16 -20c-4 0 -7 2 -9 7c-1 2 -4 3 -8 3c-20 0 -77 -19 -140 -47c-12 -6 -18 -7 -22 -7h-2zM454 896c21 19 36 21 45 6c4 -5 7 -12 10 -21c2 -9 4 -18 4 -26c1 -8 0 -14 -3 -17
c-12 -10 -25 -4 -38 19c-1 3 -2 5 -3 5s-3 -1 -6 -3c-11 -6 -21 -11 -29 -13c-9 -2 -15 -2 -18 0c-10 6 -6 15 12 29c4 2 8 6 13 10s9 8 13 11z" />
    <glyph glyph-name="Idieresis" unicode="&#xcf;" horiz-adv-x="254" 
d="M25 -149c-5 2 -7 4 -7 8c0 13 35 38 89 61c7 4 11 6 11 7h-1c-14 0 -21 25 -21 65c0 23 2 51 8 81c23 140 127 418 219 588c21 39 48 84 58 99c3 4 5 8 5 9h-2c-6 0 -32 -3 -53 -7c-3 -1 -5 -2 -5 -4c-3 -6 -10 -8 -17 -8c-10 0 -21 5 -21 14c0 24 91 47 157 47
c23 0 43 -3 56 -9c15 -8 23 -20 23 -31c0 -5 -1 -10 -4 -14c-5 -6 -12 -9 -18 -9c-8 0 -15 4 -15 10c0 2 1 3 2 5l1 3v1c-11 4 -21 5 -30 5c-12 0 -20 -3 -20 -8v-1c0 -12 -2 -18 -12 -29c-77 -90 -279 -579 -296 -718c-2 -16 -3 -28 -3 -37c0 -15 3 -21 10 -22s10 -2 10 -6
c0 -2 -1 -5 -2 -9s-2 -6 -2 -6c1 0 6 1 12 3c10 3 19 5 28 5c22 0 37 -11 37 -29c0 -12 -9 -20 -16 -20c-4 0 -7 2 -9 7c-1 2 -4 3 -8 3c-20 0 -77 -19 -140 -47c-12 -6 -18 -7 -22 -7h-2zM415 896c7 6 15 7 23 5s13 -8 16 -17c2 -10 0 -18 -7 -25c-6 -6 -14 -9 -23 -7
c-9 4 -15 10 -17 19s1 18 8 25zM483 873c9 8 19 11 28 9c10 -2 15 -9 15 -19c0 -8 -3 -15 -10 -20c-6 -5 -13 -7 -21 -5c-9 2 -14 7 -16 14c-3 8 -1 14 4 21z" />
    <glyph glyph-name="Eth" unicode="&#xd0;" horiz-adv-x="664" 
d="M185 328c-47 -107 -87 -220 -118 -337c-1 -2 -1 -4 -2 -5c-2 -7 -3 -13 -3 -17s2 -6 7 -6c7 0 22 3 45 10c3 1 7 2 11 3c100 29 190 75 271 139c81 63 145 135 193 215c47 79 71 155 71 227c0 56 -17 106 -51 150c-17 20 -39 35 -66 45c-27 9 -57 14 -90 14
c-61 0 -124 -15 -191 -46s-122 -75 -165 -131c-13 -17 -19 -29 -19 -37c0 -9 8 -14 25 -13h9c12 0 18 -3 18 -8c0 -6 -9 -12 -26 -19c-8 -2 -16 -3 -23 -3c-15 0 -27 4 -36 13c-7 8 -10 17 -10 27c0 31 23 69 69 113c46 43 103 80 170 110c67 27 126 41 178 41
c77 0 136 -24 179 -73s64 -110 64 -183c0 -60 -15 -124 -46 -193s-78 -138 -143 -205c-124 -127 -270 -205 -439 -233c-6 -1 -10 -2 -13 -5s-5 -8 -6 -15s-2 -19 -3 -34c-1 -19 -5 -29 -14 -29c-3 0 -7 1 -10 3c-12 5 -18 20 -18 46l1 20c0 3 -1 5 -2 6s-4 1 -8 1
c-44 0 -68 13 -73 38l-1 4c0 5 2 8 6 8c3 0 8 -2 15 -6s13 -7 20 -8s16 -2 28 -2h7c4 0 7 0 9 1c2 0 3 1 4 3c1 1 1 4 2 7c0 1 0 2 1 3c7 42 20 93 38 153c17 60 35 114 54 161c6 16 13 31 19 47h-17c-14 -1 -24 -1 -31 -2l-10 -1c-24 0 -36 7 -37 21c0 5 3 11 10 16
c6 5 15 8 28 11c28 4 55 7 81 8c17 37 36 74 57 112c38 69 75 128 110 175s61 71 77 71c13 0 19 -5 19 -14c0 -7 -5 -18 -16 -33c-71 -99 -132 -203 -185 -313c21 -2 40 -5 57 -9c29 -8 43 -18 43 -30c0 -4 -2 -8 -6 -13c-2 -2 -4 -3 -6 -4c-3 -1 -6 -2 -11 -2
c-7 0 -19 1 -36 3c-9 1 -22 2 -40 3c-8 0 -17 1 -25 1z" />
    <glyph glyph-name="Ntilde" unicode="&#xd1;" horiz-adv-x="631" 
d="M-11 -150c-11 6 -17 16 -17 35v4c0 26 9 67 27 133c46 161 158 419 267 615c84 152 118 203 142 204c5 0 10 -2 15 -6c6 -4 9 -9 9 -15c0 -7 -3 -15 -10 -26c-69 -117 -158 -290 -217 -422c-39 -90 -97 -223 -97 -228c0 0 12 20 28 45c170 278 398 530 483 534h2
c31 0 47 -19 48 -62v-9c0 -63 -29 -172 -86 -339c-59 -170 -82 -251 -82 -303v-6c0 -16 3 -29 8 -42c3 -10 3 -10 11 -13c7 -2 10 -6 10 -10c0 -7 -7 -16 -19 -16h-3c-27 0 -49 45 -51 113v15c0 77 21 158 86 345c46 131 61 181 71 224c6 25 9 42 9 52c-1 10 -4 14 -9 14
l-2 -1c-70 -9 -243 -193 -390 -413c-83 -125 -179 -290 -190 -327c-10 -33 -13 -53 -13 -61l1 -4c1 -2 2 -4 2 -7c0 -12 -12 -24 -25 -24h-3c-2 0 -4 0 -5 1zM709 880c7 -2 10 -7 8 -15c-1 -7 -6 -15 -14 -22c-7 -8 -16 -13 -26 -15c-22 -4 -39 3 -52 20c-3 4 -5 7 -7 8
c-2 2 -4 2 -7 1c-2 0 -6 -2 -11 -5c-7 -3 -13 -5 -16 -5c-4 0 -7 2 -9 6c-3 7 0 15 8 24c8 8 18 14 30 17c15 3 29 -3 41 -18c10 -12 22 -14 35 -4c4 3 8 5 10 7c2 1 4 2 5 2c2 0 3 0 5 -1z" />
    <glyph glyph-name="Ograve" unicode="&#xd2;" 
d="M211 -114c-72 9 -108 72 -108 157c0 81 32 180 98 270c42 58 86 92 113 92c8 0 14 -3 19 -9c2 -3 4 -8 4 -12c0 -11 -8 -23 -17 -23c-6 0 -20 -14 -44 -44c-67 -86 -111 -207 -111 -293c0 -17 2 -32 5 -45c9 -36 34 -53 68 -53c74 0 191 78 289 207
c116 152 174 316 174 443c0 117 -49 203 -150 220c-12 2 -24 3 -36 3c-147 0 -317 -150 -437 -389c-24 -48 -34 -74 -45 -119c-8 -30 -13 -42 -19 -42c-2 0 -5 1 -7 3c-9 7 -13 20 -13 38c0 65 56 192 145 315c114 159 253 232 367 232c129 0 227 -92 227 -260
c0 -36 -4 -76 -14 -119c-64 -278 -319 -573 -490 -573c-6 0 -12 0 -18 1zM481 899c-1 9 4 15 14 17s21 1 35 -3c13 -4 25 -10 35 -20c11 -11 14 -20 9 -26c-4 -7 -13 -7 -27 -1c-3 1 -7 3 -11 4c-5 2 -9 3 -13 4c-16 4 -26 8 -32 12c-7 3 -10 8 -10 13z" />
    <glyph glyph-name="Oacute" unicode="&#xd3;" 
d="M211 -114c-72 9 -108 72 -108 157c0 81 32 180 98 270c42 58 86 92 113 92c8 0 14 -3 19 -9c2 -3 4 -8 4 -12c0 -11 -8 -23 -17 -23c-6 0 -20 -14 -44 -44c-67 -86 -111 -207 -111 -293c0 -17 2 -32 5 -45c9 -36 34 -53 68 -53c74 0 191 78 289 207
c116 152 174 316 174 443c0 117 -49 203 -150 220c-12 2 -24 3 -36 3c-147 0 -317 -150 -437 -389c-24 -48 -34 -74 -45 -119c-8 -30 -13 -42 -19 -42c-2 0 -5 1 -7 3c-9 7 -13 20 -13 38c0 65 56 192 145 315c114 159 253 232 367 232c129 0 227 -92 227 -260
c0 -36 -4 -76 -14 -119c-64 -278 -319 -573 -490 -573c-6 0 -12 0 -18 1zM545 903c10 7 21 12 33 14s23 2 31 -1s12 -9 10 -17c-1 -3 -1 -5 -3 -7c-1 -1 -3 -3 -6 -4c-4 -1 -8 -3 -15 -4c-3 -1 -7 -2 -13 -4l-15 -6c-10 -4 -17 -7 -21 -8c-5 -2 -9 -3 -11 -3s-4 1 -5 3
c-9 9 -4 21 15 37z" />
    <glyph glyph-name="Ocircumflex" unicode="&#xd4;" 
d="M211 -114c-72 9 -108 72 -108 157c0 81 32 180 98 270c42 58 86 92 113 92c8 0 14 -3 19 -9c2 -3 4 -8 4 -12c0 -11 -8 -23 -17 -23c-6 0 -20 -14 -44 -44c-67 -86 -111 -207 -111 -293c0 -17 2 -32 5 -45c9 -36 34 -53 68 -53c74 0 191 78 289 207
c116 152 174 316 174 443c0 117 -49 203 -150 220c-12 2 -24 3 -36 3c-147 0 -317 -150 -437 -389c-24 -48 -34 -74 -45 -119c-8 -30 -13 -42 -19 -42c-2 0 -5 1 -7 3c-9 7 -13 20 -13 38c0 65 56 192 145 315c114 159 253 232 367 232c129 0 227 -92 227 -260
c0 -36 -4 -76 -14 -119c-64 -278 -319 -573 -490 -573c-6 0 -12 0 -18 1zM558 912c20 19 36 21 45 5c4 -5 7 -12 9 -21c3 -9 4 -17 5 -26c0 -8 0 -13 -3 -16c-12 -10 -25 -4 -38 19c-1 3 -2 4 -3 4c-1 1 -4 0 -7 -2c-10 -7 -20 -11 -28 -14c-9 -2 -15 -2 -18 1
c-10 5 -6 15 12 28c4 3 8 6 13 10c4 4 9 8 13 12z" />
    <glyph glyph-name="Otilde" unicode="&#xd5;" 
d="M211 -114c-72 9 -108 72 -108 157c0 81 32 180 98 270c42 58 86 92 113 92c8 0 14 -3 19 -9c2 -3 4 -8 4 -12c0 -11 -8 -23 -17 -23c-6 0 -20 -14 -44 -44c-67 -86 -111 -207 -111 -293c0 -17 2 -32 5 -45c9 -36 34 -53 68 -53c74 0 191 78 289 207
c116 152 174 316 174 443c0 117 -49 203 -150 220c-12 2 -24 3 -36 3c-147 0 -317 -150 -437 -389c-24 -48 -34 -74 -45 -119c-8 -30 -13 -42 -19 -42c-2 0 -5 1 -7 3c-9 7 -13 20 -13 38c0 65 56 192 145 315c114 159 253 232 367 232c129 0 227 -92 227 -260
c0 -36 -4 -76 -14 -119c-64 -278 -319 -573 -490 -573c-6 0 -12 0 -18 1zM655 908c7 -2 10 -7 8 -15c-2 -7 -6 -15 -14 -23c-7 -7 -16 -12 -27 -14c-21 -4 -38 3 -51 20c-3 4 -5 7 -7 8c-2 2 -4 2 -7 1c-2 0 -6 -2 -11 -5c-8 -3 -13 -5 -17 -5c-3 0 -6 2 -8 6
c-3 7 0 15 8 24c8 8 18 14 30 17c15 3 28 -3 41 -18c10 -12 22 -14 35 -4c4 3 8 5 10 6c2 2 4 3 5 3s3 0 5 -1z" />
    <glyph glyph-name="Odieresis" unicode="&#xd6;" 
d="M211 -114c-72 9 -108 72 -108 157c0 81 32 180 98 270c42 58 86 92 113 92c8 0 14 -3 19 -9c2 -3 4 -8 4 -12c0 -11 -8 -23 -17 -23c-6 0 -20 -14 -44 -44c-67 -86 -111 -207 -111 -293c0 -17 2 -32 5 -45c9 -36 34 -53 68 -53c74 0 191 78 289 207
c116 152 174 316 174 443c0 117 -49 203 -150 220c-12 2 -24 3 -36 3c-147 0 -317 -150 -437 -389c-24 -48 -34 -74 -45 -119c-8 -30 -13 -42 -19 -42c-2 0 -5 1 -7 3c-9 7 -13 20 -13 38c0 65 56 192 145 315c114 159 253 232 367 232c129 0 227 -92 227 -260
c0 -36 -4 -76 -14 -119c-64 -278 -319 -573 -490 -573c-6 0 -12 0 -18 1zM568 914c7 7 15 8 23 6c8 -3 13 -8 16 -18c2 -9 -1 -17 -7 -24c-7 -7 -14 -9 -24 -7c-8 3 -14 10 -16 19s1 17 8 24zM636 892c9 8 18 11 28 9c9 -2 14 -9 15 -19c0 -8 -4 -15 -10 -20s-14 -7 -22 -5
s-13 7 -16 14c-2 8 -1 14 5 21z" />
    <glyph glyph-name="multiply" unicode="&#xd7;" horiz-adv-x="496" 
d="M160 107c-4 3 -6 7 -6 12c0 15 16 36 52 71c17 17 21 21 21 24v3c-6 8 -25 26 -37 35c-11 7 -16 13 -16 18c0 3 1 5 3 8c2 4 7 5 14 5c16 0 41 -12 64 -32c4 -5 7 -7 10 -7s7 2 16 8c27 17 51 27 63 27h4c7 -2 11 -8 11 -14c0 -5 -3 -10 -10 -12s-34 -20 -61 -42
c0 -1 4 -6 9 -12c25 -36 36 -57 36 -70c0 -4 -1 -8 -3 -10c-4 -5 -8 -7 -12 -7c-9 0 -21 13 -45 45c-15 18 -19 23 -22 23c-1 0 -1 -1 -2 -1c-9 -6 -53 -49 -62 -61c-9 -11 -14 -15 -19 -15c-3 0 -5 1 -8 4z" />
    <glyph glyph-name="Oslash" unicode="&#xd8;" 
d="M193 -110c-27 8 -48 23 -63 47c-18 29 -27 64 -27 106c0 40 8 84 25 131c16 47 40 94 73 139c48 61 86 92 113 92c8 0 14 -3 19 -9c3 -3 4 -7 4 -12s-2 -10 -5 -15s-7 -8 -12 -8c-6 0 -21 -15 -44 -44c-34 -45 -61 -94 -81 -147c-20 -54 -30 -103 -30 -146
c0 -17 2 -32 5 -45c7 -22 18 -37 34 -45c20 78 51 168 91 270c53 136 115 270 185 403c35 66 69 126 102 181c-10 3 -20 6 -31 8c-12 2 -24 3 -36 3c-73 0 -149 -35 -227 -104c-79 -69 -149 -164 -210 -285c-12 -23 -21 -44 -27 -61c-7 -17 -13 -37 -18 -58
c-6 -28 -12 -42 -19 -42c-2 0 -4 1 -7 3c-9 7 -13 20 -13 38c0 33 13 78 39 135s61 117 106 180c58 79 120 138 185 176c65 37 125 56 182 56c34 0 66 -6 94 -19c28 44 46 70 55 78c5 3 9 5 12 4c7 -1 11 -5 11 -14c0 -4 -1 -8 -4 -12c-11 -18 -25 -42 -42 -73
c12 -9 25 -19 36 -31c43 -45 65 -109 65 -193c0 -36 -5 -76 -14 -119c-23 -95 -62 -185 -117 -272s-117 -158 -185 -215c-69 -57 -131 -86 -187 -86c-9 -30 -15 -57 -18 -79c-2 -17 -7 -26 -14 -25c-2 0 -4 1 -7 2c-9 5 -12 17 -10 38c1 9 2 21 5 35c2 11 5 22 7 34z
M241 -74c36 1 80 19 132 55c53 37 104 87 154 152c58 77 102 155 131 232s43 148 43 211c0 59 -12 108 -37 147c-13 20 -29 36 -48 48c-10 -18 -21 -38 -33 -59c-41 -76 -75 -144 -104 -203c-68 -140 -127 -276 -177 -408c-25 -67 -46 -125 -61 -175z" />
    <glyph glyph-name="Ugrave" unicode="&#xd9;" horiz-adv-x="643" 
d="M96 -173c-63 10 -92 79 -92 182c0 153 66 383 187 607c76 141 123 203 153 203c3 0 6 -1 9 -2c9 -3 13 -9 13 -18c0 -6 -2 -13 -6 -22c-4 -7 -8 -17 -9 -21c-4 -10 -8 -16 -12 -16c-2 0 -4 2 -6 4c-1 1 -1 2 -2 2c-2 0 -5 -6 -20 -33c-141 -237 -250 -572 -250 -741
c0 -30 4 -54 11 -72c8 -22 24 -33 45 -33c72 0 207 122 356 329c49 69 53 75 61 98c63 177 165 376 228 441c9 10 17 14 24 14c10 0 16 -8 16 -23c0 -6 -1 -13 -3 -21c-22 -70 -104 -225 -200 -376c-17 -27 -16 -25 -30 -66c-40 -121 -59 -205 -59 -266c0 -6 0 -12 1 -18
c0 -21 1 -28 6 -28c2 0 5 2 11 5c7 4 12 6 16 6s6 -2 6 -6s-1 -9 -4 -16c-8 -16 -22 -25 -35 -25c-11 0 -21 6 -28 19c-8 14 -11 39 -11 70c0 41 6 93 19 145c4 20 6 26 6 27h-1c-1 -1 -11 -14 -22 -29c-149 -203 -283 -321 -366 -321c-4 0 -8 1 -12 1zM656 480
c40 67 94 173 105 203c0 2 1 4 1 4c-1 0 -2 -2 -6 -8c-27 -41 -69 -121 -102 -195c-6 -13 -9 -19 -9 -21c0 0 4 6 11 17zM507 878c-1 9 4 15 14 17s22 2 35 -2s25 -11 35 -21c11 -11 14 -20 10 -26c-5 -6 -14 -7 -28 -1c-3 2 -6 3 -11 5c-5 1 -9 2 -13 4c-15 4 -26 7 -32 11
c-7 4 -10 8 -10 13z" />
    <glyph glyph-name="Uacute" unicode="&#xda;" horiz-adv-x="643" 
d="M96 -173c-63 10 -92 79 -92 182c0 153 66 383 187 607c76 141 123 203 153 203c3 0 6 -1 9 -2c9 -3 13 -9 13 -18c0 -6 -2 -13 -6 -22c-4 -7 -8 -17 -9 -21c-4 -10 -8 -16 -12 -16c-2 0 -4 2 -6 4c-1 1 -1 2 -2 2c-2 0 -5 -6 -20 -33c-141 -237 -250 -572 -250 -741
c0 -30 4 -54 11 -72c8 -22 24 -33 45 -33c72 0 207 122 356 329c49 69 53 75 61 98c63 177 165 376 228 441c9 10 17 14 24 14c10 0 16 -8 16 -23c0 -6 -1 -13 -3 -21c-22 -70 -104 -225 -200 -376c-17 -27 -16 -25 -30 -66c-40 -121 -59 -205 -59 -266c0 -6 0 -12 1 -18
c0 -21 1 -28 6 -28c2 0 5 2 11 5c7 4 12 6 16 6s6 -2 6 -6s-1 -9 -4 -16c-8 -16 -22 -25 -35 -25c-11 0 -21 6 -28 19c-8 14 -11 39 -11 70c0 41 6 93 19 145c4 20 6 26 6 27h-1c-1 -1 -11 -14 -22 -29c-149 -203 -283 -321 -366 -321c-4 0 -8 1 -12 1zM656 480
c40 67 94 173 105 203c0 2 1 4 1 4c-1 0 -2 -2 -6 -8c-27 -41 -69 -121 -102 -195c-6 -13 -9 -19 -9 -21c0 0 4 6 11 17zM592 882c10 8 22 13 34 15s22 1 30 -2c9 -3 12 -9 10 -17c0 -3 -1 -5 -2 -6c-2 -2 -4 -3 -7 -5c-3 -1 -8 -2 -14 -4c-4 -1 -8 -2 -14 -4l-15 -6
c-9 -4 -16 -7 -21 -8c-5 -2 -8 -3 -10 -2c-3 0 -4 0 -6 2c-9 9 -4 21 15 37z" />
    <glyph glyph-name="Ucircumflex" unicode="&#xdb;" horiz-adv-x="643" 
d="M96 -173c-63 10 -92 79 -92 182c0 153 66 383 187 607c76 141 123 203 153 203c3 0 6 -1 9 -2c9 -3 13 -9 13 -18c0 -6 -2 -13 -6 -22c-4 -7 -8 -17 -9 -21c-4 -10 -8 -16 -12 -16c-2 0 -4 2 -6 4c-1 1 -1 2 -2 2c-2 0 -5 -6 -20 -33c-141 -237 -250 -572 -250 -741
c0 -30 4 -54 11 -72c8 -22 24 -33 45 -33c72 0 207 122 356 329c49 69 53 75 61 98c63 177 165 376 228 441c9 10 17 14 24 14c10 0 16 -8 16 -23c0 -6 -1 -13 -3 -21c-22 -70 -104 -225 -200 -376c-17 -27 -16 -25 -30 -66c-40 -121 -59 -205 -59 -266c0 -6 0 -12 1 -18
c0 -21 1 -28 6 -28c2 0 5 2 11 5c7 4 12 6 16 6s6 -2 6 -6s-1 -9 -4 -16c-8 -16 -22 -25 -35 -25c-11 0 -21 6 -28 19c-8 14 -11 39 -11 70c0 41 6 93 19 145c4 20 6 26 6 27h-1c-1 -1 -11 -14 -22 -29c-149 -203 -283 -321 -366 -321c-4 0 -8 1 -12 1zM656 480
c40 67 94 173 105 203c0 2 1 4 1 4c-1 0 -2 -2 -6 -8c-27 -41 -69 -121 -102 -195c-6 -13 -9 -19 -9 -21c0 0 4 6 11 17zM584 891c21 19 36 21 45 6c4 -5 7 -12 10 -21c2 -10 4 -18 4 -26c1 -9 0 -14 -2 -17c-13 -10 -25 -4 -39 19c-1 3 -2 5 -3 5s-3 -1 -6 -3
c-11 -6 -21 -11 -29 -13c-9 -3 -15 -3 -18 0c-10 6 -6 15 12 28c4 3 8 7 13 11s9 8 13 11z" />
    <glyph glyph-name="Udieresis" unicode="&#xdc;" horiz-adv-x="643" 
d="M96 -173c-63 10 -92 79 -92 182c0 153 66 383 187 607c76 141 123 203 153 203c3 0 6 -1 9 -2c9 -3 13 -9 13 -18c0 -6 -2 -13 -6 -22c-4 -7 -8 -17 -9 -21c-4 -10 -8 -16 -12 -16c-2 0 -4 2 -6 4c-1 1 -1 2 -2 2c-2 0 -5 -6 -20 -33c-141 -237 -250 -572 -250 -741
c0 -30 4 -54 11 -72c8 -22 24 -33 45 -33c72 0 207 122 356 329c49 69 53 75 61 98c63 177 165 376 228 441c9 10 17 14 24 14c10 0 16 -8 16 -23c0 -6 -1 -13 -3 -21c-22 -70 -104 -225 -200 -376c-17 -27 -16 -25 -30 -66c-40 -121 -59 -205 -59 -266c0 -6 0 -12 1 -18
c0 -21 1 -28 6 -28c2 0 5 2 11 5c7 4 12 6 16 6s6 -2 6 -6s-1 -9 -4 -16c-8 -16 -22 -25 -35 -25c-11 0 -21 6 -28 19c-8 14 -11 39 -11 70c0 41 6 93 19 145c4 20 6 26 6 27h-1c-1 -1 -11 -14 -22 -29c-149 -203 -283 -321 -366 -321c-4 0 -8 1 -12 1zM656 480
c40 67 94 173 105 203c0 2 1 4 1 4c-1 0 -2 -2 -6 -8c-27 -41 -69 -121 -102 -195c-6 -13 -9 -19 -9 -21c0 0 4 6 11 17zM559 894c8 6 15 8 23 5c8 -2 14 -8 17 -17c1 -10 -1 -18 -8 -25c-6 -6 -14 -8 -23 -6c-9 3 -14 9 -16 18c-2 10 0 18 7 25zM627 871c10 8 19 11 28 9
c10 -2 15 -8 16 -19c-1 -8 -4 -15 -10 -20c-7 -5 -14 -7 -22 -5c-8 3 -14 7 -16 15c-3 7 -1 14 4 20z" />
    <glyph glyph-name="Yacute" unicode="&#xdd;" horiz-adv-x="605" 
d="M141 -151c-18 7 -26 20 -26 37c0 76 149 227 313 308c30 16 26 10 73 104c92 184 151 358 151 442c0 20 -3 35 -10 43c-4 5 -9 7 -16 7c-49 0 -170 -123 -316 -320c-150 -202 -197 -254 -239 -254c-6 0 -12 1 -17 2c-38 12 -54 59 -54 121c0 156 100 406 209 427
c5 1 10 2 15 2c25 0 41 -15 41 -38c0 -6 -1 -12 -3 -19c-5 -12 -13 -18 -20 -18s-13 5 -13 16l1 8c0 2 -1 3 -3 3c-10 0 -48 -43 -71 -86c-50 -86 -90 -237 -90 -319c0 -15 1 -27 4 -37c1 -6 4 -8 9 -8c22 0 78 60 177 189c54 70 58 75 81 104c139 176 235 262 294 262
c16 0 28 -6 39 -18c13 -15 20 -42 20 -77c0 -97 -52 -260 -157 -470c-8 -16 -17 -24 -17 -26c0 -1 0 -2 1 -2s5 2 11 4c50 20 88 29 114 29c13 0 23 -3 29 -9c2 -2 3 -4 3 -5c0 -5 -8 -8 -26 -10c-33 -4 -81 -18 -137 -41c-18 -8 -18 -8 -25 -20
c-51 -108 -132 -211 -218 -279c-45 -34 -87 -54 -114 -54c-5 0 -9 1 -13 2zM160 -118c61 17 176 138 253 257c9 15 13 21 13 23h-1l-4 -2c-126 -73 -261 -205 -275 -267l-1 -4c0 -6 2 -8 7 -8c2 0 4 0 8 1zM437 882c10 8 21 13 33 15c13 2 23 1 31 -2c9 -3 12 -9 10 -17
c0 -3 -1 -5 -3 -6c-1 -2 -3 -3 -6 -5c-3 -1 -8 -2 -14 -4c-4 -1 -8 -2 -14 -4l-15 -6c-9 -4 -16 -7 -21 -8c-5 -2 -8 -3 -11 -2c-2 0 -4 0 -5 2c-9 9 -4 21 15 37z" />
    <glyph glyph-name="Thorn" unicode="&#xde;" horiz-adv-x="682" 
d="M696 599c15 -64 1 -135 -43 -212s-108 -148 -190 -214s-172 -113 -271 -143l-37 -11l-4 -13c-1 -4 -3 -11 -5 -22c-3 -11 -5 -23 -8 -35c-7 -30 -13 -48 -18 -56s-11 -8 -18 0c-11 7 -12 36 -1 89c1 7 2 12 3 16c1 3 1 6 1 8c0 1 0 2 -1 2c0 0 -2 0 -6 -1
c-3 0 -8 -1 -12 -1c-50 -8 -88 -7 -114 2c-27 9 -38 25 -34 48c5 25 14 27 27 7c3 -4 5 -7 6 -9c2 -2 4 -3 6 -4c10 -3 25 -4 48 -3c22 1 47 5 74 11l18 4l6 24c49 205 100 374 155 508l2 4l-5 -2c-21 -8 -47 -19 -77 -35c-31 -16 -55 -31 -75 -44c-12 -9 -17 -13 -17 -15
c0 -1 7 0 20 2c6 1 10 2 13 2c3 1 5 1 6 0s2 -1 3 -3c5 -6 2 -12 -8 -18c-9 -6 -21 -10 -35 -12s-26 0 -34 5c-18 14 -12 34 16 61c17 14 43 32 79 52s72 38 110 54c7 3 13 5 18 7c5 3 8 4 8 4c1 0 2 3 4 7c2 5 5 11 8 18c22 52 39 85 52 102c12 16 23 19 33 8
c3 -3 5 -8 5 -14c1 -6 0 -12 -3 -17c-2 -6 -5 -9 -8 -9c-1 0 -2 0 -3 -1c-1 0 -2 -1 -3 -3s-2 -5 -4 -9c-2 -5 -5 -10 -8 -18c-5 -12 -10 -22 -13 -31c-3 -8 -5 -12 -5 -13c1 0 3 0 8 1c4 2 10 3 16 5c85 23 155 27 210 13c55 -15 90 -47 105 -96zM638 485
c38 117 -10 172 -142 166c-20 -1 -42 -4 -67 -8c-24 -5 -46 -10 -64 -15c-19 -6 -29 -10 -32 -14c-2 -5 -7 -19 -15 -43s-17 -49 -26 -77c-10 -28 -18 -52 -24 -70c-30 -92 -57 -185 -82 -279v-2c-4 -14 -7 -27 -10 -38s-5 -18 -6 -20v-2c-1 -2 -1 -4 -1 -5s1 -1 3 -1
c2 1 5 2 10 3c0 1 1 1 2 1c99 36 192 92 280 170c87 77 145 155 174 234z" />
    <glyph glyph-name="germandbls" unicode="&#xdf;" horiz-adv-x="489" 
d="M317 465c48 -22 79 -55 91 -101c13 -46 11 -96 -6 -149s-46 -102 -88 -146c-41 -43 -92 -74 -153 -91c-85 -22 -147 -10 -184 34l-8 9l-8 -16c-28 -55 -58 -78 -92 -68c-13 5 -19 12 -19 20s6 12 18 12c30 2 60 55 90 162c1 4 2 9 4 14c2 6 3 11 4 15s3 9 4 15
c1 5 3 10 4 14v2c1 4 2 9 3 14c2 5 3 9 4 13s2 10 4 19c2 8 4 17 6 26c2 8 4 17 6 26s4 15 5 20s2 9 3 13c1 5 2 8 2 10c1 2 1 4 2 8s2 9 3 13c36 154 79 266 130 338c30 45 60 75 87 88c28 13 51 8 68 -15c20 -31 19 -75 -2 -131c-21 -55 -58 -110 -110 -162
c-5 -5 -4 -6 3 -3c20 6 42 9 65 9c24 -1 45 -5 64 -12zM135 576c-6 -12 -12 -28 -20 -47c-7 -20 -14 -38 -20 -55c-5 -17 -9 -28 -10 -34c-1 -2 6 2 19 14c79 71 130 144 151 218c5 20 7 37 6 52c-1 14 -4 21 -10 20c-14 -6 -32 -25 -54 -56s-43 -69 -62 -112zM308 138
c46 69 66 133 61 189c-6 57 -35 95 -89 113c-24 6 -51 7 -83 1c-31 -7 -59 -18 -85 -34c-4 -2 -8 -5 -13 -7c-4 -3 -7 -5 -10 -6c-2 -1 -5 -2 -8 -4c-2 -1 -4 -2 -6 -4l-6 -4l-5 -22c-4 -14 -8 -30 -12 -48c-5 -18 -8 -34 -12 -48c-3 -14 -5 -21 -5 -22c1 0 2 1 4 2
c1 1 4 2 6 3c37 20 68 25 95 16s40 -30 41 -62c-2 -24 -13 -48 -34 -73c-20 -25 -43 -44 -66 -56c-24 -13 -41 -12 -52 1c-4 4 -4 9 -2 13c3 4 10 11 21 19c38 31 63 59 74 85c11 27 4 40 -21 41c-17 -1 -33 -7 -50 -17s-27 -20 -31 -30c-6 -25 -13 -50 -20 -73
c-6 -23 -12 -40 -16 -50c-2 -9 1 -20 11 -32s22 -21 36 -27c8 -3 17 -5 29 -6s23 -1 34 0c85 11 157 58 214 142z" />
    <glyph glyph-name="agrave" unicode="&#xe0;" horiz-adv-x="354" 
d="M135 334c28 0 51 -17 63 -49c0 -1 1 -2 1 -2c1 0 2 2 5 5c17 21 31 32 41 32c6 0 10 -3 13 -9c2 -3 2 -5 2 -9c0 -7 -5 -16 -20 -43c-42 -75 -68 -150 -68 -189c0 -15 4 -25 12 -27c2 -1 5 -1 8 -1c28 0 74 40 149 131c14 17 24 25 30 25c3 0 5 -3 5 -10
c0 -26 -109 -144 -154 -166c-14 -7 -27 -11 -38 -11c-34 0 -55 30 -55 80c0 11 1 23 3 36v2c-1 0 -5 -6 -16 -21c-46 -66 -83 -99 -110 -99c-3 0 -5 0 -8 1c-26 7 -38 34 -38 71c0 65 36 157 96 214c27 26 55 39 79 39zM142 266h-1c-42 0 -124 -121 -129 -197
c-1 -5 -1 -9 -1 -12c0 -4 1 -6 3 -6c1 0 4 1 7 3c28 14 62 54 120 141c18 27 26 41 26 50c0 8 -6 13 -17 19c-3 1 -5 1 -8 2zM131 414c0 9 5 15 14 17c10 2 22 1 35 -3c14 -4 25 -10 36 -20c10 -11 13 -20 9 -26c-4 -7 -13 -7 -27 -1c-3 1 -7 3 -12 4c-4 2 -9 3 -13 4
c-15 4 -26 8 -32 12c-6 3 -9 8 -10 13z" />
    <glyph glyph-name="aacute" unicode="&#xe1;" horiz-adv-x="354" 
d="M135 334c28 0 51 -17 63 -49c0 -1 1 -2 1 -2c1 0 2 2 5 5c17 21 31 32 41 32c6 0 10 -3 13 -9c2 -3 2 -5 2 -9c0 -7 -5 -16 -20 -43c-42 -75 -68 -150 -68 -189c0 -15 4 -25 12 -27c2 -1 5 -1 8 -1c28 0 74 40 149 131c14 17 24 25 30 25c3 0 5 -3 5 -10
c0 -26 -109 -144 -154 -166c-14 -7 -27 -11 -38 -11c-34 0 -55 30 -55 80c0 11 1 23 3 36v2c-1 0 -5 -6 -16 -21c-46 -66 -83 -99 -110 -99c-3 0 -5 0 -8 1c-26 7 -38 34 -38 71c0 65 36 157 96 214c27 26 55 39 79 39zM142 266h-1c-42 0 -124 -121 -129 -197
c-1 -5 -1 -9 -1 -12c0 -4 1 -6 3 -6c1 0 4 1 7 3c28 14 62 54 120 141c18 27 26 41 26 50c0 8 -6 13 -17 19c-3 1 -5 1 -8 2zM190 418c10 7 22 12 34 14s22 2 30 -1c9 -3 12 -9 10 -17c0 -3 -1 -5 -2 -7c-2 -1 -4 -3 -7 -4s-8 -3 -14 -4c-4 -1 -8 -2 -14 -4l-15 -6
c-9 -4 -16 -7 -21 -9c-5 -1 -8 -2 -10 -2c-3 0 -4 1 -6 3c-9 9 -4 21 15 37z" />
    <glyph glyph-name="acircumflex" unicode="&#xe2;" horiz-adv-x="354" 
d="M135 334c28 0 51 -17 63 -49c0 -1 1 -2 1 -2c1 0 2 2 5 5c17 21 31 32 41 32c6 0 10 -3 13 -9c2 -3 2 -5 2 -9c0 -7 -5 -16 -20 -43c-42 -75 -68 -150 -68 -189c0 -15 4 -25 12 -27c2 -1 5 -1 8 -1c28 0 74 40 149 131c14 17 24 25 30 25c3 0 5 -3 5 -10
c0 -26 -109 -144 -154 -166c-14 -7 -27 -11 -38 -11c-34 0 -55 30 -55 80c0 11 1 23 3 36v2c-1 0 -5 -6 -16 -21c-46 -66 -83 -99 -110 -99c-3 0 -5 0 -8 1c-26 7 -38 34 -38 71c0 65 36 157 96 214c27 26 55 39 79 39zM142 266h-1c-42 0 -124 -121 -129 -197
c-1 -5 -1 -9 -1 -12c0 -4 1 -6 3 -6c1 0 4 1 7 3c28 14 62 54 120 141c18 27 26 41 26 50c0 8 -6 13 -17 19c-3 1 -5 1 -8 2zM211 428c24 15 39 14 46 -3c2 -6 4 -13 5 -23c1 -9 0 -18 -1 -26s-3 -13 -5 -16c-14 -7 -26 1 -34 26c-1 3 -2 5 -3 5c-1 1 -3 0 -6 -1
c-12 -4 -22 -7 -31 -8c-9 0 -15 1 -18 4c-8 7 -2 16 18 25c4 2 8 5 14 8s11 6 15 9z" />
    <glyph glyph-name="atilde" unicode="&#xe3;" horiz-adv-x="354" 
d="M135 334c28 0 51 -17 63 -49c0 -1 1 -2 1 -2c1 0 2 2 5 5c17 21 31 32 41 32c6 0 10 -3 13 -9c2 -3 2 -5 2 -9c0 -7 -5 -16 -20 -43c-42 -75 -68 -150 -68 -189c0 -15 4 -25 12 -27c2 -1 5 -1 8 -1c28 0 74 40 149 131c14 17 24 25 30 25c3 0 5 -3 5 -10
c0 -26 -109 -144 -154 -166c-14 -7 -27 -11 -38 -11c-34 0 -55 30 -55 80c0 11 1 23 3 36v2c-1 0 -5 -6 -16 -21c-46 -66 -83 -99 -110 -99c-3 0 -5 0 -8 1c-26 7 -38 34 -38 71c0 65 36 157 96 214c27 26 55 39 79 39zM142 266h-1c-42 0 -124 -121 -129 -197
c-1 -5 -1 -9 -1 -12c0 -4 1 -6 3 -6c1 0 4 1 7 3c28 14 62 54 120 141c18 27 26 41 26 50c0 8 -6 13 -17 19c-3 1 -5 1 -8 2zM296 429c8 -3 11 -8 9 -15c-2 -8 -7 -16 -14 -23c-8 -8 -17 -13 -27 -15c-21 -4 -38 3 -51 21l-7 7c-2 2 -4 2 -7 2c-3 -1 -7 -3 -12 -5
c-7 -4 -12 -6 -16 -6c-3 0 -6 3 -8 6c-3 7 -1 15 8 24c8 9 18 14 29 17c15 4 29 -2 42 -17c10 -13 21 -14 35 -5c4 3 7 5 9 7c3 1 4 2 6 2h4z" />
    <glyph glyph-name="adieresis" unicode="&#xe4;" horiz-adv-x="354" 
d="M135 334c28 0 51 -17 63 -49c0 -1 1 -2 1 -2c1 0 2 2 5 5c17 21 31 32 41 32c6 0 10 -3 13 -9c2 -3 2 -5 2 -9c0 -7 -5 -16 -20 -43c-42 -75 -68 -150 -68 -189c0 -15 4 -25 12 -27c2 -1 5 -1 8 -1c28 0 74 40 149 131c14 17 24 25 30 25c3 0 5 -3 5 -10
c0 -26 -109 -144 -154 -166c-14 -7 -27 -11 -38 -11c-34 0 -55 30 -55 80c0 11 1 23 3 36v2c-1 0 -5 -6 -16 -21c-46 -66 -83 -99 -110 -99c-3 0 -5 0 -8 1c-26 7 -38 34 -38 71c0 65 36 157 96 214c27 26 55 39 79 39zM142 266h-1c-42 0 -124 -121 -129 -197
c-1 -5 -1 -9 -1 -12c0 -4 1 -6 3 -6c1 0 4 1 7 3c28 14 62 54 120 141c18 27 26 41 26 50c0 8 -6 13 -17 19c-3 1 -5 1 -8 2zM169 429c8 7 16 8 24 6c8 -3 13 -8 16 -18c2 -9 -1 -17 -7 -24c-7 -7 -14 -9 -24 -7c-9 3 -14 10 -16 19s1 17 7 24zM238 407c9 8 18 11 28 9
c9 -2 14 -9 15 -19c0 -8 -4 -15 -10 -20c-7 -5 -14 -7 -22 -5s-13 7 -16 14c-2 8 -1 14 5 21z" />
    <glyph glyph-name="aring" unicode="&#xe5;" horiz-adv-x="354" 
d="M135 334c28 0 51 -17 63 -49c0 -1 1 -2 1 -2c1 0 2 2 5 5c17 21 31 32 41 32c6 0 10 -3 13 -9c2 -3 2 -5 2 -9c0 -7 -5 -16 -20 -43c-42 -75 -68 -150 -68 -189c0 -15 4 -25 12 -27c2 -1 5 -1 8 -1c28 0 74 40 149 131c14 17 24 25 30 25c3 0 5 -3 5 -10
c0 -26 -109 -144 -154 -166c-14 -7 -27 -11 -38 -11c-34 0 -55 30 -55 80c0 11 1 23 3 36v2c-1 0 -5 -6 -16 -21c-46 -66 -83 -99 -110 -99c-3 0 -5 0 -8 1c-26 7 -38 34 -38 71c0 65 36 157 96 214c27 26 55 39 79 39zM142 266h-1c-42 0 -124 -121 -129 -197
c-1 -5 -1 -9 -1 -12c0 -4 1 -6 3 -6c1 0 4 1 7 3c28 14 62 54 120 141c18 27 26 41 26 50c0 8 -6 13 -17 19c-3 1 -5 1 -8 2zM221 455c19 -3 26 -17 20 -42c-5 -21 -15 -36 -29 -47c-14 -12 -28 -14 -41 -8c-12 8 -16 21 -14 37c3 16 11 30 23 43s25 19 41 17zM202 393
c3 3 6 7 9 12s6 9 7 14c2 4 2 7 1 7c-2 0 -5 -1 -8 -5c-4 -4 -7 -8 -10 -13s-5 -10 -6 -13c-2 -8 0 -8 7 -2z" />
    <glyph glyph-name="ae" unicode="&#xe6;" horiz-adv-x="354" 
d="M142 266h-1c-14 0 -31 -11 -50 -33c-20 -23 -37 -49 -52 -79c-15 -31 -24 -59 -27 -85c-1 -5 -1 -9 -1 -12c0 -4 1 -6 3 -6c1 0 4 1 7 3c25 11 65 58 120 141c17 24 26 41 26 50c0 8 -6 14 -17 19c-1 1 -3 1 -4 1s-3 0 -4 1zM357 265c-1 0 -4 -2 -9 -6
c-5 -5 -9 -10 -14 -16s-10 -12 -13 -17c-4 -5 -6 -9 -6 -10s1 -2 4 -2c2 0 5 1 9 2c3 2 8 6 13 12s9 13 13 20c3 7 5 12 5 15c0 1 -1 2 -2 2zM246 40c-7 -5 -15 -11 -24 -18c-14 -7 -27 -11 -38 -11c-34 0 -52 27 -55 80c0 11 1 23 3 36v2c-1 0 -2 -2 -4 -5
c-3 -3 -7 -9 -12 -16c-46 -66 -83 -99 -110 -99c-3 0 -5 0 -8 1c-13 3 -23 12 -29 25s-9 28 -9 46c0 33 9 69 26 110c17 40 40 75 70 104c29 26 55 39 79 39c28 0 49 -16 63 -49c0 -1 0 -2 1 -2s2 1 3 3l2 2c17 21 31 32 41 32c5 0 10 -3 13 -9c1 -3 2 -6 2 -9s-1 -8 -4 -14
c-3 -7 -9 -16 -16 -29c-45 -87 -68 -150 -68 -189c0 -15 4 -24 12 -27c3 -1 6 -1 11 -1c8 1 15 4 21 8c7 4 12 8 17 13c-7 17 -10 35 -10 56c0 29 7 60 21 92c13 32 34 61 61 87c23 20 44 30 62 30c31 -2 46 -20 46 -55c0 -9 -1 -18 -3 -27c-7 -25 -18 -46 -34 -61
c-17 -16 -34 -24 -52 -24c-9 0 -17 2 -25 6c-3 1 -5 2 -6 2s-3 -1 -4 -4s-3 -8 -5 -15c-7 -20 -10 -37 -10 -52c0 -38 18 -58 54 -60c18 0 40 7 66 21c21 13 42 30 64 51c21 21 40 43 56 65c7 9 12 15 16 20c3 5 6 8 9 10c2 1 4 2 6 2c6 0 9 -3 9 -8c0 -9 -6 -22 -18 -39
c-13 -18 -28 -37 -47 -56c-65 -66 -122 -99 -171 -99c-7 0 -14 1 -20 2c-23 5 -40 16 -52 33z" />
    <glyph glyph-name="ccedilla" unicode="&#xe7;" horiz-adv-x="286" 
d="M52 -2l-2 -4c-5 -11 -8 -19 -9 -23c-1 -2 -2 -3 -2 -5l-1 -1v-1c1 0 3 1 6 2c12 5 22 8 30 8c11 0 18 -6 19 -17c0 -11 -5 -26 -14 -46c-9 -13 -19 -23 -30 -30s-20 -10 -29 -10h-6c-7 2 -11 6 -13 11c-3 5 -3 9 -2 14c1 4 2 7 5 9c2 0 4 -2 5 -6c1 -5 4 -7 9 -7
c7 0 15 4 24 12c9 7 16 17 23 28c4 8 6 14 6 18c0 5 -2 7 -7 7c-6 0 -16 -6 -29 -18c-7 -5 -12 -7 -16 -7c-5 0 -7 3 -8 10v1c0 3 2 9 5 17c3 7 6 15 10 24c2 6 5 12 7 18c-21 6 -37 18 -47 38c-11 19 -16 42 -16 68c0 32 8 66 23 102c15 35 36 68 65 97c27 23 51 34 73 34
h2c13 0 23 -3 32 -10c8 -7 12 -18 12 -31c0 -11 -3 -20 -9 -27s-12 -11 -19 -11c-6 0 -11 4 -14 13c-2 4 -5 6 -8 6c-11 0 -27 -14 -48 -42c-21 -29 -38 -59 -50 -92c-9 -27 -14 -50 -14 -68c0 -35 15 -52 44 -52c23 0 54 13 91 38s78 63 121 112c15 18 25 27 31 27
c3 0 5 -1 6 -4c1 -2 1 -4 1 -6c0 -14 -23 -44 -69 -89c-72 -71 -133 -107 -182 -107h-6z" />
    <glyph glyph-name="egrave" unicode="&#xe8;" horiz-adv-x="274" 
d="M128 328c27 -1 46 -21 46 -55c0 -9 -1 -17 -3 -27c-12 -50 -49 -85 -86 -85c-8 0 -17 2 -25 6c-2 1 -4 2 -6 2c-3 0 -5 -4 -9 -19c-6 -20 -9 -37 -9 -52c0 -38 20 -60 53 -60c18 0 41 7 66 21c41 24 89 73 120 116c20 27 25 32 31 32s9 -3 9 -8c0 -17 -28 -57 -65 -95
c-62 -62 -122 -99 -171 -99c-7 0 -14 1 -20 2c-50 11 -75 57 -75 112c0 59 28 128 82 179c22 21 44 30 62 30zM118 265c-6 0 -42 -43 -42 -49c0 -1 2 -2 4 -2s6 1 9 2c10 4 31 37 31 47c0 1 -1 2 -2 2zM110 414c-1 9 4 15 14 17s21 1 35 -3c13 -4 25 -10 35 -20
c11 -11 14 -20 10 -26c-5 -7 -14 -7 -28 -1c-3 1 -6 3 -11 4c-5 2 -9 3 -13 4c-15 4 -26 8 -32 12c-7 3 -10 8 -10 13z" />
    <glyph glyph-name="eacute" unicode="&#xe9;" horiz-adv-x="274" 
d="M128 328c27 -1 46 -21 46 -55c0 -9 -1 -17 -3 -27c-12 -50 -49 -85 -86 -85c-8 0 -17 2 -25 6c-2 1 -4 2 -6 2c-3 0 -5 -4 -9 -19c-6 -20 -9 -37 -9 -52c0 -38 20 -60 53 -60c18 0 41 7 66 21c41 24 89 73 120 116c20 27 25 32 31 32s9 -3 9 -8c0 -17 -28 -57 -65 -95
c-62 -62 -122 -99 -171 -99c-7 0 -14 1 -20 2c-50 11 -75 57 -75 112c0 59 28 128 82 179c22 21 44 30 62 30zM118 265c-6 0 -42 -43 -42 -49c0 -1 2 -2 4 -2s6 1 9 2c10 4 31 37 31 47c0 1 -1 2 -2 2zM179 418c11 7 22 12 34 14s22 2 30 -1c9 -3 12 -9 10 -17
c0 -3 -1 -5 -2 -7c-2 -1 -4 -3 -7 -4s-8 -3 -14 -4c-4 -1 -8 -2 -13 -4c-6 -2 -11 -4 -16 -6c-9 -4 -16 -7 -21 -9c-5 -1 -8 -2 -10 -2s-4 1 -6 3c-9 9 -4 21 15 37z" />
    <glyph glyph-name="ecircumflex" unicode="&#xea;" horiz-adv-x="274" 
d="M128 328c27 -1 46 -21 46 -55c0 -9 -1 -17 -3 -27c-12 -50 -49 -85 -86 -85c-8 0 -17 2 -25 6c-2 1 -4 2 -6 2c-3 0 -5 -4 -9 -19c-6 -20 -9 -37 -9 -52c0 -38 20 -60 53 -60c18 0 41 7 66 21c41 24 89 73 120 116c20 27 25 32 31 32s9 -3 9 -8c0 -17 -28 -57 -65 -95
c-62 -62 -122 -99 -171 -99c-7 0 -14 1 -20 2c-50 11 -75 57 -75 112c0 59 28 128 82 179c22 21 44 30 62 30zM118 265c-6 0 -42 -43 -42 -49c0 -1 2 -2 4 -2s6 1 9 2c10 4 31 37 31 47c0 1 -1 2 -2 2zM172 428c23 15 38 15 45 -2c3 -6 5 -13 6 -23c1 -9 1 -18 0 -26
s-3 -13 -5 -16c-14 -8 -26 1 -35 25c-1 3 -2 5 -3 5c-1 1 -3 0 -6 -1c-12 -5 -22 -7 -31 -8c-8 -1 -14 0 -17 3c-9 7 -3 16 17 26c3 2 8 5 14 8z" />
    <glyph glyph-name="edieresis" unicode="&#xeb;" horiz-adv-x="274" 
d="M128 328c27 -1 46 -21 46 -55c0 -9 -1 -17 -3 -27c-12 -50 -49 -85 -86 -85c-8 0 -17 2 -25 6c-2 1 -4 2 -6 2c-3 0 -5 -4 -9 -19c-6 -20 -9 -37 -9 -52c0 -38 20 -60 53 -60c18 0 41 7 66 21c41 24 89 73 120 116c20 27 25 32 31 32s9 -3 9 -8c0 -17 -28 -57 -65 -95
c-62 -62 -122 -99 -171 -99c-7 0 -14 1 -20 2c-50 11 -75 57 -75 112c0 59 28 128 82 179c22 21 44 30 62 30zM118 265c-6 0 -42 -43 -42 -49c0 -1 2 -2 4 -2s6 1 9 2c10 4 31 37 31 47c0 1 -1 2 -2 2zM120 429c7 7 15 8 23 6c8 -3 14 -8 16 -18c2 -9 0 -17 -7 -24
c-6 -7 -14 -9 -23 -7c-9 3 -15 10 -17 19c-1 9 1 17 8 24zM188 407c9 8 19 11 28 9c10 -2 15 -9 15 -19c0 -8 -3 -15 -10 -20c-6 -5 -13 -7 -21 -5c-9 2 -14 7 -16 14c-3 8 -1 14 4 21z" />
    <glyph glyph-name="igrave" unicode="&#xec;" horiz-adv-x="203" 
d="M90 326c12 0 23 -10 23 -25c0 -7 -2 -16 -8 -25c-43 -70 -69 -147 -69 -190c0 -23 7 -38 23 -38c2 0 4 1 6 1c30 6 62 36 130 121c21 27 29 35 35 35c1 0 3 -1 5 -2s3 -3 3 -6c0 -14 -23 -44 -71 -99c-46 -54 -82 -78 -113 -78c-6 0 -11 1 -16 2c-33 10 -50 52 -50 104
s17 114 51 164c16 25 37 36 51 36zM43 414c0 9 4 15 14 17s22 1 35 -3c14 -4 25 -10 36 -20c10 -11 13 -20 9 -26c-4 -7 -13 -7 -28 -1c-2 1 -6 3 -11 4c-4 2 -9 3 -13 4c-15 4 -26 8 -32 12c-6 3 -10 8 -10 13z" />
    <glyph glyph-name="iacute" unicode="&#xed;" horiz-adv-x="203" 
d="M90 326c12 0 23 -10 23 -25c0 -7 -2 -16 -8 -25c-43 -70 -69 -147 -69 -190c0 -23 7 -38 23 -38c2 0 4 1 6 1c30 6 62 36 130 121c21 27 29 35 35 35c1 0 3 -1 5 -2s3 -3 3 -6c0 -14 -23 -44 -71 -99c-46 -54 -82 -78 -113 -78c-6 0 -11 1 -16 2c-33 10 -50 52 -50 104
s17 114 51 164c16 25 37 36 51 36zM109 418c10 7 22 12 34 14s22 2 30 -1c9 -3 12 -9 10 -17c0 -3 -1 -5 -2 -7c-2 -1 -4 -3 -7 -4s-8 -3 -14 -4c-4 -1 -8 -2 -14 -4l-15 -6c-9 -4 -16 -7 -21 -9c-5 -1 -8 -2 -10 -2c-3 0 -4 1 -6 3c-9 9 -4 21 15 37z" />
    <glyph glyph-name="icircumflex" unicode="&#xee;" horiz-adv-x="203" 
d="M90 326c12 0 23 -10 23 -25c0 -7 -2 -16 -8 -25c-43 -70 -69 -147 -69 -190c0 -23 7 -38 23 -38c2 0 4 1 6 1c30 6 62 36 130 121c21 27 29 35 35 35c1 0 3 -1 5 -2s3 -3 3 -6c0 -14 -23 -44 -71 -99c-46 -54 -82 -78 -113 -78c-6 0 -11 1 -16 2c-33 10 -50 52 -50 104
s17 114 51 164c16 25 37 36 51 36zM112 428c24 15 39 14 46 -3c3 -5 4 -13 5 -22c1 -10 1 -18 0 -27c-1 -8 -3 -13 -5 -15c-14 -8 -26 0 -35 25c0 3 -1 5 -2 5c-1 1 -3 0 -7 -1c-11 -5 -22 -7 -30 -8c-9 -1 -15 0 -18 3c-8 8 -3 16 17 26c4 2 9 5 14 8c6 3 11 6 15 9z" />
    <glyph glyph-name="idieresis" unicode="&#xef;" horiz-adv-x="203" 
d="M90 326c12 0 23 -10 23 -25c0 -7 -2 -16 -8 -25c-43 -70 -69 -147 -69 -190c0 -23 7 -38 23 -38c2 0 4 1 6 1c30 6 62 36 130 121c21 27 29 35 35 35c1 0 3 -1 5 -2s3 -3 3 -6c0 -14 -23 -44 -71 -99c-46 -54 -82 -78 -113 -78c-6 0 -11 1 -16 2c-33 10 -50 52 -50 104
s17 114 51 164c16 25 37 36 51 36zM80 429c7 7 15 8 23 6c8 -3 13 -8 16 -18c2 -9 -1 -17 -7 -24s-14 -9 -23 -7c-9 3 -15 10 -17 19s1 17 8 24zM148 407c9 8 18 11 28 9c9 -2 14 -9 15 -19c0 -8 -4 -15 -10 -20s-13 -7 -21 -5c-9 2 -14 7 -17 14c-2 8 0 14 5 21z" />
    <glyph glyph-name="eth" unicode="&#xf0;" horiz-adv-x="404" 
d="M143 278c-18 0 -38 -16 -59 -49c-17 -27 -30 -56 -41 -87c-11 -32 -16 -57 -16 -75c0 -13 3 -20 9 -21c2 0 4 1 6 2c25 11 63 64 112 160l7 14c6 11 10 19 13 24c2 5 3 8 3 10c0 1 0 3 -1 4l-3 3l-3 3c-8 8 -17 12 -27 12zM280 485c28 58 59 112 92 161
c22 33 39 57 52 71c12 13 22 20 31 20c3 0 6 -1 9 -2c8 -6 12 -14 12 -24c0 -6 -1 -11 -4 -16s-8 -8 -13 -8h-2c-6 0 -18 -15 -36 -44c-18 -30 -38 -67 -60 -110c-8 -17 -17 -33 -25 -50c14 -1 27 -3 39 -6c24 -5 36 -12 36 -20c0 -3 -2 -6 -5 -9c-1 -1 -3 -2 -5 -3
s-5 -1 -9 -1c-6 0 -16 1 -30 2c-7 1 -18 1 -33 2h-9c-7 -15 -13 -29 -19 -44c-37 -87 -66 -170 -87 -249c-22 -79 -33 -139 -33 -180c0 -29 6 -44 19 -45c15 -1 39 18 70 57c31 38 73 102 127 191c13 23 23 35 30 35c2 0 4 -1 6 -3c2 -1 3 -4 3 -7c0 -7 -7 -22 -21 -44
c-101 -172 -173 -258 -218 -258c-5 0 -9 1 -13 2c-28 11 -42 46 -42 103c0 35 5 78 16 129c1 5 2 10 3 14s1 7 1 8c0 -1 -1 -3 -3 -7c-3 -5 -7 -12 -12 -20c-44 -83 -83 -124 -118 -124c-5 0 -10 1 -15 3c-13 5 -23 14 -29 29c-6 14 -9 31 -9 52c0 40 10 84 31 132
c21 47 48 82 81 104c17 10 34 15 51 15c25 0 45 -11 59 -34c2 -4 4 -6 5 -6s3 4 5 11c17 48 35 93 54 136h-19c-11 0 -20 0 -26 -1h-9c-19 0 -29 5 -30 14c0 7 10 13 31 18c24 3 48 5 71 6z" />
    <glyph glyph-name="ntilde" unicode="&#xf1;" horiz-adv-x="352" 
d="M253 434c8 -2 10 -7 9 -15c-2 -8 -7 -16 -14 -23c-8 -8 -17 -12 -27 -15c-22 -4 -39 3 -52 21c-3 4 -5 6 -7 8c-1 1 -4 2 -6 1c-3 -1 -7 -3 -12 -5c-7 -4 -13 -5 -16 -5c-4 0 -7 2 -9 6c-2 7 0 14 8 23s18 15 30 18c15 3 29 -3 42 -18c10 -13 21 -14 35 -4c4 3 7 5 9 6
s4 2 6 2h4zM89 349c9 -1 14 -5 14 -14c-1 -6 -3 -14 -9 -24c-13 -26 -45 -100 -45 -107c1 0 7 7 13 19c35 53 63 79 84 78c20 -1 33 -29 38 -84c5 -71 20 -101 55 -103c26 -1 65 11 111 87c12 20 18 24 23 24c3 0 5 -2 6 -4c2 -2 2 -4 2 -6c-1 -26 -77 -133 -145 -135h-9
c-44 2 -75 48 -85 141c-1 17 -4 32 -5 33c-8 1 -57 -59 -92 -113c-32 -49 -33 -50 -44 -103c-1 -9 -11 -16 -20 -15c-2 0 -4 0 -7 1c-9 5 -12 21 -11 42c5 134 73 292 126 283z" />
    <glyph glyph-name="ograve" unicode="&#xf2;" horiz-adv-x="264" 
d="M115 345h2c9 -1 16 -6 19 -16c3 -4 4 -6 5 -6l2 1c3 1 7 2 11 1c14 -1 30 -12 38 -29c9 -18 11 -40 9 -63c-8 -102 -107 -229 -187 -223c-5 1 -10 2 -15 4c-35 11 -49 49 -45 98c4 53 31 120 77 178c29 36 61 57 84 55zM127 299c-25 0 -103 -142 -108 -201
c-3 -27 9 -40 22 -41h7c56 15 116 119 121 184c3 27 -8 48 -25 53c-5 2 -12 2 -14 4c-1 1 -2 1 -3 1zM77 425c0 9 4 14 14 17c10 2 22 1 35 -3s25 -10 35 -20c11 -11 14 -20 10 -26c-4 -7 -14 -7 -28 -1c-3 1 -6 3 -11 4c-4 2 -9 3 -13 4c-15 4 -26 8 -32 12
c-6 3 -10 8 -10 13z" />
    <glyph glyph-name="oacute" unicode="&#xf3;" horiz-adv-x="264" 
d="M115 345h2c9 -1 16 -6 19 -16c3 -4 4 -6 5 -6l2 1c3 1 7 2 11 1c14 -1 30 -12 38 -29c9 -18 11 -40 9 -63c-8 -102 -107 -229 -187 -223c-5 1 -10 2 -15 4c-35 11 -49 49 -45 98c4 53 31 120 77 178c29 36 61 57 84 55zM127 299c-25 0 -103 -142 -108 -201
c-3 -27 9 -40 22 -41h7c56 15 116 119 121 184c3 27 -8 48 -25 53c-5 2 -12 2 -14 4c-1 1 -2 1 -3 1zM166 429c10 7 21 12 33 14s23 2 31 -1c8 -4 12 -9 10 -17c-1 -3 -1 -5 -3 -7c-1 -1 -3 -3 -6 -4c-4 -1 -8 -3 -15 -4c-3 -1 -7 -3 -13 -4l-15 -6c-10 -4 -17 -7 -21 -9
c-5 -1 -9 -2 -11 -2s-4 1 -5 2c-9 10 -4 22 15 38z" />
    <glyph glyph-name="ocircumflex" unicode="&#xf4;" horiz-adv-x="264" 
d="M115 345h2c9 -1 16 -6 19 -16c3 -4 4 -6 5 -6l2 1c3 1 7 2 11 1c14 -1 30 -12 38 -29c9 -18 11 -40 9 -63c-8 -102 -107 -229 -187 -223c-5 1 -10 2 -15 4c-35 11 -49 49 -45 98c4 53 31 120 77 178c29 36 61 57 84 55zM127 299c-25 0 -103 -142 -108 -201
c-3 -27 9 -40 22 -41h7c56 15 116 119 121 184c3 27 -8 48 -25 53c-5 2 -12 2 -14 4c-1 1 -2 1 -3 1zM172 439c24 15 39 15 46 -2c3 -6 5 -13 5 -23c1 -9 1 -18 1 -26c-1 -8 -3 -13 -6 -16c-13 -8 -25 1 -34 25c-1 3 -2 5 -3 5c-1 1 -3 0 -6 -1c-12 -5 -22 -8 -31 -9
s-15 0 -18 3c-8 8 -2 17 17 27c4 2 9 4 14 8c6 3 11 6 15 9z" />
    <glyph glyph-name="otilde" unicode="&#xf5;" horiz-adv-x="264" 
d="M115 345h2c9 -1 16 -6 19 -16c3 -4 4 -6 5 -6l2 1c3 1 7 2 11 1c14 -1 30 -12 38 -29c9 -18 11 -40 9 -63c-8 -102 -107 -229 -187 -223c-5 1 -10 2 -15 4c-35 11 -49 49 -45 98c4 53 31 120 77 178c29 36 61 57 84 55zM127 299c-25 0 -103 -142 -108 -201
c-3 -27 9 -40 22 -41h7c56 15 116 119 121 184c3 27 -8 48 -25 53c-5 2 -12 2 -14 4c-1 1 -2 1 -3 1zM258 439c8 -2 11 -7 9 -14c-2 -8 -6 -16 -14 -23c-8 -8 -16 -13 -27 -15c-21 -4 -38 3 -51 20c-3 4 -5 7 -7 8c-2 2 -4 2 -7 1c-2 0 -6 -2 -12 -5c-7 -3 -12 -5 -16 -5
c-3 0 -6 2 -8 6c-3 7 0 15 8 24s18 14 30 17c14 3 28 -2 41 -18c10 -12 22 -13 35 -4c4 3 7 5 10 7c2 1 4 2 5 2s3 0 4 -1z" />
    <glyph glyph-name="odieresis" unicode="&#xf6;" horiz-adv-x="264" 
d="M115 345h2c9 -1 16 -6 19 -16c3 -4 4 -6 5 -6l2 1c3 1 7 2 11 1c14 -1 30 -12 38 -29c9 -18 11 -40 9 -63c-8 -102 -107 -229 -187 -223c-5 1 -10 2 -15 4c-35 11 -49 49 -45 98c4 53 31 120 77 178c29 36 61 57 84 55zM127 299c-25 0 -103 -142 -108 -201
c-3 -27 9 -40 22 -41h7c56 15 116 119 121 184c3 27 -8 48 -25 53c-5 2 -12 2 -14 4c-1 1 -2 1 -3 1zM135 440c8 6 15 8 23 6c8 -3 14 -8 17 -18c1 -9 -1 -17 -8 -24c-6 -7 -14 -9 -23 -7c-9 3 -14 10 -16 19s0 17 7 24zM203 417c10 9 19 12 28 10c10 -2 15 -9 16 -19
c-1 -9 -4 -15 -10 -20c-7 -5 -14 -7 -22 -5s-14 7 -16 14c-2 8 -1 14 4 20z" />
    <glyph glyph-name="divide" unicode="&#xf7;" horiz-adv-x="349" 
d="M335 237c-14 2 -49 2 -82 2c-27 0 -52 0 -64 -1h-8c-20 0 -30 6 -30 14c0 7 10 15 31 18c26 4 54 6 80 6c66 0 122 -12 122 -28c0 -3 -2 -6 -6 -9c-3 -3 -6 -4 -13 -4c-6 0 -15 1 -30 2zM231 150c-10 5 -15 14 -15 23c0 8 3 15 10 21c5 4 10 6 15 6c13 0 25 -11 25 -25
c0 -4 -1 -8 -3 -12c-4 -8 -15 -14 -25 -14c-2 0 -5 1 -7 1zM273 310c-8 4 -12 11 -12 19c0 4 0 7 2 11c5 11 14 17 23 17c6 0 13 -3 18 -10c3 -4 5 -9 5 -13c0 -14 -12 -26 -26 -26c-3 0 -7 0 -10 2z" />
    <glyph glyph-name="oslash" unicode="&#xf8;" horiz-adv-x="264" 
d="M45 57h1c29 10 56 34 80 73c23 39 37 76 41 111c1 11 0 21 -3 29c-21 -35 -44 -74 -68 -117c-18 -31 -35 -63 -51 -96zM139 295l-5 1c-3 1 -5 1 -6 2c-1 0 -1 0 -1 1h-2c-9 -1 -22 -14 -38 -39c-17 -25 -32 -52 -46 -83s-22 -58 -24 -79c-1 -8 -1 -15 1 -20
c23 50 47 96 72 139c19 31 35 57 49 78zM-9 16c-30 15 -43 47 -39 96c5 57 30 116 77 178c31 37 59 56 84 55h2c9 -1 16 -6 19 -16c1 -2 2 -3 3 -4s1 -2 2 -2l2 1c3 1 7 2 11 1c2 0 5 -1 7 -1c18 24 30 41 39 50s15 14 20 14c1 0 3 0 5 -1c4 -2 6 -4 7 -7
c0 -3 -3 -10 -9 -19c-3 -4 -6 -9 -9 -14c-8 -13 -17 -27 -27 -43c2 -2 4 -5 5 -8c9 -19 12 -40 9 -63c-6 -54 -28 -105 -66 -152c-35 -43 -71 -66 -108 -70c-5 -11 -10 -22 -14 -33c-8 -21 -15 -35 -20 -43c-5 -9 -10 -13 -14 -13c-2 0 -4 1 -7 3c-2 2 -3 5 -4 10
c-2 10 7 37 25 81z" />
    <glyph glyph-name="ugrave" unicode="&#xf9;" horiz-adv-x="426" 
d="M280 341c4 0 6 0 9 -2c7 -3 10 -6 10 -13s-5 -20 -17 -42c-38 -75 -56 -132 -56 -168c0 -30 12 -46 34 -46c30 0 79 31 142 98c37 40 48 51 54 51c3 0 4 -1 6 -3c2 -1 2 -3 2 -6c0 -11 -18 -33 -67 -82c-58 -59 -96 -82 -134 -85h-7c-44 0 -73 38 -73 91c0 8 1 16 2 25
c1 2 1 3 1 4c-1 0 -4 -4 -11 -14c-61 -87 -101 -125 -134 -125c-3 0 -7 0 -10 1c-30 8 -45 40 -45 84c0 43 14 98 42 153c23 46 50 75 70 75c7 0 12 -3 17 -10c2 -4 4 -7 4 -10c0 -9 -7 -22 -28 -61c-35 -63 -57 -132 -57 -170c0 -9 2 -16 4 -21c2 -4 5 -5 9 -5
c13 0 35 15 57 40c28 33 98 137 120 179c21 40 39 62 55 62h1zM120 428c-1 9 4 15 14 17s21 1 35 -2c13 -4 25 -11 35 -21c11 -11 14 -20 10 -26c-5 -6 -14 -7 -28 -1c-3 1 -6 3 -11 4c-5 2 -9 3 -13 5c-15 3 -26 7 -32 11c-7 4 -10 8 -10 13z" />
    <glyph glyph-name="uacute" unicode="&#xfa;" horiz-adv-x="426" 
d="M280 341c4 0 6 0 9 -2c7 -3 10 -6 10 -13s-5 -20 -17 -42c-38 -75 -56 -132 -56 -168c0 -30 12 -46 34 -46c30 0 79 31 142 98c37 40 48 51 54 51c3 0 4 -1 6 -3c2 -1 2 -3 2 -6c0 -11 -18 -33 -67 -82c-58 -59 -96 -82 -134 -85h-7c-44 0 -73 38 -73 91c0 8 1 16 2 25
c1 2 1 3 1 4c-1 0 -4 -4 -11 -14c-61 -87 -101 -125 -134 -125c-3 0 -7 0 -10 1c-30 8 -45 40 -45 84c0 43 14 98 42 153c23 46 50 75 70 75c7 0 12 -3 17 -10c2 -4 4 -7 4 -10c0 -9 -7 -22 -28 -61c-35 -63 -57 -132 -57 -170c0 -9 2 -16 4 -21c2 -4 5 -5 9 -5
c13 0 35 15 57 40c28 33 98 137 120 179c21 40 39 62 55 62h1zM212 428c10 8 21 13 33 15s23 2 31 -2c8 -3 12 -8 10 -16c-1 -3 -1 -5 -3 -7c-1 -2 -3 -3 -6 -4c-4 -1 -8 -3 -15 -4c-3 -1 -7 -3 -13 -5c-5 -2 -10 -3 -15 -6c-10 -3 -17 -6 -21 -8c-5 -1 -9 -2 -11 -2
s-4 1 -5 2c-9 9 -4 22 15 37z" />
    <glyph glyph-name="ucircumflex" unicode="&#xfb;" horiz-adv-x="426" 
d="M280 341c4 0 6 0 9 -2c7 -3 10 -6 10 -13s-5 -20 -17 -42c-38 -75 -56 -132 -56 -168c0 -30 12 -46 34 -46c30 0 79 31 142 98c37 40 48 51 54 51c3 0 4 -1 6 -3c2 -1 2 -3 2 -6c0 -11 -18 -33 -67 -82c-58 -59 -96 -82 -134 -85h-7c-44 0 -73 38 -73 91c0 8 1 16 2 25
c1 2 1 3 1 4c-1 0 -4 -4 -11 -14c-61 -87 -101 -125 -134 -125c-3 0 -7 0 -10 1c-30 8 -45 40 -45 84c0 43 14 98 42 153c23 46 50 75 70 75c7 0 12 -3 17 -10c2 -4 4 -7 4 -10c0 -9 -7 -22 -28 -61c-35 -63 -57 -132 -57 -170c0 -9 2 -16 4 -21c2 -4 5 -5 9 -5
c13 0 35 15 57 40c28 33 98 137 120 179c21 40 39 62 55 62h1zM219 438c22 17 37 18 46 1c3 -5 5 -13 6 -22c2 -9 2 -18 2 -26s-2 -14 -4 -16c-14 -9 -26 -1 -36 23c-1 3 -2 4 -3 5c-1 0 -3 -1 -7 -2c-11 -6 -21 -9 -30 -10c-8 -2 -14 -1 -18 2c-8 6 -3 15 16 27
c4 2 8 5 13 8c6 4 10 7 15 10z" />
    <glyph glyph-name="udieresis" unicode="&#xfc;" horiz-adv-x="426" 
d="M280 341c4 0 6 0 9 -2c7 -3 10 -6 10 -13s-5 -20 -17 -42c-38 -75 -56 -132 -56 -168c0 -30 12 -46 34 -46c30 0 79 31 142 98c37 40 48 51 54 51c3 0 4 -1 6 -3c2 -1 2 -3 2 -6c0 -11 -18 -33 -67 -82c-58 -59 -96 -82 -134 -85h-7c-44 0 -73 38 -73 91c0 8 1 16 2 25
c1 2 1 3 1 4c-1 0 -4 -4 -11 -14c-61 -87 -101 -125 -134 -125c-3 0 -7 0 -10 1c-30 8 -45 40 -45 84c0 43 14 98 42 153c23 46 50 75 70 75c7 0 12 -3 17 -10c2 -4 4 -7 4 -10c0 -9 -7 -22 -28 -61c-35 -63 -57 -132 -57 -170c0 -9 2 -16 4 -21c2 -4 5 -5 9 -5
c13 0 35 15 57 40c28 33 98 137 120 179c21 40 39 62 55 62h1zM165 440c7 6 15 8 23 6c8 -3 14 -8 16 -18c2 -9 0 -17 -7 -24c-6 -7 -14 -9 -23 -7c-9 3 -15 10 -16 19c-2 9 0 17 7 24zM233 417c9 9 19 12 28 10c10 -2 15 -9 15 -19c0 -9 -3 -15 -10 -20
c-6 -5 -13 -7 -21 -5c-9 2 -14 7 -16 14c-3 8 -1 14 4 20z" />
    <glyph glyph-name="yacute" unicode="&#xfd;" horiz-adv-x="480" 
d="M269 370c9 0 16 -4 23 -12c8 -9 12 -27 12 -52c0 -46 -15 -117 -44 -202c-10 -28 -16 -41 -16 -44c0 -1 0 -1 1 -1s7 6 19 15c76 65 156 118 179 118c4 0 6 -1 7 -4c1 -2 1 -3 1 -4c0 -5 -7 -6 -29 -23c-41 -33 -102 -67 -166 -126c-29 -27 -29 -21 -45 -59
c-99 -227 -258 -435 -328 -435c-4 0 -8 1 -11 2c-11 4 -16 14 -16 28c0 71 122 252 274 393c27 25 27 25 34 41c59 124 102 261 102 308c0 11 -2 17 -7 17c-2 0 -4 0 -6 -2c-27 -17 -54 -47 -164 -178c-59 -71 -90 -99 -115 -99c-8 0 -16 3 -23 8c-17 12 -25 38 -25 71
c0 44 14 97 41 140c12 20 28 29 40 29c11 0 20 -9 20 -27v-4c-1 -10 -7 -19 -10 -22c-14 -13 -37 -106 -37 -138c0 -4 0 -7 1 -9c1 -1 2 -2 3 -2c14 0 63 50 150 152c75 87 111 121 135 121zM119 -86c-2 0 -9 -8 -26 -26c-116 -121 -200 -245 -209 -306v-2c0 -3 0 -4 2 -4
c3 0 9 6 22 18c57 55 144 185 205 305c3 8 6 13 6 15zM161 429c10 7 21 12 34 14c12 2 22 2 30 -1c9 -4 12 -9 10 -17c0 -3 -1 -5 -3 -7c-1 -1 -3 -3 -6 -4s-8 -3 -14 -4c-4 -1 -8 -3 -14 -4l-15 -6c-9 -4 -16 -7 -21 -9c-5 -1 -8 -2 -11 -2c-2 0 -3 1 -5 2
c-9 10 -4 22 15 38z" />
    <glyph glyph-name="thorn" unicode="&#xfe;" horiz-adv-x="447" 
d="M374 365c21 -20 31 -47 29 -82c-3 -35 -14 -72 -34 -112c-21 -39 -48 -76 -81 -109s-70 -58 -110 -74c-9 -3 -19 -6 -31 -9c-11 -2 -22 -4 -31 -4c-2 0 -4 -1 -5 -1s-2 -1 -2 -1c0 -1 -2 -6 -4 -14s-5 -19 -9 -31c-3 -12 -7 -26 -12 -43c-4 -16 -8 -30 -11 -43
c-2 -11 -5 -19 -6 -25c-2 -6 -3 -11 -4 -14s-2 -5 -3 -7c0 -1 -1 -3 -2 -4c-7 -10 -13 -10 -19 -1c-12 16 -5 69 19 160c0 1 0 2 1 2c1 7 3 12 4 15c0 4 1 6 1 8s0 3 -1 3c-1 1 -2 1 -4 2v0c-16 4 -28 13 -34 27s-5 28 3 42c10 16 16 13 17 -11c0 -9 2 -16 5 -20s8 -7 15 -9
l9 -2l1 4c1 3 3 11 6 23c4 13 8 27 13 42c4 15 8 27 12 38c20 67 42 126 65 179c1 4 3 7 4 10c1 2 1 4 1 4c0 1 -4 -1 -12 -4c-7 -4 -16 -9 -26 -14c-10 -6 -19 -11 -27 -16s-13 -9 -15 -11c0 0 -1 0 0 -1h2c2 0 4 1 7 1c15 2 22 -1 19 -10c-1 -4 -6 -8 -14 -12
c-8 -5 -18 -8 -28 -11c-10 -2 -17 -3 -23 -2c-8 2 -14 6 -18 13c-3 7 -4 14 -1 22c6 15 23 31 52 50s62 36 101 52c8 3 12 5 13 7c34 70 60 118 79 143c18 26 33 35 44 28c5 -3 8 -7 9 -13s1 -11 -1 -17c-2 -5 -5 -9 -10 -11c-4 -2 -12 -14 -24 -36c-13 -22 -26 -48 -40 -79
h-1v-2h2c2 0 4 0 7 1h3c43 6 76 -1 100 -21zM355 255c18 70 -9 99 -81 86c-21 -3 -33 -6 -37 -10c-2 -4 -9 -17 -18 -40c-9 -22 -19 -48 -30 -77s-21 -55 -29 -79c-4 -12 -9 -27 -15 -46s-12 -36 -17 -52c-5 -15 -8 -25 -9 -28c0 -1 0 -1 1 -1c1 -1 2 0 4 0c1 0 4 1 7 1
c47 12 92 42 136 91c45 48 74 100 88 155z" />
    <glyph glyph-name="ydieresis" unicode="&#xff;" horiz-adv-x="480" 
d="M269 370c9 0 16 -4 23 -12c8 -9 12 -27 12 -52c0 -46 -15 -117 -44 -202c-10 -28 -16 -41 -16 -44c0 -1 0 -1 1 -1s7 6 19 15c76 65 156 118 179 118c4 0 6 -1 7 -4c1 -2 1 -3 1 -4c0 -5 -7 -6 -29 -23c-41 -33 -102 -67 -166 -126c-29 -27 -29 -21 -45 -59
c-99 -227 -258 -435 -328 -435c-4 0 -8 1 -11 2c-11 4 -16 14 -16 28c0 71 122 252 274 393c27 25 27 25 34 41c59 124 102 261 102 308c0 11 -2 17 -7 17c-2 0 -4 0 -6 -2c-27 -17 -54 -47 -164 -178c-59 -71 -90 -99 -115 -99c-8 0 -16 3 -23 8c-17 12 -25 38 -25 71
c0 44 14 97 41 140c12 20 28 29 40 29c11 0 20 -9 20 -27v-4c-1 -10 -7 -19 -10 -22c-14 -13 -37 -106 -37 -138c0 -4 0 -7 1 -9c1 -1 2 -2 3 -2c14 0 63 50 150 152c75 87 111 121 135 121zM119 -86c-2 0 -9 -8 -26 -26c-116 -121 -200 -245 -209 -306v-2c0 -3 0 -4 2 -4
c3 0 9 6 22 18c57 55 144 185 205 305c3 8 6 13 6 15zM89 426c7 6 15 8 23 6c8 -3 14 -9 16 -18s0 -18 -7 -24c-6 -7 -14 -9 -23 -7c-9 3 -15 10 -17 19c-1 9 1 17 8 24zM165 435c9 8 18 11 28 9c9 -2 14 -9 15 -19c0 -8 -4 -15 -10 -20s-14 -7 -22 -5s-13 7 -16 14
c-2 8 -1 14 5 21z" />
    <glyph glyph-name="dotlessi" unicode="&#x131;" horiz-adv-x="203" 
d="M90 326c12 0 23 -10 23 -25c0 -7 -2 -16 -8 -25c-43 -70 -69 -147 -69 -190c0 -23 7 -38 23 -38c2 0 4 1 6 1c30 6 62 36 130 121c21 27 29 35 35 35c1 0 3 -1 5 -2s3 -3 3 -6c0 -14 -23 -44 -71 -99c-46 -54 -82 -78 -113 -78c-6 0 -11 1 -16 2c-33 10 -50 52 -50 104
s17 114 51 164c16 25 37 36 51 36z" />
    <glyph glyph-name="endash" unicode="&#x2013;" horiz-adv-x="349" 
d="M335 237c-14 2 -49 2 -82 2c-27 0 -52 0 -64 -1h-8c-20 0 -30 6 -30 14c0 7 10 15 31 18c26 4 54 6 80 6c66 0 122 -12 122 -28c0 -3 -2 -6 -6 -9c-3 -3 -6 -4 -13 -4c-6 0 -15 1 -30 2z" />
    <glyph glyph-name="emdash" unicode="&#x2014;" horiz-adv-x="392" 
d="M367 237c-15 2 -56 2 -95 2c-32 0 -62 0 -75 -1h-10c-23 0 -35 6 -35 14c0 7 11 15 36 18c31 4 64 6 95 6c77 0 142 -12 142 -28c0 -3 -2 -6 -7 -9c-4 -3 -7 -4 -16 -4c-7 0 -17 1 -35 2z" />
    <glyph glyph-name="quoteleft" unicode="&#x2018;" horiz-adv-x="165" 
d="M283 718c6 -3 9 -7 9 -11c0 -6 -6 -13 -18 -19c-23 -11 -37 -28 -44 -51c-3 -11 -10 -16 -17 -16c-9 0 -17 9 -17 24c0 34 45 76 75 76c4 0 9 -1 12 -3z" />
    <glyph glyph-name="quoteright" unicode="&#x2019;" horiz-adv-x="165" 
d="M205 625c-6 3 -9 7 -9 11c0 6 6 13 18 19c23 11 37 28 44 51c4 10 10 15 17 15c9 0 17 -8 17 -23c0 -34 -45 -77 -75 -77c-4 0 -8 1 -12 4z" />
    <glyph glyph-name="quotesinglbase" unicode="&#x201a;" horiz-adv-x="198" 
d="M19 -74c-6 3 -9 7 -9 11c0 6 6 13 18 19c23 11 37 28 44 51c4 11 11 16 17 16c9 0 17 -9 17 -24c0 -34 -45 -76 -75 -76c-4 0 -8 1 -12 3z" />
    <glyph glyph-name="quotedblleft" unicode="&#x201c;" horiz-adv-x="236" 
d="M363 718c6 -3 9 -7 9 -11c0 -6 -6 -13 -18 -19c-23 -11 -37 -28 -44 -51c-3 -11 -10 -16 -17 -16c-9 0 -17 9 -17 24c0 34 45 76 75 76c4 0 9 -1 12 -3zM283 718c6 -3 9 -7 9 -11c0 -6 -6 -13 -18 -19c-23 -11 -37 -28 -44 -51c-3 -11 -10 -16 -17 -16c-9 0 -17 9 -17 24
c0 34 45 76 75 76c4 0 9 -1 12 -3z" />
    <glyph glyph-name="quotedblright" unicode="&#x201d;" horiz-adv-x="238" 
d="M205 625c-6 3 -9 7 -9 11c0 6 6 13 18 19c23 11 37 28 44 51c4 10 10 15 17 15c9 0 17 -8 17 -23c0 -34 -45 -77 -75 -77c-4 0 -8 1 -12 4zM285 625c-6 3 -9 7 -9 11c0 6 6 13 18 19c23 11 37 28 44 51c4 10 10 15 17 15c9 0 17 -8 17 -23c0 -34 -45 -77 -75 -77
c-4 0 -8 1 -12 4z" />
    <glyph glyph-name="quotedblbase" unicode="&#x201e;" horiz-adv-x="290" 
d="M19 -74c-6 3 -9 7 -9 11c0 6 6 13 18 19c23 11 37 28 44 51c4 11 11 16 17 16c9 0 17 -9 17 -24c0 -34 -45 -76 -75 -76c-4 0 -8 1 -12 3zM99 -74c-6 3 -9 7 -9 11c0 6 6 13 18 19c23 11 37 28 44 51c4 11 11 16 17 16c9 0 17 -9 17 -24c0 -34 -45 -76 -75 -76
c-4 0 -8 1 -12 3z" />
    <glyph glyph-name="dagger" unicode="&#x2020;" horiz-adv-x="460" 
d="M412 400c41 -4 77 -10 109 -18c41 -10 62 -20 61 -30c0 -4 -4 -7 -11 -11c-3 -1 -6 -2 -10 -3c-3 -1 -8 -1 -15 0c-10 1 -28 3 -52 6c-12 2 -31 4 -58 7l-42 3l-10 -27c-40 -108 -82 -249 -124 -422c-7 -29 -14 -50 -18 -63c-5 -13 -10 -20 -16 -22c-3 0 -7 1 -11 4
c-4 2 -7 6 -8 11c-6 17 3 77 29 180c43 163 77 277 103 344l-53 4c-20 1 -36 2 -47 2l-14 1c-34 3 -51 10 -51 22c0 10 19 16 55 19c44 1 87 1 128 -2c18 42 33 73 44 94c12 21 24 41 36 59s21 28 28 29c3 0 5 0 8 -1c6 -1 10 -4 12 -7c2 -6 -4 -23 -18 -49
c-11 -20 -30 -64 -55 -130z" />
    <glyph glyph-name="bullet" unicode="&#x2022;" horiz-adv-x="194" 
d="M139 140c-12 6 -28 22 -29 34c-1 4 -2 7 -2 11c0 26 24 47 49 47c7 0 13 -1 20 -5c18 -9 26 -24 26 -40c0 -25 -19 -50 -47 -50c-5 0 -11 1 -17 3z" />
    <glyph glyph-name="ellipsis" unicode="&#x2026;" horiz-adv-x="372" 
d="M147 -16c-8 3 -17 13 -18 20c-1 2 -1 4 -1 7c0 15 14 28 29 28c4 0 8 -1 12 -3c11 -5 16 -15 16 -24c0 -15 -12 -30 -28 -30c-3 0 -7 1 -10 2zM238 -16c-7 3 -17 13 -18 20c0 2 -1 4 -1 7c0 15 15 28 30 28c4 0 8 -1 12 -3c11 -5 15 -15 15 -24c0 -15 -11 -30 -28 -30
c-3 0 -6 1 -10 2zM327 -16c-7 3 -16 13 -17 20c-1 2 -1 4 -1 7c0 15 14 28 29 28c4 0 8 -1 12 -3c11 -5 16 -15 16 -24c0 -15 -12 -30 -28 -30c-4 0 -7 1 -11 2z" />
    <glyph glyph-name="Euro" unicode="&#x20ac;" horiz-adv-x="495" 
d="M235 -100c-62 19 -103 95 -103 192v11c0 22 0 28 -24 28c-10 0 -23 -1 -42 -2c-12 -1 -19 -2 -24 -2c-9 0 -10 2 -14 5c-2 3 -4 6 -4 9c0 13 30 21 91 23c19 1 22 1 23 3c0 2 2 9 4 16c2 8 5 20 7 27s4 14 5 16c0 1 -6 2 -15 2c-22 0 -61 -3 -68 -7c-2 -1 -5 -2 -8 -2
c-8 0 -16 7 -16 16c0 2 0 4 1 6c6 12 39 21 101 25c11 1 21 2 21 2c0 1 3 5 5 11c57 126 158 202 237 202c45 0 83 -26 99 -82c4 -12 6 -26 6 -40c0 -39 -13 -78 -27 -78c-3 0 -6 1 -9 4c-2 3 -3 5 -3 11c0 5 1 13 2 26c1 8 2 15 2 22c0 61 -30 90 -72 90
c-50 0 -117 -43 -169 -129c-11 -19 -17 -28 -17 -33c0 -4 4 -5 12 -5c72 -4 88 -9 88 -26c0 -12 -1 -15 -34 -15c-11 0 -26 0 -47 1c-9 0 -16 1 -21 1c-22 0 -22 -6 -33 -42c-2 -8 -4 -14 -4 -17c0 -6 6 -6 23 -7c49 -3 65 -9 65 -22c0 -10 -8 -13 -34 -13
c-12 0 -28 0 -49 2h-4c-11 0 -11 -5 -11 -50c0 -90 40 -147 90 -147c19 0 39 8 59 25c25 21 74 86 94 126c11 21 21 30 26 30c4 0 6 -4 6 -11c0 -9 -4 -25 -14 -44c-48 -98 -120 -161 -179 -161c-8 0 -15 1 -22 3z" />
    <glyph glyph-name="minus" unicode="&#x2212;" horiz-adv-x="349" 
d="M337 237c-13 2 -49 2 -82 2c-28 0 -54 0 -65 -1h-9c-20 0 -30 6 -30 14c0 7 10 15 31 18c27 4 55 6 82 6c67 0 123 -12 123 -28c0 -3 -2 -6 -6 -9c-3 -3 -6 -4 -14 -4c-6 0 -15 1 -30 2z" />
    <glyph glyph-name="OE" unicode="&#x152;" 
d="M705 468c-2 -12 -4 -24 -7 -37c-23 -95 -62 -185 -117 -272s-117 -158 -185 -215c-69 -57 -131 -86 -188 -86c-6 0 -12 0 -18 1c-36 5 -63 22 -81 51s-27 64 -27 107c0 40 8 84 25 131c16 47 40 93 73 138c48 62 86 93 113 93c8 0 14 -3 19 -10c2 -3 3 -7 3 -12
s-1 -10 -4 -15s-7 -8 -12 -8c-6 0 -21 -15 -44 -44c-34 -44 -61 -93 -81 -147s-30 -103 -30 -146c0 -16 2 -31 5 -45c11 -35 34 -52 68 -52c37 0 81 18 134 55c53 36 104 86 155 151c58 77 102 155 131 232c22 60 36 115 41 166c-1 3 -1 6 -1 9c0 6 1 12 3 19v17
c0 59 -12 108 -37 147s-63 64 -113 73c-12 2 -24 3 -36 3c-74 0 -150 -34 -228 -103s-148 -165 -209 -286c-12 -23 -21 -43 -27 -60c-7 -17 -13 -37 -18 -59c-6 -27 -13 -41 -20 -41c-2 0 -4 1 -6 2c-9 8 -14 21 -14 38c0 33 13 78 40 135c26 57 61 117 106 180
c58 79 119 138 184 176s126 57 183 57c65 0 119 -22 162 -67c36 -38 57 -89 63 -154c49 66 113 121 192 163c82 44 152 66 211 66c27 0 48 -5 65 -16s25 -29 25 -53v-6c-2 -24 -12 -48 -30 -73c-19 -25 -40 -47 -63 -64c-24 -18 -44 -27 -61 -27c-13 0 -22 7 -26 20
c-1 1 -1 3 -1 4v1c0 5 1 8 4 11s6 4 9 4s6 -1 10 -4h2c0 -1 0 -1 1 -1c7 0 18 7 34 20s31 27 45 44c24 31 36 55 36 71c0 19 -14 29 -41 28c-41 0 -98 -19 -171 -58c-74 -39 -138 -89 -192 -151c-23 -24 -34 -42 -34 -53c0 -8 9 -13 26 -16s44 -4 81 -5c31 0 54 -1 70 -2
c15 -1 26 -4 33 -7c6 -4 11 -10 14 -18c3 -5 4 -10 4 -15c0 -11 -7 -24 -20 -40c-14 -16 -38 -39 -71 -68c-24 -21 -41 -36 -51 -45c-7 -6 -12 -11 -17 -16s-11 -10 -18 -16c-80 -73 -141 -139 -183 -196c-43 -58 -64 -104 -64 -137c0 -30 19 -46 57 -48h15c6 0 13 0 20 1
c59 9 122 37 191 85c69 47 148 113 238 198c13 13 24 23 33 29c8 6 14 10 18 11s7 2 9 2s3 -2 3 -7c0 -11 -20 -37 -60 -76c-41 -39 -94 -86 -160 -140c-115 -91 -213 -136 -293 -136l-22 1c-28 4 -49 15 -64 33s-22 40 -22 66c0 27 8 57 23 89c41 90 142 199 303 327
c57 46 85 71 85 75v1c-1 1 -7 2 -18 3h-35h-35c-51 0 -87 6 -110 19z" />
    <glyph glyph-name="oe" unicode="&#x153;" horiz-adv-x="264" 
d="M123 344h2c9 0 16 -5 21 -14c2 -4 3 -5 5 -5h2c3 2 7 3 11 3c14 0 30 -10 40 -26c10 -18 14 -39 14 -62c0 -102 -87 -238 -168 -238c-5 0 -10 1 -15 2c-36 8 -53 45 -53 94c0 54 21 122 62 184c26 39 56 62 79 62zM139 299c-25 -2 -91 -150 -91 -209c0 -27 13 -39 26 -39
c2 0 4 0 7 1c54 19 100 128 100 194c0 27 -8 46 -25 50c-5 1 -12 1 -14 2c-1 1 -2 1 -3 1zM333 328c26 -1 46 -21 46 -55c0 -9 -1 -17 -3 -27c-13 -50 -50 -85 -86 -85c-9 0 -17 2 -25 6c-3 1 -5 2 -6 2c-4 0 -5 -4 -9 -19c-7 -20 -10 -37 -10 -52c0 -38 20 -60 53 -60
c19 0 41 7 67 21c41 24 89 73 120 116c20 27 25 32 31 32s8 -3 8 -8c0 -17 -27 -57 -64 -95c-62 -62 -122 -99 -172 -99c-6 0 -13 1 -19 2c-51 11 -75 57 -75 112c0 59 27 128 82 179c22 21 44 30 62 30zM323 265c-6 0 -42 -43 -42 -49c0 -1 1 -2 3 -2c3 0 6 1 10 2
c10 4 30 37 30 47c0 1 0 2 -1 2z" />
    <glyph glyph-name="Scaron" unicode="&#x160;" horiz-adv-x="592" 
d="M123 -122c-62 5 -99 26 -99 54c0 4 0 8 2 13c3 5 5 8 8 8s7 -3 11 -10c13 -22 55 -32 107 -32c59 0 132 13 189 40c80 36 126 83 126 124c0 9 -3 18 -8 27c-24 39 -76 67 -209 110c-137 45 -198 85 -198 142c0 28 15 60 42 99c143 200 508 387 672 387
c50 0 81 -17 81 -57c0 -6 -1 -12 -2 -19c-18 -99 -231 -276 -346 -289h-6c-15 0 -23 7 -23 15c0 7 6 14 19 18c93 26 267 174 301 254c3 7 5 13 5 17c0 10 -8 13 -28 13h-6c-180 -1 -662 -325 -662 -444v-3c3 -35 36 -55 172 -98c145 -46 207 -86 226 -146c3 -8 4 -15 4 -23
c0 -84 -125 -178 -272 -199c-9 -1 -41 -2 -67 -2c-17 0 -32 0 -39 1zM524 848c-22 -18 -37 -19 -46 -3c-3 5 -6 13 -8 22s-2 18 -2 26s1 13 3 16c13 9 25 2 37 -22c1 -2 2 -4 3 -4c1 -1 3 0 7 2c11 6 21 9 29 11c9 2 15 2 18 -1c9 -6 5 -16 -14 -28c-4 -2 -8 -5 -13 -9
s-10 -7 -14 -10z" />
    <glyph glyph-name="scaron" unicode="&#x161;" horiz-adv-x="368" 
d="M188 361c19 0 34 -6 40 -19c2 -4 3 -10 3 -15c0 -15 -8 -32 -23 -42c-4 -3 -7 -4 -11 -4c-10 0 -18 8 -18 18v4c0 2 1 3 1 3c0 1 -1 2 -1 2c-1 0 -2 -1 -3 -1c-67 -16 -199 -97 -199 -122c0 -7 14 -15 53 -30c25 -10 47 -20 61 -28c4 -2 6 -3 9 -3c4 0 10 2 25 9
c85 41 192 78 223 78c2 0 4 -1 5 -1c4 -1 6 -3 6 -6c0 -4 -7 -10 -25 -16c-50 -13 -149 -53 -197 -79c-8 -4 -10 -6 -10 -8s1 -4 3 -7c12 -19 17 -39 17 -59c0 -87 -97 -177 -201 -177c-13 0 -26 1 -39 4c-27 6 -39 21 -39 41c0 48 69 125 183 191c9 5 14 8 14 11
c0 4 -13 9 -49 21c-64 22 -79 34 -79 64c0 71 167 171 250 171h1zM94 82c-4 0 -9 -4 -23 -12c-101 -57 -164 -124 -164 -164c0 -13 12 -21 34 -21c9 0 20 2 33 5c90 23 140 95 140 148c0 13 -3 25 -9 35c-4 7 -8 9 -11 9zM169 435c-21 -19 -36 -20 -46 -5c-3 5 -6 12 -8 21
c-3 9 -4 18 -5 26c0 9 1 14 3 17c12 10 25 3 38 -20c1 -2 2 -4 4 -4c1 0 3 0 6 2c10 7 20 11 28 13c9 3 15 3 19 0c9 -6 5 -15 -13 -28c-4 -3 -8 -6 -13 -10s-9 -8 -13 -12z" />
  </font>
</defs>
</svg>
